<svg width="150" height="150" viewBox="0 0 150 150" fill="none" xmlns="http://www.w3.org/2000/svg">
<g clip-path="url(#clip0_1_668)">
<path d="M75 152.47C116.421 152.47 150 118.891 150 77.4697C150 36.0483 116.421 2.46967 75 2.46967C33.5786 2.46967 0 36.0483 0 77.4697C0 118.891 33.5786 152.47 75 152.47Z" fill="#7E341F"/>
<path d="M76.6272 53.5212C91.4067 53.5212 103.388 41.5401 103.388 26.7606C103.388 11.9811 91.4067 0 76.6272 0C61.8478 0 49.8666 11.9811 49.8666 26.7606C49.8666 41.5401 61.8478 53.5212 76.6272 53.5212Z" fill="#F16625"/>
<path d="M46.4846 80.5818C61.2641 80.5818 73.2452 68.6007 73.2452 53.8212C73.2452 39.0417 61.2641 27.0606 46.4846 27.0606C31.7051 27.0606 19.724 39.0417 19.724 53.8212C19.724 68.6007 31.7051 80.5818 46.4846 80.5818Z" fill="#F16625"/>
<path d="M103.3 80.5818C118.079 80.5818 130.061 68.6007 130.061 53.8212C130.061 39.0417 118.079 27.0606 103.3 27.0606C88.5205 27.0606 76.5394 39.0417 76.5394 53.8212C76.5394 68.6007 88.5205 80.5818 103.3 80.5818Z" fill="#F16625"/>
<path d="M76.2937 42.8667H76.2907C57.0159 42.8667 41.3907 58.4919 41.3907 77.7667V165.23C41.3907 184.505 57.0159 200.13 76.2907 200.13H76.2937C95.5684 200.13 111.194 184.505 111.194 165.23V77.7667C111.194 58.4919 95.5684 42.8667 76.2937 42.8667Z" fill="#F9A08A"/>
<path d="M65.3516 62.7152L60.1576 64.6303C59.5507 64.8509 58.8812 64.8227 58.2949 64.552C57.7086 64.2813 57.2531 63.7899 57.0273 63.1848C56.9166 62.883 56.8665 62.5623 56.8799 62.2411C56.8932 61.9199 56.9698 61.6045 57.1052 61.3129C57.2406 61.0213 57.4321 60.7593 57.6689 60.5418C57.9056 60.3243 58.1829 60.1557 58.4849 60.0455L63.6789 58.1303C64.2858 57.9097 64.9553 57.9379 65.5416 58.2086C66.1278 58.4793 66.5834 58.9707 66.8092 59.5758C66.9199 59.8776 66.97 60.1983 66.9566 60.5195C66.9433 60.8407 66.8667 61.1561 66.7313 61.4477C66.5959 61.7393 66.4044 62.0013 66.1676 62.2188C65.9309 62.4363 65.6536 62.6049 65.3516 62.7152Z" fill="#870000"/>
<path d="M87.2331 62.7151L92.424 64.6303C93.0305 64.8507 93.6996 64.8225 94.2854 64.5518C94.8712 64.281 95.3262 63.7897 95.5513 63.1848C95.7766 62.5776 95.7516 61.9058 95.4816 61.3171C95.2117 60.7284 94.719 60.271 94.1119 60.0454L88.9149 58.1303C88.3084 57.9098 87.6393 57.9381 87.0535 58.2088C86.4677 58.4796 86.0127 58.9709 85.7877 59.5757C85.6762 59.8768 85.6252 60.1968 85.6376 60.5176C85.6499 60.8383 85.7254 61.1535 85.8596 61.4451C85.9939 61.7366 86.1843 61.9989 86.42 62.2168C86.6556 62.4347 86.9319 62.6041 87.2331 62.7151Z" fill="#870000"/>
<path d="M71.0788 77.1455C72.8495 77.1455 74.2849 75.1362 74.2849 72.6576C74.2849 70.179 72.8495 68.1697 71.0788 68.1697C69.3081 68.1697 67.8727 70.179 67.8727 72.6576C67.8727 75.1362 69.3081 77.1455 71.0788 77.1455Z" fill="#870000"/>
<path d="M81.506 77.1455C83.2766 77.1455 84.712 75.1362 84.712 72.6576C84.712 70.179 83.2766 68.1697 81.506 68.1697C79.7353 68.1697 78.2999 70.179 78.2999 72.6576C78.2999 75.1362 79.7353 77.1455 81.506 77.1455Z" fill="#870000"/>
<path d="M46.0778 84.699C47.9321 80.3135 45.8802 75.2552 41.4948 73.4009C37.1093 71.5466 32.051 73.5985 30.1967 77.984C28.3424 82.3694 30.3943 87.4278 34.7798 89.2821C39.1652 91.1363 44.2235 89.0844 46.0778 84.699Z" fill="#F9A08A"/>
<path d="M119.139 84.7003C120.993 80.3148 118.941 75.2565 114.556 73.4022C110.17 71.5479 105.112 73.5998 103.258 77.9853C101.403 82.3707 103.455 87.429 107.841 89.2833C112.226 91.1376 117.284 89.0857 119.139 84.7003Z" fill="#F9A08A"/>
<path d="M66.3878 82.1454C65.7707 82.1474 65.1632 82.299 64.6174 82.5871C64.0716 82.8753 63.6038 83.2914 63.2541 83.7999C62.9044 84.3084 62.6831 84.8941 62.6093 85.5069C62.5355 86.1196 62.6113 86.7411 62.8303 87.3181C63.8873 90.1202 65.7731 92.5337 68.2363 94.2372C70.6995 95.9406 73.6233 96.8531 76.6181 96.8531C79.613 96.8531 82.5367 95.9406 85 94.2372C87.4632 92.5337 89.3489 90.1202 90.406 87.3181C90.6256 86.741 90.7019 86.1191 90.6284 85.506C90.5548 84.8928 90.3337 84.3067 89.9839 83.7978C89.6341 83.2888 89.1661 82.8724 88.62 82.5841C88.0739 82.2957 87.466 82.1442 86.8484 82.1424L66.3878 82.1454Z" fill="#FFFEF9"/>
<path d="M111.154 114.933H41.3907V166.827H111.154V114.933Z" fill="#396FED"/>
<path d="M111.154 126.227H41.3907V133.661H111.154V126.227Z" fill="#154A87"/>
<path d="M111.154 137.767H41.3907V145.2H111.154V137.767Z" fill="#154A87"/>
<path d="M33.5876 191.988C31.5204 191.982 29.5394 191.159 28.0773 189.697C26.6153 188.236 25.791 186.255 25.7846 184.188V122.733C25.791 120.666 26.6153 118.685 28.0773 117.224C29.5394 115.762 31.5204 114.939 33.5876 114.933H41.3907V184.188C41.3843 186.255 40.56 188.236 39.098 189.697C37.6359 191.159 35.6549 191.982 33.5876 191.988Z" fill="#F9A08A"/>
<path d="M118.958 191.988C116.888 191.988 114.903 191.166 113.44 189.702C111.977 188.239 111.154 186.254 111.154 184.185L111.154 114.933H118.958C121.027 114.933 123.012 115.755 124.475 117.219C125.938 118.682 126.761 120.667 126.761 122.736L126.761 184.188C126.76 186.257 125.937 188.241 124.474 189.703C123.011 191.166 121.026 191.988 118.958 191.988Z" fill="#F9A08A"/>
</g>
<defs>
<clipPath id="clip0_1_668">
<rect width="150" height="150" fill="white"/>
</clipPath>
</defs>
</svg>
