<svg width="150" height="150" viewBox="0 0 150 150" fill="none" xmlns="http://www.w3.org/2000/svg">
<g clip-path="url(#clip0_1_326)">
<path d="M75.3614 150.723C116.982 150.723 150.723 116.982 150.723 75.3614C150.723 33.7405 116.982 0 75.3614 0C33.7405 0 0 33.7405 0 75.3614C0 116.982 33.7405 150.723 75.3614 150.723Z" fill="#FF7E25"/>
<path d="M119.23 52.7073V107.704C119.23 129.46 101.427 147.261 79.6708 147.261H71.4282C49.6723 147.261 31.8718 129.46 31.8718 107.704V52.7073C31.9047 42.2265 36.0828 32.1843 43.494 24.7731C50.9051 17.362 60.9473 13.1839 71.4282 13.151H79.6708C101.427 13.151 119.23 30.9515 119.23 52.7073Z" fill="#6A3410"/>
<path d="M104.271 209.624V175.67C104.271 160.552 91.8991 148.18 76.7811 148.18H74.3208C59.1998 148.18 46.8284 160.552 46.8284 175.67V209.624H104.271Z" fill="#396FED"/>
<path d="M95.7782 152.55V133.224C95.7621 127.862 93.6254 122.725 89.8344 118.933C86.0435 115.142 80.9064 113.004 75.5448 112.987C70.1827 113.003 65.0448 115.141 61.2532 118.932C57.4616 122.724 55.3244 127.862 55.3083 133.224V152.55H95.7782Z" fill="#EBEBEB"/>
<path d="M75.5506 126.059C73.2749 126.059 71.0924 125.155 69.4833 123.546C67.8741 121.937 66.9701 119.754 66.9701 117.479V108.852C66.9709 106.577 67.8753 104.395 69.4843 102.787C71.0934 101.178 73.2754 100.275 75.5506 100.275C76.677 100.275 77.7924 100.497 78.8331 100.928C79.8738 101.359 80.8193 101.991 81.6158 102.787C82.4123 103.584 83.0441 104.529 83.4752 105.57C83.9063 106.611 84.1281 107.726 84.1281 108.852V117.466C84.1301 118.594 83.9097 119.711 83.4796 120.754C83.0494 121.796 82.4179 122.743 81.6212 123.541C80.8245 124.34 79.8783 124.973 78.8366 125.405C77.7949 125.837 76.6783 126.059 75.5506 126.059Z" fill="#F9B0A1"/>
<path d="M75.5508 19.3991H75.5477C53.2456 19.3991 35.1662 37.4785 35.1662 59.7807V68.2729C35.1662 90.575 53.2456 108.654 75.5477 108.654H75.5508C97.8529 108.654 115.932 90.575 115.932 68.2729V59.7807C115.932 37.4785 97.8529 19.3991 75.5508 19.3991Z" fill="#F9B0A1"/>
<path d="M39.5873 79.8507C42.4281 77.0099 42.4281 72.4041 39.5873 69.5633C36.7465 66.7226 32.1407 66.7226 29.2999 69.5633C26.4591 72.4041 26.4591 77.0099 29.2999 79.8507C32.1407 82.6915 36.7465 82.6915 39.5873 79.8507Z" fill="#F9B0A1"/>
<path d="M123.796 76.0679C124.552 72.1223 121.967 68.3106 118.021 67.5544C114.075 66.7981 110.264 69.3837 109.508 73.3293C108.751 77.275 111.337 81.0866 115.282 81.8429C119.228 82.5991 123.04 80.0136 123.796 76.0679Z" fill="#F9B0A1"/>
<path d="M50.1565 82.6966C50.1565 83.2021 49.4135 83.6101 48.4939 83.6101C47.5744 83.6101 46.8284 83.2021 46.8284 82.6966C46.8284 82.1912 47.5744 81.7832 48.4939 81.7832C49.4135 81.7832 50.1565 82.1912 50.1565 82.6966Z" fill="#F9B0A1"/>
<path d="M55.3693 82.6966C55.3693 83.2021 54.6233 83.6101 53.7037 83.6101C52.7841 83.6101 52.0412 83.2021 52.0412 82.6966C52.0412 82.1912 52.7841 81.7832 53.7037 81.7832C54.6233 81.7832 55.3693 82.1912 55.3693 82.6966Z" fill="#F9B0A1"/>
<path d="M52.9577 85.099C52.9577 85.6045 52.2117 86.0125 51.2921 86.0125C50.3726 86.0125 49.6296 85.6045 49.6296 85.099C49.6296 84.5936 50.3756 84.1856 51.2921 84.1856C52.2087 84.1856 52.9577 84.5936 52.9577 85.099Z" fill="#F9B0A1"/>
<path d="M58.2221 85.099C58.2221 85.6045 57.4761 86.0125 56.5565 86.0125C55.637 86.0125 54.891 85.6045 54.891 85.099C54.891 84.5936 55.637 84.1856 56.5565 84.1856C57.4761 84.1856 58.2221 84.5936 58.2221 85.099Z" fill="#F9B0A1"/>
<path d="M60.5942 82.6966C60.5942 83.2021 59.8513 83.6101 58.9317 83.6101C58.0121 83.6101 57.2661 83.2021 57.2661 82.6966C57.2661 82.1912 58.0121 81.7832 58.9317 81.7832C59.8513 81.7832 60.5942 82.1912 60.5942 82.6966Z" fill="#F9B0A1"/>
<path d="M93.0379 82.6966C93.0379 83.2021 92.2919 83.6101 91.3724 83.6101C90.4528 83.6101 89.7068 83.2021 89.7068 82.6966C89.7068 82.1912 90.4528 81.7832 91.3724 81.7832C92.2919 81.7832 93.0379 82.1912 93.0379 82.6966Z" fill="#F9B0A1"/>
<path d="M98.2477 82.6966C98.2477 83.2021 97.5017 83.6101 96.5852 83.6101C95.6686 83.6101 94.9196 83.2021 94.9196 82.6966C94.9196 82.1912 95.6656 81.7832 96.5852 81.7832C97.5047 81.7832 98.2477 82.1912 98.2477 82.6966Z" fill="#F9B0A1"/>
<path d="M95.8361 85.099C95.8361 85.6045 95.0932 86.0125 94.1736 86.0125C93.2541 86.0125 92.5081 85.6045 92.5081 85.099C92.5081 84.5936 93.2541 84.1856 94.1736 84.1856C95.0932 84.1856 95.8361 84.5936 95.8361 85.099Z" fill="#F9B0A1"/>
<path d="M101.092 85.099C101.092 85.6045 100.346 86.0125 99.4261 86.0125C98.5065 86.0125 97.7636 85.6045 97.7636 85.099C97.7636 84.5936 98.5065 84.1856 99.4261 84.1856C100.346 84.1856 101.092 84.5936 101.092 85.099Z" fill="#F9B0A1"/>
<path d="M103.461 82.6966C103.461 83.2021 102.715 83.6101 101.795 83.6101C100.876 83.6101 100.13 83.2021 100.13 82.6966C100.13 82.1912 100.876 81.7832 101.795 81.7832C102.715 81.7832 103.461 82.1912 103.461 82.6966Z" fill="#F9B0A1"/>
<path d="M56.5567 76.8382C58.4116 76.8382 59.9152 75.3346 59.9152 73.4797C59.9152 71.6248 58.4116 70.1212 56.5567 70.1212C54.7018 70.1212 53.1982 71.6248 53.1982 73.4797C53.1982 75.3346 54.7018 76.8382 56.5567 76.8382Z" fill="#262424"/>
<path d="M94.5422 76.8382C96.397 76.8382 97.9007 75.3346 97.9007 73.4797C97.9007 71.6248 96.397 70.1212 94.5422 70.1212C92.6873 70.1212 91.1836 71.6248 91.1836 73.4797C91.1836 75.3346 92.6873 76.8382 94.5422 76.8382Z" fill="#262424"/>
<path d="M70.1188 79.0915V87.3888C70.1229 88.8283 70.6965 90.2076 71.7143 91.2255C72.7322 92.2433 74.1115 92.8169 75.5509 92.8209C76.9923 92.8193 78.3743 92.2469 79.3946 91.2289C80.4149 90.2109 80.9904 88.8301 80.9952 87.3888V79.0915H70.1188Z" fill="#FFFEF9"/>
<path d="M119.23 52.7073V54.8753C110.745 61.4356 100.319 64.9876 89.5941 64.9722C78.4303 64.9712 67.6081 61.1214 58.9517 54.0718C50.2953 47.0222 44.3339 37.2038 42.0722 26.2715C45.7698 22.1458 50.2949 18.8452 55.3528 16.5846C60.4107 14.324 65.8881 13.154 71.4282 13.151H79.6707C101.427 13.151 119.23 30.9515 119.23 52.7073Z" fill="#6A3410"/>
<path d="M63.5507 137.624H55.369V173.919H63.5507V137.624Z" fill="#F9B0A1"/>
<path d="M95.7841 137.624H87.6024V173.919H95.7841V137.624Z" fill="#F9B0A1"/>
</g>
<defs>
<clipPath id="clip0_1_326">
<rect width="150" height="150" fill="white"/>
</clipPath>
</defs>
</svg>
