<svg width="150" height="150" viewBox="0 0 150 150" fill="none" xmlns="http://www.w3.org/2000/svg">
<g clip-path="url(#clip0_1_553)">
<path d="M75 150C116.421 150 150 116.421 150 75C150 33.5786 116.421 0 75 0C33.5786 0 0 33.5786 0 75C0 116.421 33.5786 150 75 150Z" fill="#396FED"/>
<path d="M117.267 55.5848C117.267 32.1479 98.2673 13.1485 74.8304 13.1485C51.3934 13.1485 32.394 32.1479 32.394 55.5848V102.858C32.394 126.295 51.3934 145.294 74.8304 145.294C98.2673 145.294 117.267 126.295 117.267 102.858V55.5848Z" fill="#AC5B0F"/>
<path d="M112.912 56.6242C112.912 35.5906 95.8618 18.5394 74.8289 18.5394C53.7961 18.5394 36.7456 35.5906 36.7456 56.6242V74.7576C36.7456 95.7913 53.7961 112.842 74.8289 112.842C95.8618 112.842 112.912 95.7913 112.912 74.7576V56.6242Z" fill="#F9B0A1"/>
<path d="M117.273 60.2394C117.273 55.6667 116.539 46.603 115.188 42.4757C109.63 25.506 93.6061 13.1485 74.8364 13.1485C54.7849 13.1485 37.8667 27.2454 33.497 46.0151C32.7788 49.0939 32.4001 60.2333 32.4001 63.5212C56.791 66.6454 84.3576 60.9303 99.1364 43.203C100.939 52.9818 110.873 59.3727 117.273 60.2394Z" fill="#AC5B0F"/>
<path d="M47.6424 75.5727C47.409 77.5844 46.5842 79.4816 45.2725 81.0246C43.9608 82.5675 42.221 83.6868 40.2731 84.2409C38.3253 84.7951 36.2568 84.7592 34.3294 84.1378C32.4019 83.5164 30.702 82.3374 29.4446 80.7498C28.1872 79.1623 27.4288 77.2376 27.2653 75.219C27.1018 73.2005 27.5406 71.1788 28.5261 69.4096C29.5115 67.6404 30.9995 66.2032 32.8019 65.2797C34.6042 64.3561 36.6399 63.9878 38.6515 64.2212C39.9874 64.3758 41.2797 64.7921 42.4546 65.4464C43.6295 66.1006 44.664 66.9799 45.499 68.0341C46.3339 69.0883 46.953 70.2966 47.3208 71.5901C47.6885 72.8836 47.7979 74.2369 47.6424 75.5727Z" fill="#F9B0A1"/>
<path d="M122.268 76.165C123.248 70.5955 119.528 65.286 113.958 64.306C108.389 63.3259 103.079 67.0464 102.099 72.6159C101.119 78.1854 104.84 83.4948 110.409 84.4749C115.979 85.4549 121.288 81.7344 122.268 76.165Z" fill="#F9B0A1"/>
<path d="M117.273 82.9758C116.674 82.9758 116.1 82.7379 115.676 82.3145C115.253 81.8912 115.015 81.3169 115.015 80.7182V55.5849C115.015 33.4303 96.9909 15.4061 74.8364 15.4061C52.6818 15.4061 34.6545 33.4303 34.6545 55.5849V80.7182C34.6545 81.0143 34.5962 81.3074 34.4829 81.581C34.3696 81.8545 34.2036 82.103 33.9942 82.3124C33.7848 82.5218 33.5363 82.6878 33.2628 82.8011C32.9892 82.9144 32.6961 82.9727 32.4 82.9727C32.1039 82.9727 31.8108 82.9144 31.5372 82.8011C31.2637 82.6878 31.0151 82.5218 30.8058 82.3124C30.5964 82.103 30.4304 81.8545 30.3171 81.581C30.2038 81.3074 30.1454 81.0143 30.1454 80.7182V55.5849C30.1394 30.9424 50.1879 10.9091 74.8303 10.9091C99.4727 10.9091 119.521 30.9576 119.521 55.6V80.7333C119.518 81.3281 119.28 81.8976 118.859 82.3176C118.438 82.7376 117.868 82.9742 117.273 82.9758Z" fill="#EF4151"/>
<path d="M29.797 80.897C31.6547 80.897 33.1606 77.9271 33.1606 74.2636C33.1606 70.6002 31.6547 67.6303 29.797 67.6303C27.9393 67.6303 26.4333 70.6002 26.4333 74.2636C26.4333 77.9271 27.9393 80.897 29.797 80.897Z" fill="#EF4151"/>
<path d="M33.6029 64.1667H33.5999C32.2727 64.1667 31.1968 65.2425 31.1968 66.5697V81.9576C31.1968 83.2847 32.2727 84.3606 33.5999 84.3606H33.6029C34.9301 84.3606 36.0059 83.2847 36.0059 81.9576V66.5697C36.0059 65.2425 34.9301 64.1667 33.6029 64.1667Z" fill="#262424"/>
<path d="M119 80.897C120.858 80.897 122.364 77.9271 122.364 74.2636C122.364 70.6002 120.858 67.6303 119 67.6303C117.142 67.6303 115.636 70.6002 115.636 74.2636C115.636 77.9271 117.142 80.897 119 80.897Z" fill="#EF4151"/>
<path d="M115.197 84.3576C115.833 84.352 116.441 84.0971 116.89 83.6476C117.34 83.1982 117.594 82.5901 117.6 81.9545V66.5697C117.594 65.9341 117.34 65.3261 116.89 64.8766C116.441 64.4272 115.833 64.1722 115.197 64.1667C114.561 64.1714 113.952 64.426 113.502 64.8756C113.052 65.3251 112.796 65.9336 112.791 66.5697V81.9545C112.796 82.5907 113.052 83.1991 113.502 83.6487C113.952 84.0982 114.561 84.3528 115.197 84.3576Z" fill="#262424"/>
<path d="M55.9933 78.5655C58.8446 78.1027 60.7808 75.4161 60.318 72.5648C59.8551 69.7135 57.1685 67.7772 54.3172 68.2401C51.4659 68.7029 49.5297 71.3895 49.9925 74.2408C50.4553 77.0921 53.142 79.0283 55.9933 78.5655Z" fill="#7E341F"/>
<path d="M94.7055 78.4997C97.5169 77.8362 99.258 75.0192 98.5945 72.2079C97.931 69.3965 95.114 67.6553 92.3026 68.3189C89.4912 68.9824 87.7501 71.7994 88.4136 74.6108C89.0772 77.4221 91.8941 79.1633 94.7055 78.4997Z" fill="#7E341F"/>
<path d="M59.7546 86.8636H88.9031C88.9031 86.8636 84.2182 93.6363 74.3273 93.6363C64.4364 93.6363 59.7546 86.8636 59.7546 86.8636Z" fill="#FFFEF9"/>
<path d="M50.4547 90.8363C53.3852 90.8363 55.7608 88.4892 55.7608 85.5939C55.7608 82.6986 53.3852 80.3515 50.4547 80.3515C47.5243 80.3515 45.1487 82.6986 45.1487 85.5939C45.1487 88.4892 47.5243 90.8363 50.4547 90.8363Z" fill="#F9A08A"/>
<path d="M98.5757 90.8363C101.506 90.8363 103.882 88.4892 103.882 85.5939C103.882 82.6986 101.506 80.3515 98.5757 80.3515C95.6453 80.3515 93.2697 82.6986 93.2697 85.5939C93.2697 88.4892 95.6453 90.8363 98.5757 90.8363Z" fill="#F9A08A"/>
<path d="M45.1514 176.97C44.4346 176.97 43.7281 176.799 43.0904 176.471C42.4528 176.144 41.9025 175.669 41.4851 175.086C41.0677 174.504 40.7952 173.83 40.6902 173.121C40.5853 172.412 40.6509 171.688 40.8817 171.009L55.4271 128.127C55.8248 127.012 56.6454 126.097 57.7116 125.581C58.7778 125.065 60.0042 124.989 61.126 125.369C62.2478 125.749 63.1751 126.555 63.7076 127.614C64.2402 128.672 64.3354 129.897 63.9726 131.024L49.4271 173.906C49.1242 174.8 48.5488 175.576 47.7818 176.125C47.0149 176.675 46.0949 176.97 45.1514 176.97Z" fill="#F9B0A1"/>
<path d="M108.027 176.97C107.084 176.969 106.166 176.673 105.399 176.123C104.633 175.574 104.058 174.799 103.755 173.906L89.2091 131.024C89.0188 130.463 88.941 129.87 88.9799 129.279C89.0188 128.688 89.1737 128.111 89.4358 127.58C89.6979 127.049 90.0621 126.574 90.5075 126.184C90.9529 125.794 91.4709 125.495 92.0318 125.305C92.5927 125.114 93.1856 125.036 93.7766 125.075C94.3676 125.114 94.9451 125.269 95.4762 125.531C96.0074 125.793 96.4816 126.158 96.872 126.603C97.2624 127.048 97.5613 127.566 97.7515 128.127L112.297 171.009C112.527 171.688 112.592 172.411 112.487 173.12C112.382 173.829 112.109 174.503 111.692 175.085C111.274 175.668 110.724 176.142 110.087 176.47C109.45 176.798 108.744 176.969 108.027 176.97Z" fill="#F9B0A1"/>
<path d="M97.5394 139.279C97.4675 133.722 95.2004 128.42 91.2331 124.53C87.2657 120.639 81.9203 118.476 76.3637 118.512C70.8037 118.581 65.497 120.848 61.6034 124.817C57.7098 128.787 55.546 134.137 55.5849 139.697L55.8334 164.433L97.7849 164.015L97.5394 139.279Z" fill="#262424"/>
<path d="M68.3726 107.576H84.4817V122.285C84.4817 123.933 83.8269 125.514 82.6613 126.68C81.4958 127.845 79.9149 128.5 78.2666 128.5H74.5848C72.9364 128.5 71.3555 127.845 70.19 126.68C69.0244 125.514 68.3696 123.933 68.3696 122.285V107.576H68.3726Z" fill="#F9B0A1"/>
</g>
<defs>
<clipPath id="clip0_1_553">
<rect width="150" height="150" fill="white"/>
</clipPath>
</defs>
</svg>
