<svg width="150" height="150" viewBox="0 0 150 150" fill="none" xmlns="http://www.w3.org/2000/svg">
<g clip-path="url(#clip0_1_698)">
<path d="M75 150C116.421 150 150 116.421 150 75C150 33.5786 116.421 0 75 0C33.5786 0 0 33.5786 0 75C0 116.421 33.5786 150 75 150Z" fill="#396FED"/>
<path d="M118.658 52.4546L125.036 84.497C125.036 106.149 25.3393 106.149 25.3393 84.497L30.7939 52.5364C33.0423 39.4727 35.5726 33.1424 41.8787 26.1455C45.5585 22.0396 50.0619 18.7548 55.0955 16.505C60.1292 14.2553 65.5803 13.0909 71.0939 13.0879H79.2969C100.939 13.0879 114.591 28.9243 118.658 52.4546Z" fill="#262424"/>
<path d="M103.77 208.618V174.827C103.77 159.782 91.4575 147.47 76.4121 147.47H73.9636C58.9151 147.47 46.603 159.782 46.603 174.827V208.618H103.77Z" fill="#396FED"/>
<path d="M95.3181 151.818V132.585C95.3021 127.249 93.1756 122.136 89.4028 118.363C85.6301 114.59 80.5176 112.462 75.1817 112.445C69.8453 112.461 64.7321 114.588 60.9587 118.362C57.1853 122.135 55.0583 127.248 55.0423 132.585V151.818H95.3181Z" fill="#BD0000"/>
<path d="M75.1879 125.455C72.9231 125.455 70.7511 124.555 69.1496 122.953C67.5482 121.352 66.6485 119.18 66.6485 116.915V108.33C66.6493 106.066 67.5494 103.895 69.1507 102.294C70.7521 100.693 72.9236 99.7939 75.1879 99.7939C76.3089 99.7939 77.4189 100.015 78.4546 100.444C79.4903 100.873 80.4313 101.501 81.224 102.294C82.0167 103.087 82.6455 104.028 83.0745 105.064C83.5035 106.099 83.7243 107.209 83.7243 108.33V116.903C83.7263 118.025 83.5069 119.137 83.0788 120.174C82.6507 121.212 82.0222 122.155 81.2294 122.949C80.4365 123.743 79.4948 124.373 78.4581 124.803C77.4215 125.233 76.3102 125.455 75.1879 125.455Z" fill="#F9B0A1"/>
<path d="M75.1877 19.3061H75.1847C52.9895 19.3061 34.9968 37.2988 34.9968 59.494V67.9455C34.9968 90.1406 52.9895 108.133 75.1847 108.133H75.1877C97.3829 108.133 115.376 90.1406 115.376 67.9455V59.494C115.376 37.2988 97.3829 19.3061 75.1877 19.3061Z" fill="#F9B0A1"/>
<path d="M39.3967 79.4678C42.2239 76.6406 42.2239 72.0569 39.3967 69.2297C36.5696 66.4026 31.9859 66.4026 29.1587 69.2297C26.3315 72.0569 26.3315 76.6406 29.1587 79.4678C31.9859 82.2949 36.5696 82.2949 39.3967 79.4678Z" fill="#F9B0A1"/>
<path d="M123.206 75.7133C123.962 71.7873 121.392 67.9917 117.466 67.2356C113.54 66.4796 109.744 69.0494 108.988 72.9755C108.232 76.9015 110.802 80.6972 114.728 81.4532C118.654 82.2092 122.449 79.6394 123.206 75.7133Z" fill="#F9B0A1"/>
<path d="M49.9151 82.3001C49.9151 82.8031 49.1757 83.2091 48.2606 83.2091C47.3454 83.2091 46.603 82.8031 46.603 82.3001C46.603 81.797 47.3454 81.391 48.2606 81.391C49.1757 81.391 49.9151 81.797 49.9151 82.3001Z" fill="#F9B0A1"/>
<path d="M55.1029 82.3001C55.1029 82.8031 54.3605 83.2091 53.4453 83.2091C52.5302 83.2091 51.7908 82.8031 51.7908 82.3001C51.7908 81.797 52.5302 81.391 53.4453 81.391C54.3605 81.391 55.1029 81.797 55.1029 82.3001Z" fill="#F9B0A1"/>
<path d="M52.7029 84.6909C52.7029 85.194 51.9604 85.6 51.0453 85.6C50.1301 85.6 49.3907 85.194 49.3907 84.6909C49.3907 84.1879 50.1332 83.7819 51.0453 83.7819C51.9574 83.7819 52.7029 84.1879 52.7029 84.6909Z" fill="#F9B0A1"/>
<path d="M57.9424 84.6909C57.9424 85.194 57.2 85.6 56.2848 85.6C55.3697 85.6 54.6273 85.194 54.6273 84.6909C54.6273 84.1879 55.3697 83.7819 56.2848 83.7819C57.2 83.7819 57.9424 84.1879 57.9424 84.6909Z" fill="#F9B0A1"/>
<path d="M60.3031 82.3001C60.3031 82.8031 59.5638 83.2091 58.6486 83.2091C57.7334 83.2091 56.991 82.8031 56.991 82.3001C56.991 81.797 57.7334 81.391 58.6486 81.391C59.5638 81.391 60.3031 81.797 60.3031 82.3001Z" fill="#F9B0A1"/>
<path d="M92.591 82.3001C92.591 82.8031 91.8485 83.2091 90.9334 83.2091C90.0182 83.2091 89.2758 82.8031 89.2758 82.3001C89.2758 81.797 90.0182 81.391 90.9334 81.391C91.8485 81.391 92.591 81.797 92.591 82.3001Z" fill="#F9B0A1"/>
<path d="M97.7758 82.3001C97.7758 82.8031 97.0333 83.2091 96.1212 83.2091C95.2091 83.2091 94.4637 82.8031 94.4637 82.3001C94.4637 81.797 95.2061 81.391 96.1212 81.391C97.0364 81.391 97.7758 81.797 97.7758 82.3001Z" fill="#F9B0A1"/>
<path d="M95.3757 84.6909C95.3757 85.194 94.6363 85.6 93.7212 85.6C92.806 85.6 92.0636 85.194 92.0636 84.6909C92.0636 84.1879 92.806 83.7819 93.7212 83.7819C94.6363 83.7819 95.3757 84.1879 95.3757 84.6909Z" fill="#F9B0A1"/>
<path d="M100.606 84.6909C100.606 85.194 99.8638 85.6 98.9486 85.6C98.0335 85.6 97.2941 85.194 97.2941 84.6909C97.2941 84.1879 98.0335 83.7819 98.9486 83.7819C99.8638 83.7819 100.606 84.1879 100.606 84.6909Z" fill="#F9B0A1"/>
<path d="M102.964 82.3001C102.964 82.8031 102.221 83.2091 101.306 83.2091C100.391 83.2091 99.6486 82.8031 99.6486 82.3001C99.6486 81.797 100.391 81.391 101.306 81.391C102.221 81.391 102.964 81.797 102.964 82.3001Z" fill="#F9B0A1"/>
<path d="M65.748 75.3694C70.1326 70.9849 70.1326 63.8762 65.748 59.4917C61.3635 55.1071 54.2548 55.1071 49.8703 59.4917C45.4858 63.8762 45.4858 70.9849 49.8703 75.3694C54.2548 79.7539 61.3635 79.7539 65.748 75.3694Z" fill="#FFFEF9"/>
<path d="M57.8092 79.7637C55.3699 79.7637 52.9854 79.0404 50.9572 77.6852C48.929 76.3299 47.3482 74.4037 46.4147 72.1501C45.4812 69.8965 45.237 67.4167 45.7128 65.0242C46.1887 62.6318 47.3634 60.4342 49.0882 58.7094C50.8131 56.9845 53.0107 55.8099 55.4031 55.334C57.7955 54.8581 60.2753 55.1024 62.529 56.0358C64.7826 56.9693 66.7088 58.5501 68.064 60.5783C69.4192 62.6065 70.1425 64.9911 70.1425 67.4304C70.1393 70.7004 68.8389 73.8355 66.5266 76.1478C64.2144 78.4601 61.0792 79.7605 57.8092 79.7637ZM57.8092 57.3122C55.8081 57.3128 53.8522 57.9067 52.1887 59.0189C50.5251 60.131 49.2287 61.7115 48.4634 63.5604C47.698 65.4093 47.4981 67.4436 47.8888 69.4062C48.2796 71.3687 49.2435 73.1713 50.6587 74.5861C52.0738 76.0008 53.8767 76.9642 55.8394 77.3543C57.802 77.7445 59.8363 77.544 61.685 76.7781C63.5337 76.0121 65.1137 74.7153 66.2254 73.0514C67.3371 71.3875 67.9304 69.4314 67.9304 67.4304C67.9272 64.7473 66.8597 62.1751 64.9622 60.2782C63.0648 58.3813 60.4923 57.3146 57.8092 57.3122Z" fill="#262424"/>
<path d="M100.756 75.3709C105.14 70.9864 105.14 63.8777 100.756 59.4932C96.3711 55.1087 89.2624 55.1087 84.8779 59.4932C80.4934 63.8777 80.4934 70.9864 84.8779 75.371C89.2624 79.7555 96.3711 79.7555 100.756 75.3709Z" fill="#FFFEF9"/>
<path d="M92.8152 79.7637C90.3759 79.7637 87.9914 79.0404 85.9632 77.6852C83.935 76.3299 82.3542 74.4037 81.4207 72.1501C80.4872 69.8965 80.243 67.4167 80.7189 65.0242C81.1948 62.6318 82.3694 60.4342 84.0943 58.7094C85.8191 56.9845 88.0167 55.8099 90.4091 55.334C92.8015 54.8581 95.2814 55.1024 97.535 56.0358C99.7886 56.9693 101.715 58.5501 103.07 60.5783C104.425 62.6065 105.149 64.9911 105.149 67.4304C105.145 70.7001 103.844 73.8348 101.532 76.1469C99.2197 78.459 96.085 79.7597 92.8152 79.7637ZM92.8152 57.3122C90.814 57.3122 88.8578 57.9056 87.1939 59.0174C85.5299 60.1292 84.2331 61.7094 83.4673 63.5583C82.7014 65.4072 82.5011 67.4416 82.8915 69.4043C83.2819 71.3671 84.2456 73.1699 85.6606 74.585C87.0757 76 88.8785 76.9637 90.8413 77.3541C92.804 77.7445 94.8384 77.5442 96.6873 76.7783C98.5361 76.0125 100.116 74.7156 101.228 73.0517C102.34 71.3878 102.933 69.4315 102.933 67.4304C102.93 64.7478 101.863 62.1761 99.9663 60.2793C98.0695 58.3824 95.4978 57.3154 92.8152 57.3122Z" fill="#262424"/>
<path d="M81.5909 68.5395C81.4682 68.5383 81.3466 68.5178 81.2303 68.4788C77.1636 67.0849 73.2969 67.0819 69.4121 68.4788C69.2752 68.5278 69.13 68.5493 68.9848 68.5421C68.8396 68.535 68.6972 68.4993 68.5658 68.4371C68.4344 68.3749 68.3165 68.2874 68.2189 68.1797C68.1213 68.072 68.0459 67.946 67.9969 67.8092C67.948 67.6723 67.9265 67.5271 67.9337 67.3819C67.9408 67.2367 67.9765 67.0943 68.0387 66.9629C68.1009 66.8315 68.1884 66.7136 68.2961 66.616C68.4038 66.5184 68.5298 66.4429 68.6666 66.394C72.9848 64.8516 77.4545 64.8516 81.9515 66.394C82.1992 66.4794 82.4087 66.6498 82.5427 66.8749C82.6768 67.1 82.7269 67.3653 82.6841 67.6238C82.6412 67.8823 82.5082 68.1173 82.3087 68.2871C82.1092 68.4569 81.8559 68.5506 81.5939 68.5516L81.5909 68.5395Z" fill="#262424"/>
<path d="M58.3545 69.9636C57.909 69.962 57.4821 69.7843 57.1671 69.4693C56.852 69.1542 56.6743 68.7274 56.6727 68.2818V65.7C56.6735 65.2542 56.851 64.8269 57.1662 64.5117C57.4814 64.1964 57.9087 64.019 58.3545 64.0182C58.8006 64.019 59.2282 64.1963 59.5439 64.5115C59.8597 64.8266 60.0378 65.2539 60.0394 65.7V68.2818C60.0378 68.7279 59.8597 69.1552 59.5439 69.4704C59.2282 69.7855 58.8006 69.9628 58.3545 69.9636Z" fill="#262424"/>
<path d="M92.818 64.0182H92.815C91.8861 64.0182 91.1331 64.7712 91.1331 65.7V68.2849C91.1331 69.2137 91.8861 69.9667 92.815 69.9667H92.818C93.7468 69.9667 94.4998 69.2137 94.4998 68.2849V65.7C94.4998 64.7712 93.7468 64.0182 92.818 64.0182Z" fill="#262424"/>
<path d="M118.658 52.4546V63.6364C84.6031 61.1535 59.0071 48.6566 41.8698 26.1455C45.5496 22.0396 50.0529 18.7548 55.0866 16.505C60.1203 14.2553 65.5713 13.0909 71.0849 13.0879H79.2879C100.939 13.0879 118.658 30.803 118.658 52.4546Z" fill="#3C3A3A"/>
<path d="M30.7849 52.5364C33.0334 39.4727 35.5637 33.1424 41.8698 26.1455C45.5496 22.0396 50.053 18.7548 55.0866 16.505C60.1203 14.2553 65.5714 13.0909 71.085 13.0879H79.288C100.939 13.0879 30.7849 52.5364 30.7849 52.5364Z" fill="#3C3A3A"/>
<path d="M76.4545 16.9697C76.4545 16.9697 69.2484 9.39396 79.109 5.7182L76.4545 16.9697Z" fill="#3C3A3A"/>
<path d="M77.1484 15.7939C77.1484 15.7939 66.9393 18.0879 68.8514 7.74243L77.1484 15.7939Z" fill="#3C3A3A"/>
<path d="M61.0969 82.6364C61.1081 86.3701 62.5962 89.9477 65.2364 92.5879C67.8765 95.228 71.4541 96.7162 75.1878 96.7273C78.9212 96.7162 82.4985 95.2279 85.1381 92.5877C87.7778 89.9474 89.2653 86.3699 89.2757 82.6364H61.0969Z" fill="#FFFEF9"/>
<path d="M63.2456 136.964H55.1031V173.085H63.2456V136.964Z" fill="#F9B0A1"/>
<path d="M95.3241 136.964H87.1817V173.085H95.3241V136.964Z" fill="#F9B0A1"/>
</g>
<defs>
<clipPath id="clip0_1_698">
<rect width="150" height="150" fill="white"/>
</clipPath>
</defs>
</svg>
