<svg width="150" height="150" viewBox="0 0 150 150" fill="none" xmlns="http://www.w3.org/2000/svg">
<g clip-path="url(#clip0_1_288)">
<path d="M75 150C116.421 150 150 116.421 150 75C150 33.5786 116.421 0 75 0C33.5786 0 0 33.5786 0 75C0 116.421 33.5786 150 75 150Z" fill="#00BBC4"/>
<path d="M50.9939 27.3757H50.9909C43.7576 27.3757 37.8939 33.2394 37.8939 40.4727V91.2302C37.8939 98.4635 43.7576 104.327 50.9909 104.327H50.9939C58.2271 104.327 64.0909 98.4635 64.0909 91.2302V40.4727C64.0909 33.2394 58.2271 27.3757 50.9939 27.3757Z" fill="#870000"/>
<path d="M112.039 32.9121C112.039 17.4849 99.5331 4.97875 84.106 4.97875C68.6788 4.97875 56.1726 17.4849 56.1726 32.9121V84.3788C56.1726 99.8059 68.6788 112.312 84.106 112.312C99.5331 112.312 112.039 99.8059 112.039 84.3788V32.9121Z" fill="#870000"/>
<path d="M35.9757 102.424C41.117 102.424 45.2848 98.2564 45.2848 93.1151C45.2848 87.9738 41.117 83.806 35.9757 83.806C30.8345 83.806 26.6667 87.9738 26.6667 93.1151C26.6667 98.2564 30.8345 102.424 35.9757 102.424Z" fill="#F9A08A"/>
<path d="M113.794 102.424C118.935 102.424 123.103 98.2564 123.103 93.1151C123.103 87.9738 118.935 83.806 113.794 83.806C108.653 83.806 104.485 87.9738 104.485 93.1151C104.485 98.2564 108.653 102.424 113.794 102.424Z" fill="#F9A08A"/>
<path d="M82.9303 116.018H67.5637V144.261H82.9303V116.018Z" fill="#F9A08A"/>
<path d="M69.0333 131.779H81.3121C83.5118 131.779 85.6214 132.653 87.1768 134.208C88.7323 135.763 89.6061 137.873 89.6061 140.073V158.891H60.7394V140.073C60.7394 137.873 61.6132 135.763 63.1686 134.208C64.7241 132.653 66.8337 131.779 69.0333 131.779Z" fill="#F0F0F0"/>
<path d="M74.8849 122.642C95.4148 122.642 112.058 103.947 112.058 80.8849C112.058 57.8228 95.4148 39.1273 74.8849 39.1273C54.355 39.1273 37.7122 57.8228 37.7122 80.8849C37.7122 103.947 54.355 122.642 74.8849 122.642Z" fill="#F9A08A"/>
<path d="M74.5272 98.7879C71.071 98.7887 67.6759 97.8772 64.6848 96.1455C64.1076 95.8177 63.6012 95.3784 63.1951 94.8532C62.7891 94.328 62.4914 93.7274 62.3193 93.0863C62.1473 92.4451 62.1043 91.7761 62.1929 91.1182C62.2816 90.4603 62.5 89.8266 62.8356 89.2538C63.1711 88.681 63.6171 88.1805 64.1477 87.7815C64.6783 87.3825 65.2828 87.0929 65.9262 86.9295C66.5696 86.766 67.2391 86.732 67.8958 86.8295C68.5524 86.9269 69.1832 87.1538 69.7515 87.497C72.9605 89.3758 76.6242 88.9122 78.0363 87.8546C78.563 87.4598 79.1623 87.1727 79.7999 87.0095C80.4376 86.8464 81.1011 86.8104 81.7527 86.9037C82.4042 86.997 83.031 87.2177 83.5973 87.5532C84.1636 87.8887 84.6582 88.3325 85.053 88.8591C85.4477 89.3858 85.7349 89.9851 85.898 90.6228C86.0612 91.2604 86.0972 91.924 86.0039 92.5755C85.9106 93.2271 85.6899 93.8539 85.3544 94.4202C85.0189 94.9864 84.5751 95.4811 84.0484 95.8758C81.4636 97.8092 78.0605 98.7879 74.5272 98.7879Z" fill="#FFFEF9"/>
<path d="M68.0546 142.767H60.7424V183.597H68.0546V142.767Z" fill="#F9A08A"/>
<path d="M82.297 183.594H89.6091V142.764H82.297V183.594Z" fill="#F9A08A"/>
<path d="M63.2302 60.909L58.0332 62.8211C57.4272 63.0426 56.7581 63.0152 56.1721 62.7449C55.5862 62.4746 55.131 61.9835 54.906 61.3787C54.6844 60.7703 54.7134 60.0988 54.9867 59.5118C55.2601 58.9248 55.7553 58.4704 56.3636 58.2484L61.5575 56.3333C62.164 56.112 62.8334 56.1398 63.4194 56.4107C64.0054 56.6815 64.4604 57.1734 64.6848 57.7787C64.9065 58.3867 64.8779 59.0579 64.6052 59.6448C64.3324 60.2317 63.8379 60.6864 63.2302 60.909Z" fill="#7E341F"/>
<path d="M87.2091 60.909L92.403 62.8211C93.0095 63.0427 93.679 63.0153 94.2655 62.7451C94.8519 62.4749 95.3077 61.9837 95.5333 61.3787C95.7538 60.7722 95.7255 60.1031 95.4548 59.5173C95.184 58.9315 94.6927 58.4765 94.0879 58.2514L88.8939 56.3363C88.2867 56.1129 87.6156 56.1392 87.0278 56.4096C86.4399 56.68 85.9832 57.1723 85.7576 57.7787C85.5365 58.3864 85.5651 59.0569 85.8371 59.6435C86.1091 60.2301 86.6024 60.6852 87.2091 60.909Z" fill="#7E341F"/>
<path d="M69.1666 78.9424C69.0212 78.9428 68.8772 78.9144 68.7429 78.859C68.6085 78.8036 68.4864 78.7221 68.3836 78.6193C68.2808 78.5165 68.1994 78.3944 68.1439 78.2601C68.0885 78.1257 68.0601 77.9817 68.0605 77.8363C68.0605 75.643 67.1893 73.5396 65.6384 71.9887C64.0875 70.4379 61.9841 69.5666 59.7908 69.5666C57.5976 69.5666 55.4942 70.4379 53.9433 71.9887C52.3924 73.5396 51.5211 75.643 51.5211 77.8363C51.5063 78.12 51.3831 78.3872 51.177 78.5828C50.971 78.7784 50.6977 78.8875 50.4136 78.8875C50.1294 78.8875 49.8562 78.7784 49.6501 78.5828C49.444 78.3872 49.3208 78.12 49.306 77.8363C49.2823 76.4446 49.536 75.0621 50.0522 73.7695C50.5684 72.4769 51.3368 71.3 52.3127 70.3074C53.2885 69.3149 54.4521 68.5266 55.7358 67.9885C57.0195 67.4503 58.3974 67.1732 59.7893 67.1732C61.1812 67.1732 62.5592 67.4503 63.8428 67.9885C65.1265 68.5266 66.2902 69.3149 67.266 70.3074C68.2418 71.3 69.0102 72.4769 69.5264 73.7695C70.0427 75.0621 70.2963 76.4446 70.2727 77.8363C70.2731 77.9817 70.2447 78.1257 70.1893 78.2601C70.1338 78.3944 70.0524 78.5165 69.9496 78.6193C69.8468 78.7221 69.7247 78.8036 69.5903 78.859C69.456 78.9144 69.312 78.9428 69.1666 78.9424Z" fill="#7E341F"/>
<path d="M98.1817 78.9424C98.0364 78.9428 97.8924 78.9144 97.758 78.859C97.6236 78.8036 97.5015 78.7221 97.3987 78.6193C97.2959 78.5165 97.2145 78.3944 97.1591 78.2601C97.1036 78.1257 97.0753 77.9817 97.0757 77.8363C97.0757 76.7503 96.8618 75.675 96.4462 74.6716C96.0306 73.6683 95.4214 72.7567 94.6535 71.9887C93.8856 71.2208 92.974 70.6117 91.9706 70.1961C90.9673 69.7805 89.892 69.5666 88.806 69.5666C87.72 69.5666 86.6446 69.7805 85.6413 70.1961C84.638 70.6117 83.7263 71.2208 82.9584 71.9887C82.1905 72.7567 81.5814 73.6683 81.1658 74.6716C80.7502 75.675 80.5363 76.7503 80.5363 77.8363C80.5214 78.12 80.3983 78.3872 80.1922 78.5828C79.9861 78.7784 79.7128 78.8875 79.4287 78.8875C79.1446 78.8875 78.8713 78.7784 78.6652 78.5828C78.4591 78.3872 78.336 78.12 78.3211 77.8363C78.2975 76.4446 78.5511 75.0621 79.0674 73.7695C79.5836 72.4769 80.352 71.3 81.3278 70.3074C82.3036 69.3149 83.4673 68.5266 84.7509 67.9885C86.0346 67.4503 87.4126 67.1732 88.8045 67.1732C90.1963 67.1732 91.5743 67.4503 92.858 67.9885C94.1416 68.5266 95.3053 69.3149 96.2811 70.3074C97.2569 71.3 98.0254 72.4769 98.5416 73.7695C99.0578 75.0621 99.3115 76.4446 99.2878 77.8363C99.2882 77.9817 99.2599 78.1257 99.2044 78.2601C99.149 78.3944 99.0675 78.5165 98.9647 78.6193C98.8619 78.7221 98.7398 78.8036 98.6055 78.859C98.4711 78.9144 98.3271 78.9428 98.1817 78.9424Z" fill="#7E341F"/>
</g>
<defs>
<clipPath id="clip0_1_288">
<rect width="150" height="150" fill="white"/>
</clipPath>
</defs>
</svg>
