<svg width="150" height="150" viewBox="0 0 150 150" fill="none" xmlns="http://www.w3.org/2000/svg">
<g clip-path="url(#clip0_1_256)">
<path d="M75 151.448C116.421 151.448 150 117.87 150 76.4484C150 35.0271 116.421 1.44846 75 1.44846C33.5786 1.44846 0 35.0271 0 76.4484C0 117.87 33.5786 151.448 75 151.448Z" fill="#396FED"/>
<path d="M83.3061 126.867L67.9909 126.845C66.0723 127.184 64.3342 128.187 63.0818 129.68C61.8294 131.172 61.1427 133.058 61.1424 135.006V153.824H90V135.006C90.0003 133.084 89.3329 131.221 88.1119 129.736C86.8909 128.252 85.1922 127.237 83.3061 126.867Z" fill="#262424"/>
<path d="M67.8849 140.567H61.1424V168.233H67.8849V140.567Z" fill="#F9B0A1"/>
<path d="M83.2668 168.23H90.0092V140.564H83.2668V168.23Z" fill="#F9B0A1"/>
<path d="M105.676 100.435C121.974 84.1375 121.974 57.7134 105.676 41.4155C89.3778 25.1176 62.9538 25.1176 46.6559 41.4155C30.358 57.7134 30.358 84.1375 46.6559 100.435C62.9538 116.733 89.3778 116.733 105.676 100.435Z" fill="#F16625"/>
<path d="M102.774 107.995C117.469 93.3001 117.469 69.4759 102.774 54.7815C88.0799 40.0872 64.2556 40.0872 49.5613 54.7815C34.8669 69.4759 34.8669 93.3001 49.5613 107.995C64.2556 122.689 88.0799 122.689 102.774 107.995Z" fill="#F9B0A1"/>
<path d="M67.9666 126.879V118.633C67.9662 117.624 68.1647 116.625 68.5505 115.693C68.9364 114.76 69.5022 113.913 70.2155 113.2C70.9289 112.486 71.7759 111.92 72.7081 111.534C73.6403 111.147 74.6394 110.948 75.6485 110.948C76.6578 110.948 77.6573 111.147 78.5898 111.533C79.5224 111.919 80.3697 112.485 81.0834 113.198C81.7971 113.912 82.3631 114.759 82.7492 115.692C83.1352 116.625 83.3337 117.624 83.3333 118.633V126.879L75.4363 131.564L67.9666 126.879Z" fill="#F9B0A1"/>
<path d="M58.276 91.2485C60.6508 91.2485 62.576 89.3233 62.576 86.9485C62.576 84.5736 60.6508 82.6485 58.276 82.6485C55.9012 82.6485 53.976 84.5736 53.976 86.9485C53.976 89.3233 55.9012 91.2485 58.276 91.2485Z" fill="#AC5B0F"/>
<path d="M92.2972 91.2485C94.6721 91.2485 96.5972 89.3233 96.5972 86.9485C96.5972 84.5736 94.6721 82.6485 92.2972 82.6485C89.9224 82.6485 87.9973 84.5736 87.9973 86.9485C87.9973 89.3233 89.9224 91.2485 92.2972 91.2485Z" fill="#AC5B0F"/>
<path d="M67.5758 92.403C68.7879 100.909 71.7212 106.924 75.1515 106.924C78.5818 106.924 81.5333 100.909 82.7273 92.403H67.5758Z" fill="#FFFEF9"/>
<path d="M79.0728 36.0221C88.9565 34.4177 95.6682 25.1048 94.0639 15.2211C92.4595 5.33738 83.1466 -1.37438 73.2629 0.229977C63.3792 1.83433 56.6674 11.1473 58.2717 21.031C59.8761 30.9147 69.189 37.6265 79.0728 36.0221Z" fill="#F16625"/>
<path d="M78.5606 76.603C97.263 76.603 112.424 68.2673 112.424 57.9848C112.424 47.7023 97.263 39.3666 78.5606 39.3666C59.8582 39.3666 44.697 47.7023 44.697 57.9848C44.697 68.2673 59.8582 76.603 78.5606 76.603Z" fill="#F16625"/>
<path d="M114.476 52.6575H81.297C74.6846 52.6575 69.3242 58.0179 69.3242 64.6303C69.3242 71.2426 74.6846 76.603 81.297 76.603H114.476C121.088 76.603 126.449 71.2426 126.449 64.6303C126.449 58.0179 121.088 52.6575 114.476 52.6575Z" fill="#F16625"/>
<path d="M57.6244 100.027C61.6594 100.027 64.9305 98.6041 64.9305 96.8485C64.9305 95.0929 61.6594 93.6697 57.6244 93.6697C53.5894 93.6697 50.3183 95.0929 50.3183 96.8485C50.3183 98.6041 53.5894 100.027 57.6244 100.027Z" fill="#F9A08A"/>
<path d="M92.8275 100.027C96.8625 100.027 100.134 98.6041 100.134 96.8485C100.134 95.0929 96.8625 93.6697 92.8275 93.6697C88.7925 93.6697 85.5214 95.0929 85.5214 96.8485C85.5214 98.6041 88.7925 100.027 92.8275 100.027Z" fill="#F9A08A"/>
</g>
<defs>
<clipPath id="clip0_1_256">
<rect width="150" height="150" fill="white"/>
</clipPath>
</defs>
</svg>
