<svg width="150" height="150" viewBox="0 0 150 150" fill="none" xmlns="http://www.w3.org/2000/svg">
<g clip-path="url(#clip0_1_511)">
<path d="M75.3614 150.723C116.982 150.723 150.723 116.982 150.723 75.3614C150.723 33.7405 116.982 0 75.3614 0C33.7405 0 0 33.7405 0 75.3614C0 116.982 33.7405 150.723 75.3614 150.723Z" fill="#396FED"/>
<path d="M109.065 141.895C127.788 123.172 127.788 92.8171 109.065 74.0945C90.3428 55.372 59.9875 55.372 41.265 74.0945C22.5425 92.8171 22.5425 123.172 41.265 141.895C59.9875 160.617 90.3428 160.617 109.065 141.895Z" fill="#FF9F00"/>
<path d="M74.7616 115.576C50.6764 115.576 31.0824 95.9816 31.0824 71.8963V51.7269C31.0824 27.6417 50.6764 8.04769 74.7616 8.04769C98.8468 8.04769 118.447 27.6417 118.447 51.7269V71.8963C118.447 95.9816 98.8468 115.576 74.7616 115.576Z" fill="#FF9F00"/>
<path d="M83.7167 121.674C83.5717 123.845 82.6062 125.88 81.0163 127.365C79.4263 128.85 77.3309 129.675 75.1552 129.672C72.9795 129.668 70.8865 128.838 69.3008 127.348C67.7151 125.858 66.7554 123.821 66.6165 121.65C64.4752 122.028 62.5352 123.148 61.1371 124.813C59.739 126.478 58.972 128.583 58.9708 130.757V151.767H91.2011V130.757C91.2 128.611 90.4529 126.531 89.0876 124.874C87.7224 123.217 85.8238 122.086 83.7167 121.674Z" fill="#00BBC4"/>
<path d="M108.094 190.255V180.258C108.094 162.294 93.3933 147.593 75.4283 147.593C57.4634 147.593 42.7626 162.294 42.7626 180.258V190.261L108.094 190.255Z" fill="#00BBC4"/>
<path d="M64.7562 177.795L56.9947 177.813L56.5806 128.982C56.579 128.473 56.6778 127.968 56.8715 127.496C57.0652 127.025 57.3498 126.596 57.7092 126.235C58.0686 125.873 58.4957 125.586 58.9661 125.39C59.4365 125.194 59.941 125.092 60.4507 125.091C60.9603 125.089 61.4653 125.188 61.9368 125.382C62.4083 125.575 62.8369 125.86 63.1983 126.22C63.5597 126.579 63.8467 127.006 64.043 127.476C64.2392 127.947 64.3409 128.451 64.3421 128.961L64.7562 177.795Z" fill="#FFDACD"/>
<path d="M85.5371 177.795L93.2986 177.813L93.7127 128.982C93.7139 128.472 93.6147 127.967 93.4207 127.496C93.2267 127.024 92.9417 126.596 92.5821 126.234C92.2224 125.873 91.7951 125.586 91.3246 125.39C90.854 125.194 90.3494 125.092 89.8396 125.091C89.3302 125.09 88.8255 125.189 88.3544 125.383C87.8833 125.576 87.455 125.861 87.0939 126.221C86.7328 126.58 86.4461 127.007 86.25 127.477C86.054 127.947 85.9524 128.452 85.9512 128.961L85.5371 177.795Z" fill="#FFDACD"/>
<path d="M70.0014 121.453C70.4487 119.568 69.2833 117.678 67.3984 117.23C65.5135 116.783 63.6228 117.949 63.1755 119.834C62.7282 121.718 63.8936 123.609 65.7785 124.056C67.6634 124.504 69.5541 123.338 70.0014 121.453Z" fill="#FFFEF9"/>
<path d="M71.9594 128.063C72.4025 126.177 71.2328 124.289 69.3469 123.846C67.4609 123.403 65.5729 124.573 65.1299 126.459C64.6869 128.345 65.8566 130.233 67.7425 130.676C69.6284 131.119 71.5164 129.949 71.9594 128.063Z" fill="#FFFEF9"/>
<path d="M77.4643 132.28C78.9277 131.01 79.0849 128.795 77.8155 127.332C76.5461 125.868 74.3307 125.711 72.8673 126.98C71.4039 128.25 71.2466 130.465 72.516 131.929C73.7855 133.392 76.0009 133.549 77.4643 132.28Z" fill="#FFFEF9"/>
<path d="M84.374 129.73C85.7438 128.36 85.7438 126.139 84.3739 124.77C83.0041 123.4 80.7831 123.4 79.4133 124.77C78.0434 126.139 78.0434 128.36 79.4133 129.73C80.7831 131.1 83.0041 131.1 84.374 129.73Z" fill="#FFFEF9"/>
<path d="M84.823 124.121C86.7458 123.885 88.1132 122.134 87.8771 120.212C87.641 118.289 85.8908 116.921 83.968 117.157C82.0452 117.394 80.6778 119.144 80.9139 121.067C81.15 122.989 82.9001 124.357 84.823 124.121Z" fill="#FFFEF9"/>
<path d="M75.1663 129.673C72.8911 129.673 70.7094 128.768 69.1009 127.159C67.4924 125.55 66.5888 123.368 66.5888 121.093V112.479C66.5888 110.204 67.4925 108.022 69.1011 106.414C70.7097 104.805 72.8914 103.901 75.1663 103.901C77.4394 103.905 79.6183 104.81 81.2247 106.418C82.8312 108.026 83.7339 110.206 83.7347 112.479V121.093C83.7347 123.367 82.8323 125.547 81.2258 127.156C79.6193 128.765 77.4399 129.67 75.1663 129.673Z" fill="#FFDACD"/>
<path d="M74.7647 11.3423H74.7617C52.4596 11.3423 34.3801 29.4217 34.3801 51.7238V71.8963C34.3801 94.1985 52.4596 112.278 74.7617 112.278H74.7647C97.0669 112.278 115.146 94.1985 115.146 71.8963V51.7238C115.146 29.4217 97.0669 11.3423 74.7647 11.3423Z" fill="#FFDACD"/>
<path d="M118.447 60.6819V52.5429C118.447 27.3707 97.5464 6.76578 72.4076 8.10859C49.4155 9.32655 31.0882 28.4333 31.0882 51.7269V61.2392C31.0882 61.2787 39.7906 68.6657 56.4706 65.7822C73.1506 62.8986 78.132 49.8482 88.9262 48.0913C95.625 47.0042 89.3617 64.8382 94.1361 67.938C99.8026 71.5918 116.059 60.7246 118.255 60.7033C118.331 60.7824 118.447 60.7977 118.447 60.6819Z" fill="#FF9F00"/>
<path d="M33.6549 85.6075C37.6724 85.6075 40.9292 82.3507 40.9292 78.3333C40.9292 74.3158 37.6724 71.059 33.6549 71.059C29.6374 71.059 26.3806 74.3158 26.3806 78.3333C26.3806 82.3507 29.6374 85.6075 33.6549 85.6075Z" fill="#FFDACD"/>
<path d="M115.867 85.6075C119.885 85.6075 123.142 82.3507 123.142 78.3333C123.142 74.3158 119.885 71.059 115.867 71.059C111.85 71.059 108.593 74.3158 108.593 78.3333C108.593 82.3507 111.85 85.6075 115.867 85.6075Z" fill="#FFDACD"/>
<path d="M49.3699 86.3231C49.3699 86.8255 48.6239 87.2366 47.7044 87.2366C46.7848 87.2366 46.0419 86.8255 46.0419 86.3231C46.0419 85.8207 46.7848 85.4097 47.7044 85.4097C48.6239 85.4097 49.3699 85.8177 49.3699 86.3231Z" fill="#F9B0A1"/>
<path d="M54.5798 86.3231C54.5798 86.8255 53.8369 87.2366 52.9173 87.2366C51.9978 87.2366 51.2518 86.8255 51.2518 86.3231C51.2518 85.8207 51.9978 85.4097 52.9173 85.4097C53.8369 85.4097 54.5798 85.8177 54.5798 86.3231Z" fill="#F9B0A1"/>
<path d="M52.1713 88.7255C52.1713 89.231 51.4253 89.639 50.5058 89.639C49.5862 89.639 48.8402 89.231 48.8402 88.7255C48.8402 88.2201 49.5862 87.8121 50.5058 87.8121C51.4253 87.8121 52.1713 88.2201 52.1713 88.7255Z" fill="#F9B0A1"/>
<path d="M57.433 88.7255C57.433 89.231 56.6901 89.639 55.7705 89.639C54.851 89.639 54.1049 89.231 54.1049 88.7255C54.1049 88.2201 54.851 87.8121 55.7705 87.8121C56.6901 87.8121 57.433 88.2201 57.433 88.7255Z" fill="#F9B0A1"/>
<path d="M59.7927 86.3231C59.7927 86.8255 59.0466 87.2366 58.1271 87.2366C57.2075 87.2366 56.4646 86.8255 56.4646 86.3231C56.4646 85.8207 57.2075 85.4097 58.1271 85.4097C59.0466 85.4097 59.7927 85.8177 59.7927 86.3231Z" fill="#F9B0A1"/>
<path d="M92.2605 86.3231C92.2605 86.8255 91.5176 87.2366 90.598 87.2366C89.6784 87.2366 88.9324 86.8255 88.9324 86.3231C88.9324 85.8207 89.6784 85.4097 90.598 85.4097C91.5176 85.4097 92.2605 85.8177 92.2605 86.3231Z" fill="#F9B0A1"/>
<path d="M97.4613 86.3231C97.4613 86.8255 96.7153 87.2366 95.7957 87.2366C94.8762 87.2366 94.1302 86.8255 94.1302 86.3231C94.1302 85.8207 94.8762 85.4097 95.7957 85.4097C96.7153 85.4097 97.4613 85.8177 97.4613 86.3231Z" fill="#F9B0A1"/>
<path d="M95.0496 88.7255C95.0496 89.231 94.3036 89.639 93.3841 89.639C92.4645 89.639 91.7216 89.231 91.7216 88.7255C91.7216 88.2201 92.4645 87.8121 93.3841 87.8121C94.3036 87.8121 95.0496 88.2201 95.0496 88.7255Z" fill="#F9B0A1"/>
<path d="M100.314 88.7255C100.314 89.231 99.568 89.639 98.6485 89.639C97.7289 89.639 96.9829 89.231 96.9829 88.7255C96.9829 88.2201 97.7289 87.8121 98.6485 87.8121C99.568 87.8121 100.314 88.2201 100.314 88.7255Z" fill="#F9B0A1"/>
<path d="M102.671 86.3231C102.671 86.8255 101.925 87.2366 101.009 87.2366C100.092 87.2366 99.343 86.8255 99.343 86.3231C99.343 85.8207 100.089 85.4097 101.009 85.4097C101.928 85.4097 102.671 85.8177 102.671 86.3231Z" fill="#F9B0A1"/>
<path d="M59.162 80.5013C58.4908 81.1723 57.6358 81.6292 56.7049 81.8143C55.7741 81.9994 54.8093 81.9043 53.9324 81.5411C53.0556 81.1779 52.3062 80.5628 51.779 79.7737C51.2517 78.9845 50.9703 78.0568 50.9703 77.1077C50.9703 76.1586 51.2517 75.2309 51.779 74.4417C52.3062 73.6526 53.0556 73.0375 53.9324 72.6743C54.8093 72.3111 55.7741 72.216 56.7049 72.4011C57.6358 72.5862 58.4908 73.0431 59.162 73.7142C60.0614 74.6145 60.5666 75.8351 60.5666 77.1077C60.5666 78.3803 60.0614 79.6009 59.162 80.5013Z" fill="#AC5B0F"/>
<path d="M97.1474 80.5013C96.4763 81.1723 95.6212 81.6292 94.6904 81.8143C93.7595 81.9994 92.7947 81.9043 91.9179 81.5411C91.0411 81.1779 90.2917 80.5628 89.7644 79.7737C89.2371 78.9845 88.9557 78.0568 88.9557 77.1077C88.9557 76.1586 89.2371 75.2309 89.7644 74.4417C90.2917 73.6526 91.0411 73.0375 91.9179 72.6743C92.7947 72.3111 93.7595 72.216 94.6904 72.4011C95.6212 72.5862 96.4763 73.0431 97.1474 73.7142C98.0468 74.6145 98.552 75.8351 98.552 77.1077C98.552 78.3803 98.0468 79.6009 97.1474 80.5013Z" fill="#AC5B0F"/>
<path d="M66.1506 84.9925C66.8263 86.6871 67.9946 88.14 69.5047 89.1636C71.0148 90.1872 72.7972 90.7343 74.6215 90.7343C76.4458 90.7343 78.2282 90.1872 79.7383 89.1636C81.2484 88.14 82.4168 86.6871 83.0924 84.9925H66.1506Z" fill="#EF4151"/>
</g>
<defs>
<clipPath id="clip0_1_511">
<rect width="150" height="150" fill="white"/>
</clipPath>
</defs>
</svg>
