<svg width="150" height="150" viewBox="0 0 150 150" fill="none" xmlns="http://www.w3.org/2000/svg">
<g clip-path="url(#clip0_1_225)">
<path d="M75 150C116.421 150 150 116.421 150 75C150 33.5786 116.421 0 75 0C33.5786 0 0 33.5786 0 75C0 116.421 33.5786 150 75 150Z" fill="#FF7E25"/>
<path d="M104.33 88.8198C118.23 74.9195 115.609 49.7617 98.4756 32.6284C81.3423 15.495 56.1845 12.8741 42.2842 26.7744C28.3839 40.6747 31.0048 65.8324 48.1382 82.9658C65.2716 100.099 90.4293 102.72 104.33 88.8198Z" fill="#0070CF"/>
<path d="M123.667 17.3849L117.691 11.4091C112.668 6.41616 105.873 3.61365 98.7908 3.61365C91.7085 3.61365 84.9138 6.41616 79.8908 11.4091L55.106 36.1909L102.864 75.9879L123.667 55.1879C134.064 44.7909 134.064 27.7788 123.667 17.3849Z" fill="#00BBC4"/>
<path d="M113.497 70.2818V67.4212C113.497 47.5273 97.2212 31.2515 77.3273 31.2515H73.2151C53.3242 31.2515 37.0455 47.5273 37.0455 67.4212V70.2818H113.497Z" fill="#154A87"/>
<path d="M44.9698 72.3576C44.9698 73.6461 44.5876 74.9058 43.8718 75.9772C43.1559 77.0486 42.1383 77.8837 40.9478 78.3768C39.7574 78.8699 38.4474 78.9989 37.1836 78.7475C35.9197 78.4961 34.7589 77.8756 33.8477 76.9645C32.9365 76.0533 32.316 74.8924 32.0646 73.6286C31.8133 72.3648 31.9423 71.0548 32.4354 69.8643C32.9285 68.6738 33.7636 67.6563 34.835 66.9404C35.9064 66.2245 37.166 65.8424 38.4546 65.8424C40.1825 65.8424 41.8397 66.5288 43.0615 67.7507C44.2833 68.9725 44.9698 70.6296 44.9698 72.3576Z" fill="#F9B0A1"/>
<path d="M118.606 72.3576C118.607 73.647 118.225 74.9076 117.509 75.98C116.793 77.0524 115.775 77.8883 114.584 78.382C113.393 78.8757 112.082 79.0051 110.817 78.7537C109.552 78.5023 108.391 77.8814 107.479 76.9696C106.567 76.0579 105.946 74.8962 105.695 73.6315C105.443 72.3668 105.573 71.056 106.067 69.8648C106.56 68.6736 107.396 67.6557 108.469 66.9397C109.541 66.2237 110.802 65.8418 112.091 65.8424C113.819 65.8432 115.475 66.5299 116.697 67.7515C117.919 68.9732 118.605 70.6299 118.606 72.3576Z" fill="#F9B0A1"/>
<path d="M111.442 69.9879C111.442 50.0119 95.2487 33.8182 75.2727 33.8182C55.2967 33.8182 39.103 50.0119 39.103 69.9879V88.0546C39.103 108.031 55.2967 124.224 75.2727 124.224C95.2487 124.224 111.442 108.031 111.442 88.0546V69.9879Z" fill="#F9B0A1"/>
<path d="M75.6365 139.3C74.6272 139.3 73.6277 139.102 72.6952 138.716C71.7627 138.33 70.9153 137.764 70.2016 137.05C69.488 136.336 68.9219 135.489 68.5359 134.557C68.1498 133.624 67.9513 132.624 67.9517 131.615V116.721H83.3335V131.615C83.3339 132.625 83.135 133.626 82.7482 134.559C82.3614 135.493 81.7942 136.341 81.0793 137.054C80.3643 137.768 79.5155 138.334 78.5816 138.719C77.6476 139.105 76.6469 139.302 75.6365 139.3Z" fill="#F9B0A1"/>
<path d="M47.4635 178.161C46.4846 178.161 45.5458 177.772 44.8536 177.08C44.1615 176.387 43.7726 175.449 43.7726 174.47V157.973C43.7798 151.591 46.318 145.473 50.8304 140.961C55.3428 136.448 61.4608 133.91 67.8423 133.903C68.8212 133.903 69.76 134.292 70.4522 134.984C71.1443 135.676 71.5332 136.615 71.5332 137.594C71.5332 138.573 71.1443 139.512 70.4522 140.204C69.76 140.896 68.8212 141.285 67.8423 141.285C63.4179 141.29 59.176 143.049 56.0475 146.178C52.9189 149.306 51.1592 153.548 51.1544 157.973V174.47C51.1544 175.449 50.7655 176.387 50.0734 177.08C49.3812 177.772 48.4424 178.161 47.4635 178.161Z" fill="#F9B0A1"/>
<path d="M51.1544 157.973H43.7726C43.7798 151.591 46.318 145.473 50.8304 140.961C55.3428 136.448 61.4608 133.91 67.8423 133.903V141.285C63.4179 141.29 59.176 143.049 56.0475 146.178C52.9189 149.306 51.1592 153.548 51.1544 157.973Z" fill="#EBEBEB"/>
<path d="M104.115 178.161C103.136 178.161 102.198 177.772 101.505 177.08C100.813 176.387 100.424 175.449 100.424 174.47V157.973C100.419 153.549 98.6587 149.307 95.5303 146.179C92.402 143.05 88.1606 141.29 83.7364 141.285C82.7575 141.285 81.8187 140.896 81.1266 140.204C80.4344 139.512 80.0455 138.573 80.0455 137.594C80.0455 136.615 80.4344 135.676 81.1266 134.984C81.8187 134.292 82.7575 133.903 83.7364 133.903C90.1179 133.91 96.2359 136.448 100.748 140.961C105.261 145.473 107.799 151.591 107.806 157.973V174.47C107.806 175.449 107.417 176.387 106.725 177.08C106.033 177.772 105.094 178.161 104.115 178.161Z" fill="#F9B0A1"/>
<path d="M107.806 157.973H100.424C100.419 153.549 98.6586 149.307 95.5302 146.179C92.4018 143.05 88.1605 141.29 83.7363 141.285V133.903C90.1178 133.91 96.2358 136.448 100.748 140.961C105.261 145.473 107.799 151.591 107.806 157.973Z" fill="#EBEBEB"/>
<path d="M85.885 132.961V160.588H65.3123V132.961C65.3139 131.818 65.769 130.723 66.5776 129.916C67.3862 129.11 68.4821 128.657 69.6244 128.658H81.5729C82.7152 128.657 83.8111 129.11 84.6197 129.916C85.4283 130.723 85.8834 131.818 85.885 132.961Z" fill="#EBEBEB"/>
<path d="M55.212 77.0485C55.212 87.3727 64.8089 95.7394 76.6453 95.7394C88.4817 95.7394 98.0786 87.3727 98.0786 77.0485H55.212Z" fill="white"/>
<path d="M69.2485 70.1121C68.5251 70.1121 67.8315 69.8248 67.32 69.3133C66.8085 68.8019 66.5212 68.1082 66.5212 67.3849V65.1758C66.5212 64.4525 66.8085 63.7588 67.32 63.2473C67.8315 62.7359 68.5251 62.4485 69.2485 62.4485C69.9718 62.4485 70.6655 62.7359 71.1769 63.2473C71.6884 63.7588 71.9757 64.4525 71.9757 65.1758V67.3849C71.9757 68.1082 71.6884 68.8019 71.1769 69.3133C70.6655 69.8248 69.9718 70.1121 69.2485 70.1121Z" fill="#AC5B0F"/>
<path d="M84.0486 70.1121C83.3253 70.1121 82.6316 69.8248 82.1201 69.3133C81.6086 68.8019 81.3213 68.1082 81.3213 67.3849V65.1758C81.3213 64.4525 81.6086 63.7588 82.1201 63.2473C82.6316 62.7359 83.3253 62.4485 84.0486 62.4485C84.7719 62.4485 85.4656 62.7359 85.9771 63.2473C86.4885 63.7588 86.7758 64.4525 86.7758 65.1758V67.3849C86.7758 68.1082 86.4885 68.8019 85.9771 69.3133C85.4656 69.8248 84.7719 70.1121 84.0486 70.1121Z" fill="#AC5B0F"/>
</g>
<defs>
<clipPath id="clip0_1_225">
<rect width="150" height="150" fill="white"/>
</clipPath>
</defs>
</svg>
