<svg width="150" height="150" viewBox="0 0 150 150" fill="none" xmlns="http://www.w3.org/2000/svg">
<g clip-path="url(#clip0_1_116)">
<path d="M75.3614 150.723C116.982 150.723 150.723 116.982 150.723 75.3614C150.723 33.7405 116.982 0 75.3614 0C33.7405 0 0 33.7405 0 75.3614C0 116.982 33.7405 150.723 75.3614 150.723Z" fill="#7E341F"/>
<path d="M84.9163 115.618H67.7583V147.151H84.9163V115.618Z" fill="#FFDACD"/>
<path d="M66.4186 133.218H86.2531C87.0669 133.218 87.8726 133.378 88.6244 133.689C89.3762 134.001 90.0593 134.457 90.6347 135.033C91.21 135.608 91.6665 136.291 91.9779 137.043C92.2893 137.795 92.4495 138.6 92.4495 139.414V163.487H60.2222V139.414C60.2222 137.771 60.8751 136.195 62.0371 135.033C63.1992 133.871 64.7752 133.218 66.4186 133.218Z" fill="#262424"/>
<path d="M84.9194 129.938H67.7705C67.3148 129.938 66.9454 130.308 66.9454 130.764V134.07C66.9454 134.526 67.3148 134.895 67.7705 134.895H84.9194C85.3752 134.895 85.7446 134.526 85.7446 134.07V130.764C85.7446 130.308 85.3752 129.938 84.9194 129.938Z" fill="#262424"/>
<path d="M122.372 92.2607C123.933 87.1175 124.725 81.7717 124.722 76.3967C124.722 47.9634 103.015 24.8312 76.3359 24.8312C49.6564 24.8312 27.9493 47.9725 27.9493 76.3967C27.9456 81.7719 28.7388 87.118 30.303 92.2607H122.372Z" fill="#F16625"/>
<path d="M43.1546 91.7185C44.0742 86.0531 40.2271 80.715 34.5617 79.7953C28.8964 78.8757 23.5582 82.7229 22.6386 88.3882C21.719 94.0536 25.5662 99.3917 31.2315 100.311C36.8969 101.231 42.235 97.3838 43.1546 91.7185Z" fill="#FFDACD"/>
<path d="M130.041 91.7204C130.96 86.0551 127.113 80.7169 121.448 79.7973C115.783 78.8777 110.444 82.7249 109.525 88.3902C108.605 94.0556 112.452 99.3937 118.118 100.313C123.783 101.233 129.121 97.3858 130.041 91.7204Z" fill="#FFDACD"/>
<path d="M76.3358 123.014C100.328 123.014 119.778 102.142 119.778 76.3937C119.778 50.6458 100.328 29.7731 76.3358 29.7731C52.3437 29.7731 32.8942 50.6458 32.8942 76.3937C32.8942 102.142 52.3437 123.014 76.3358 123.014Z" fill="#FFDACD"/>
<path d="M46.9799 84.4901C46.9799 84.9072 46.3709 85.2452 45.6066 85.2452C44.8424 85.2452 44.2334 84.9072 44.2334 84.4901C44.2334 84.0729 44.8424 83.738 45.6066 83.738C46.3709 83.738 46.9799 84.076 46.9799 84.4901Z" fill="#F9B0A1"/>
<path d="M51.2762 84.4901C51.2762 84.9072 50.6672 85.2452 49.9029 85.2452C49.1387 85.2452 48.5297 84.9072 48.5297 84.4901C48.5297 84.0729 49.1387 83.738 49.9029 83.738C50.6672 83.738 51.2762 84.076 51.2762 84.4901Z" fill="#F9B0A1"/>
<path d="M49.2877 86.4754C49.2877 86.8925 48.6787 87.2305 47.9145 87.2305C47.1502 87.2305 46.5443 86.8925 46.5443 86.4754C46.5443 86.0582 47.1532 85.7202 47.9145 85.7202C48.6757 85.7202 49.2877 86.0552 49.2877 86.4754Z" fill="#F9B0A1"/>
<path d="M53.6267 86.4754C53.6267 86.8925 53.0177 87.2305 52.2534 87.2305C51.4892 87.2305 50.8832 86.8925 50.8832 86.4754C50.8832 86.0582 51.4922 85.7202 52.2534 85.7202C53.0147 85.7202 53.6267 86.0552 53.6267 86.4754Z" fill="#F9B0A1"/>
<path d="M55.5697 84.4901C55.5697 84.9072 54.9607 85.2452 54.1995 85.2452C53.4382 85.2452 52.8262 84.9072 52.8262 84.4901C52.8262 84.0729 53.4352 83.738 54.1995 83.738C54.9637 83.738 55.5697 84.076 55.5697 84.4901Z" fill="#F9B0A1"/>
<path d="M99.8456 84.4901C99.8456 84.9072 99.2366 85.2452 98.4723 85.2452C97.708 85.2452 97.1021 84.9072 97.1021 84.4901C97.1021 84.0729 97.7111 83.738 98.4723 83.738C99.2335 83.738 99.8456 84.076 99.8456 84.4901Z" fill="#F9B0A1"/>
<path d="M104.136 84.4901C104.136 84.9072 103.527 85.2452 102.763 85.2452C101.998 85.2452 101.392 84.9072 101.392 84.4901C101.392 84.0729 102.001 83.738 102.763 83.738C103.524 83.738 104.136 84.076 104.136 84.4901Z" fill="#F9B0A1"/>
<path d="M102.154 86.4754C102.154 86.8925 101.545 87.2305 100.784 87.2305C100.022 87.2305 99.4103 86.8925 99.4103 86.4754C99.4103 86.0582 100.019 85.7202 100.784 85.7202C101.548 85.7202 102.154 86.0552 102.154 86.4754Z" fill="#F9B0A1"/>
<path d="M106.492 86.4754C106.492 86.8925 105.884 87.2305 105.119 87.2305C104.355 87.2305 103.749 86.8925 103.749 86.4754C103.749 86.0582 104.358 85.7202 105.119 85.7202C105.88 85.7202 106.492 86.0552 106.492 86.4754Z" fill="#F9B0A1"/>
<path d="M108.438 84.4901C108.438 84.9072 107.829 85.2452 107.065 85.2452C106.301 85.2452 105.692 84.9072 105.692 84.4901C105.692 84.0729 106.301 83.738 107.065 83.738C107.829 83.738 108.438 84.076 108.438 84.4901Z" fill="#F9B0A1"/>
<path d="M76.6068 91.2771C71.191 91.2771 65.6969 89.6857 60.1248 86.5027C59.882 86.3225 59.7136 86.0596 59.6516 85.7636C59.5896 85.4677 59.6381 85.1592 59.7882 84.8967C59.9382 84.6341 60.1792 84.4357 60.4657 84.3389C60.7522 84.2421 61.0642 84.2536 61.3427 84.3713C71.7746 90.3424 81.567 90.3485 91.2803 84.3926C91.4187 84.3014 91.574 84.239 91.737 84.2091C91.9001 84.1792 92.0674 84.1824 92.2292 84.2184C92.391 84.2545 92.5438 84.3227 92.6787 84.419C92.8136 84.5154 92.9277 84.6379 93.0143 84.7792C93.1009 84.9205 93.1582 85.0778 93.1828 85.2417C93.2074 85.4056 93.1987 85.5728 93.1574 85.7333C93.1161 85.8938 93.0429 86.0444 92.9422 86.176C92.8415 86.3077 92.7154 86.4178 92.5713 86.4997C87.3889 89.6786 82.0359 91.2771 76.6068 91.2771Z" fill="#AC5B0F"/>
<path d="M76.3359 22.103C68.2791 21.3752 70.7485 12.3288 73.1997 6.53131C67.942 6.98701 62.9305 8.96305 58.7767 12.2184C54.6229 15.4737 51.5063 19.8676 49.8071 24.864C48.1079 29.8604 47.8996 35.2433 49.2076 40.3561C50.5156 45.4689 53.2833 50.0905 57.1731 53.6571C61.0629 57.2237 65.9067 59.5811 71.1134 60.4417C76.3202 61.3024 81.6649 60.6291 86.4956 58.5039C91.3262 56.3788 95.4339 52.8936 98.3176 48.4737C101.201 44.0538 102.736 38.8901 102.735 33.6127C102.738 32.1755 91.1768 23.4458 76.3359 22.103Z" fill="#F16625"/>
<path d="M59.9846 74.6794C59.984 75.4165 59.765 76.1368 59.3553 76.7496C58.9457 77.3623 58.3636 77.8399 57.6827 78.1221C57.0018 78.4043 56.2525 78.4785 55.5295 78.3352C54.8065 78.1919 54.1421 77.8376 53.6203 77.3171C53.0985 76.7965 52.7426 76.133 52.5975 75.4104C52.4525 74.6877 52.5248 73.9382 52.8053 73.2566C53.0859 72.575 53.562 71.9918 54.1738 71.5807C54.7855 71.1695 55.5053 70.9487 56.2424 70.9463C56.7334 70.9451 57.2198 71.0408 57.6738 71.2279C58.1278 71.4149 58.5404 71.6897 58.888 72.0365C59.2356 72.3832 59.5114 72.7952 59.6996 73.2487C59.8877 73.7022 59.9846 74.1884 59.9846 74.6794V74.6794Z" fill="#AC5B0F"/>
<path d="M99.4648 74.6794C99.4642 75.417 99.245 76.1378 98.8347 76.7508C98.4245 77.3638 97.8418 77.8414 97.1601 78.1233C96.4785 78.4051 95.7286 78.4786 95.0053 78.3343C94.2819 78.19 93.6176 77.8345 93.0962 77.3128C92.5749 76.791 92.2199 76.1264 92.0763 75.4029C91.9326 74.6794 92.0066 73.9296 92.289 73.2482C92.5715 72.5668 93.0495 71.9845 93.6629 71.5747C94.2762 71.165 94.9972 70.9463 95.7348 70.9463C96.7244 70.9471 97.6731 71.3408 98.3725 72.0408C99.072 72.7408 99.4648 73.6898 99.4648 74.6794Z" fill="#AC5B0F"/>
<path d="M68.3856 145.276H60.2222V179.388H68.3856V145.276Z" fill="#FFDACD"/>
<path d="M84.2859 179.388H92.4493V145.276H84.2859V179.388Z" fill="#FFDACD"/>
</g>
<defs>
<clipPath id="clip0_1_116">
<rect width="150" height="150" fill="white"/>
</clipPath>
</defs>
</svg>
