<svg width="150" height="150" viewBox="0 0 150 150" fill="none" xmlns="http://www.w3.org/2000/svg">
<g clip-path="url(#clip0_1_3)">
<path d="M75.3614 150.723C116.982 150.723 150.723 116.982 150.723 75.3614C150.723 33.7405 116.982 0 75.3614 0C33.7405 0 0 33.7405 0 75.3614C0 116.982 33.7405 150.723 75.3614 150.723Z" fill="#FF9F00"/>
<path d="M104.334 84.9548C117.473 71.8164 114.997 48.0382 98.8032 31.8449C82.6099 15.6517 58.8318 13.1752 45.6933 26.3137C32.5549 39.4522 35.0313 63.2303 51.2246 79.4236C67.4179 95.6169 91.196 98.0933 104.334 84.9548Z" fill="#154A87"/>
<path d="M123.27 19.8589L117.868 14.4572C113.329 9.94313 107.187 7.4093 100.785 7.4093C94.3829 7.4093 88.2411 9.94313 83.7014 14.4572L61.3 36.8433L104.468 72.8281L123.27 54.0258C127.784 49.4861 130.318 43.3443 130.318 36.9423C130.318 30.5403 127.784 24.3985 123.27 19.8589V19.8589Z" fill="#A19289"/>
<path d="M101.743 96.0012C116.663 81.0815 116.663 56.8917 101.743 41.972C86.8231 27.0522 62.6334 27.0522 47.7136 41.972C32.7938 56.8917 32.7938 81.0815 47.7136 96.0012C62.6334 110.921 86.8231 110.921 101.743 96.0012Z" fill="#262424"/>
<path d="M45.8705 94.9371C49.4486 91.3591 49.4486 85.558 45.8705 81.9799C42.2925 78.4019 36.4914 78.4019 32.9133 81.9799C29.3353 85.558 29.3353 91.3591 32.9133 94.9371C36.4914 98.5152 42.2925 98.5152 45.8705 94.9371Z" fill="#944732"/>
<path d="M116.081 94.9357C119.659 91.3577 119.659 85.5565 116.081 81.9785C112.503 78.4005 106.702 78.4005 103.124 81.9785C99.5461 85.5565 99.5461 91.3577 103.124 94.9357C106.702 98.5138 112.503 98.5137 116.081 94.9357Z" fill="#944732"/>
<path d="M75.7694 47.9938H73.2208C54.6923 47.9938 39.672 63.0141 39.672 81.5426V91.2375C39.672 109.766 54.6923 124.786 73.2208 124.786H75.7694C94.2979 124.786 109.318 109.766 109.318 91.2375V81.5426C109.318 63.0141 94.2979 47.9938 75.7694 47.9938Z" fill="#944732"/>
<path d="M74.4968 59.6893C84.8121 59.6893 93.1743 56.3302 93.1743 52.1866C93.1743 48.043 84.8121 44.684 74.4968 44.684C64.1815 44.684 55.8193 48.043 55.8193 52.1866C55.8193 56.3302 64.1815 59.6893 74.4968 59.6893Z" fill="#262424"/>
<path d="M61.5073 86.7616C61.8474 84.6668 60.4249 82.693 58.33 82.3529C56.2352 82.0129 54.2613 83.4354 53.9213 85.5302C53.5813 87.6251 55.0038 89.5989 57.0986 89.939C59.1935 90.279 61.1673 88.8565 61.5073 86.7616Z" fill="#262424"/>
<path d="M94.3585 87.0453C94.8568 84.9824 93.5885 82.9061 91.5256 82.4078C89.4626 81.9095 87.3864 83.1779 86.888 85.2408C86.3897 87.3037 87.6581 89.38 89.721 89.8783C91.7839 90.3766 93.8602 89.1082 94.3585 87.0453Z" fill="#262424"/>
<path d="M53.2158 93.6857C53.2158 93.6857 62.5972 103.907 74.1678 103.907C85.7385 103.907 95.1229 93.6857 95.1229 93.6857H53.2158Z" fill="#FFFEF9"/>
<path d="M84.6057 133.135H64.3845C62.5911 133.135 60.8153 133.489 59.1584 134.175C57.5015 134.861 55.9961 135.867 54.728 137.135C53.4598 138.403 52.4539 139.909 51.7676 141.566C51.0813 143.223 50.7281 144.999 50.7281 146.792V155.461H58.7118V177.783H98.2652V146.792C98.2652 144.998 97.9118 143.222 97.2254 141.565C96.5389 139.908 95.5327 138.402 94.2642 137.134C92.9958 135.866 91.49 134.86 89.8327 134.174C88.1755 133.488 86.3994 133.135 84.6057 133.135Z" fill="#E3DEDC"/>
<path d="M66.0928 111.961H82.8976V134.442C82.8976 136.67 82.0126 138.807 80.4371 140.382C78.8616 141.958 76.7248 142.843 74.4967 142.843V142.843C72.2687 142.843 70.1319 141.958 68.5564 140.382C66.9809 138.807 66.0959 136.67 66.0959 134.442V111.961H66.0928Z" fill="#944732"/>
</g>
<defs>
<clipPath id="clip0_1_3">
<path d="M0 27.4042C0 12.2693 12.2693 0 27.4042 0H122.596C137.731 0 150 12.2693 150 27.4042V122.596C150 137.731 137.731 150 122.596 150H27.4042C12.2693 150 0 137.731 0 122.596V27.4042Z" fill="white"/>
</clipPath>
</defs>
</svg>
