<svg width="150" height="150" viewBox="0 0 150 150" fill="none" xmlns="http://www.w3.org/2000/svg">
<g clip-path="url(#clip0_1_434)">
<path d="M75.3614 150.723C116.982 150.723 150.723 116.982 150.723 75.3614C150.723 33.7405 116.982 0 75.3614 0C33.7405 0 0 33.7405 0 75.3614C0 116.982 33.7405 150.723 75.3614 150.723Z" fill="#00BBC4"/>
<path d="M32.4499 181.477L26.0282 177.122L60.7128 125.968C60.9985 125.546 61.3647 125.184 61.7902 124.904C62.2158 124.623 62.6925 124.43 63.193 124.333C63.6935 124.237 64.208 124.241 64.7072 124.344C65.2064 124.446 65.6805 124.646 66.1022 124.933C66.5243 125.219 66.886 125.585 67.1664 126.011C67.4469 126.437 67.6408 126.914 67.7369 127.414C67.833 127.915 67.8296 128.43 67.7267 128.929C67.6239 129.429 67.4237 129.903 67.1375 130.325L32.4499 181.477Z" fill="#F9B0A1"/>
<path d="M66.102 124.948C65.6802 124.662 65.2062 124.462 64.707 124.359C64.2078 124.256 63.6933 124.252 63.1928 124.349C62.6923 124.445 62.2156 124.639 61.79 124.919C61.3645 125.199 60.9983 125.561 60.7125 125.983L54.0899 135.891L60.609 140.105L67.1373 130.34C67.4235 129.918 67.6237 129.444 67.7265 128.945C67.8294 128.445 67.8328 127.93 67.7367 127.43C67.6405 126.929 67.4467 126.452 67.1662 126.026C66.8857 125.6 66.5241 125.234 66.102 124.948Z" fill="#F16625"/>
<path d="M117.704 181.65L124.129 177.293L89.4443 126.138C89.1582 125.716 88.7918 125.355 88.366 125.074C87.9402 124.794 87.4632 124.6 86.9625 124.504C86.4617 124.408 85.9469 124.411 85.4475 124.514C84.9481 124.617 84.4738 124.817 84.0518 125.103C83.2006 125.681 82.6138 126.574 82.4203 127.584C82.2267 128.595 82.4423 129.641 83.0195 130.493L117.704 181.65Z" fill="#F9B0A1"/>
<path d="M84.0396 125.112C84.4617 124.826 84.9359 124.626 85.4354 124.523C85.9348 124.42 86.4496 124.417 86.9503 124.513C87.4511 124.609 87.928 124.803 88.3539 125.083C88.7797 125.364 89.1461 125.725 89.4322 126.147L96.0548 136.056L89.5326 140.27L83.0074 130.502C82.4301 129.65 82.2146 128.604 82.4081 127.593C82.6017 126.583 83.1885 125.69 84.0396 125.112Z" fill="#F16625"/>
<path d="M125.228 108.67C138.486 108.67 149.234 97.9218 149.234 84.6636C149.234 71.4055 138.486 60.6576 125.228 60.6576C111.97 60.6576 101.222 71.4055 101.222 84.6636C101.222 97.9218 111.97 108.67 125.228 108.67Z" fill="#AC5B0F"/>
<path d="M24.2255 108.67C37.4837 108.67 48.2315 97.9218 48.2315 84.6636C48.2315 71.4055 37.4837 60.6576 24.2255 60.6576C10.9673 60.6576 0.219452 71.4055 0.219452 84.6636C0.219452 97.9218 10.9673 108.67 24.2255 108.67Z" fill="#AC5B0F"/>
<path d="M74.7285 116.248C50.6433 116.248 31.0493 96.6545 31.0493 72.5693V52.3998C31.0585 28.3176 50.6433 8.72062 74.7285 8.72062C98.8138 8.72062 118.408 28.3176 118.408 52.3998V72.5693C118.408 96.6545 98.8107 116.248 74.7285 116.248Z" fill="#AC5B0F"/>
<path d="M83.7109 104.574H66.5529V136.107H83.7109V104.574Z" fill="#F9B0A1"/>
<path d="M74.7283 12.0183H74.7252C52.4231 12.0183 34.3437 30.0977 34.3437 52.3998V72.5723C34.3437 94.8744 52.4231 112.954 74.7252 112.954H74.7283C97.0304 112.954 115.11 94.8744 115.11 72.5723V52.3998C115.11 30.0977 97.0304 12.0183 74.7283 12.0183Z" fill="#F9B0A1"/>
<path d="M118.407 61.3549V53.2159C118.407 28.0436 97.504 7.43872 72.3683 8.78457C49.3762 10.0147 31.0581 29.1063 31.0581 52.3998V61.9151C31.0581 61.9852 64.9844 83.1899 83.735 43.0733C91.4081 55.7705 103.11 61.5284 118.237 61.3762C118.298 61.4584 118.407 61.4706 118.407 61.3549Z" fill="#AC5B0F"/>
<path d="M31.2834 89.3985C37.0229 89.3985 41.6757 84.7457 41.6757 79.0062C41.6757 73.2667 37.0229 68.614 31.2834 68.614C25.5439 68.614 20.8911 73.2667 20.8911 79.0062C20.8911 84.7457 25.5439 89.3985 31.2834 89.3985Z" fill="#F9B0A1"/>
<path d="M118.17 89.3985C123.91 89.3985 128.562 84.7457 128.562 79.0062C128.562 73.2667 123.91 68.614 118.17 68.614C112.431 68.614 107.778 73.2667 107.778 79.0062C107.778 84.7457 112.431 89.3985 118.17 89.3985Z" fill="#F9B0A1"/>
<path d="M59.1294 81.1742C58.4583 81.8452 57.6032 82.3022 56.6724 82.4873C55.7415 82.6724 54.7767 82.5773 53.8999 82.2141C53.0231 81.8508 52.2737 81.2358 51.7464 80.4466C51.2191 79.6575 50.9377 78.7297 50.9377 77.7806C50.9377 76.8316 51.2191 75.9038 51.7464 75.1147C52.2737 74.3255 53.0231 73.7105 53.8999 73.3472C54.7767 72.984 55.7415 72.8889 56.6724 73.074C57.6032 73.2591 58.4583 73.7161 59.1294 74.3871C59.5755 74.8325 59.9294 75.3615 60.1708 75.9438C60.4123 76.5261 60.5365 77.1503 60.5365 77.7806C60.5365 78.411 60.4123 79.0352 60.1708 79.6175C59.9294 80.1998 59.5755 80.7288 59.1294 81.1742Z" fill="#7E341F"/>
<path d="M60.3898 86.8499C60.4447 90.6161 61.9793 94.2095 64.6621 96.8534C67.3448 99.4973 70.9601 100.979 74.7267 100.979C78.4933 100.979 82.1087 99.4973 84.7914 96.8534C87.4741 94.2095 89.0088 90.6161 89.0637 86.8499H60.3898Z" fill="white"/>
<path d="M97.1144 81.1742C96.4432 81.8452 95.5882 82.3022 94.6573 82.4873C93.7265 82.6724 92.7616 82.5773 91.8848 82.2141C91.008 81.8508 90.2586 81.2358 89.7314 80.4466C89.2041 79.6575 88.9227 78.7297 88.9227 77.7806C88.9227 76.8316 89.2041 75.9038 89.7314 75.1147C90.2586 74.3255 91.008 73.7105 91.8848 73.3472C92.7616 72.984 93.7265 72.8889 94.6573 73.074C95.5882 73.2591 96.4432 73.7161 97.1144 74.3871C97.5604 74.8325 97.9143 75.3615 98.1558 75.9438C98.3972 76.5261 98.5215 77.1503 98.5215 77.7806C98.5215 78.411 98.3972 79.0352 98.1558 79.6175C97.9143 80.1998 97.5604 80.7288 97.1144 81.1742Z" fill="#7E341F"/>
<path d="M68.2059 122.174H81.908C83.124 122.174 84.3281 122.413 85.4515 122.879C86.5749 123.344 87.5957 124.026 88.4555 124.886C89.3153 125.746 89.9974 126.767 90.4627 127.89C90.9281 129.013 91.1676 130.217 91.1676 131.433V152.443H58.9372V131.433C58.9372 130.217 59.177 129.012 59.6429 127.888C60.1089 126.764 60.7917 125.743 61.6525 124.883C62.5133 124.023 63.5352 123.341 64.6596 122.876C65.7841 122.411 66.9892 122.173 68.2059 122.174Z" fill="white"/>
<path d="M92.3162 128.69H57.5312V134.232H92.3162V128.69Z" fill="#F16625"/>
<path d="M92.3157 141.506H57.5307V147.048H92.3157V141.506Z" fill="#F16625"/>
</g>
<defs>
<clipPath id="clip0_1_434">
<rect width="150" height="150" fill="white"/>
</clipPath>
</defs>
</svg>
