<svg width="150" height="150" viewBox="0 0 150 150" fill="none" xmlns="http://www.w3.org/2000/svg">
<g clip-path="url(#clip0_1_155)">
<path d="M75 150C116.421 150 150 116.421 150 75C150 33.5786 116.421 0 75 0C33.5786 0 0 33.5786 0 75C0 116.421 33.5786 150 75 150Z" fill="#FF9F00"/>
<path d="M42.2404 86.0965C42.6362 82.118 39.7317 78.5719 35.7531 78.1762C31.7745 77.7805 28.2285 80.685 27.8327 84.6635C27.437 88.6421 30.3415 92.1882 34.3201 92.5839C38.2987 92.9796 41.8447 90.0751 42.2404 86.0965Z" fill="#F9B0A1"/>
<path d="M121.975 90.5017C124.803 87.6745 124.803 83.0908 121.975 80.2637C119.148 77.4365 114.565 77.4365 111.737 80.2636C108.91 83.0908 108.91 87.6745 111.737 90.5017C114.565 93.3289 119.148 93.3289 121.975 90.5017Z" fill="#F9B0A1"/>
<path d="M75.9486 146.93C51.9789 146.93 32.4789 127.43 32.4789 103.464V58.9182C32.4789 34.9515 51.9789 15.4485 75.9486 15.4485C99.9183 15.4485 119.418 34.9515 119.418 58.9182V103.464C119.418 127.43 99.9183 146.93 75.9486 146.93Z" fill="#7E341F"/>
<path d="M44.4454 171.785L38.0515 167.448L62 132.121C62.5754 131.274 63.4635 130.69 64.4692 130.498C65.4749 130.305 66.5159 130.519 67.3636 131.094C67.7836 131.378 68.1434 131.743 68.4225 132.166C68.7016 132.59 68.8945 133.064 68.9902 133.562C69.0858 134.06 69.0824 134.572 68.9801 135.069C68.8778 135.566 68.6786 136.038 68.3939 136.458L44.4454 171.785Z" fill="#F9B0A1"/>
<path d="M61.897 146.191L68.3939 136.47C68.9706 135.622 69.1868 134.58 68.995 133.572C68.8032 132.565 68.2191 131.675 67.3712 131.099C66.5233 130.522 65.4811 130.306 64.4738 130.497C63.4665 130.689 62.5767 131.273 62 132.121L61.897 146.191Z" fill="#F16625"/>
<path d="M108.788 171.785L115.182 167.448L90.606 132.297C90.3216 131.877 89.9573 131.517 89.5337 131.238C89.1102 130.959 88.6358 130.766 88.1377 130.67C87.6396 130.575 87.1275 130.578 86.6307 130.68C86.1339 130.783 85.6622 130.982 85.2424 131.267C84.8223 131.551 84.4624 131.916 84.1833 132.34C83.9042 132.764 83.7113 133.238 83.6156 133.737C83.5199 134.235 83.5233 134.747 83.6257 135.244C83.728 135.741 83.9273 136.213 84.2121 136.633L108.788 171.785Z" fill="#F9B0A1"/>
<path d="M75.9515 18.7151H75.9485C53.7533 18.7151 35.7606 36.7079 35.7606 58.903V78.9788C35.7606 101.174 53.7533 119.167 75.9485 119.167H75.9515C98.1466 119.167 116.139 101.174 116.139 78.9788V58.903C116.139 36.7079 98.1466 18.7151 75.9515 18.7151Z" fill="#F9B0A1"/>
<path d="M119.418 67.8151V59.7182C119.418 34.6636 98.6152 14.1606 73.6001 15.497C50.7182 16.7091 32.4789 35.7242 32.4789 58.903V68.3727C32.4789 68.4151 92.3092 68.0697 92.3092 68.0697L97.1849 57.2061L104.242 67.9091L119.215 67.8364C119.215 67.8364 119.418 67.9333 119.418 67.8151Z" fill="#7E341F"/>
<path d="M52.1212 87.5C52.1212 98.9697 62.7849 108.267 75.9364 108.267C89.0879 108.267 99.7485 98.9697 99.7485 87.5H52.1212Z" fill="white"/>
<path d="M61.8849 82.8878C61.0824 82.8839 60.314 82.5633 59.7465 81.9959C59.1791 81.4284 58.8586 80.66 58.8546 79.8575V77.403C58.8586 76.6005 59.1791 75.8321 59.7465 75.2646C60.314 74.6972 61.0824 74.3767 61.8849 74.3727C62.6873 74.3767 63.4558 74.6972 64.0232 75.2646C64.5907 75.8321 64.9112 76.6005 64.9152 77.403V79.8575C64.9112 80.66 64.5907 81.4284 64.0232 81.9959C63.4558 82.5633 62.6873 82.8839 61.8849 82.8878Z" fill="#7E341F"/>
<path d="M89.2696 82.8878C88.4672 82.8839 87.6987 82.5633 87.1313 81.9959C86.5638 81.4284 86.2433 80.66 86.2393 79.8575V77.403C86.2433 76.6005 86.5638 75.8321 87.1313 75.2646C87.6987 74.6972 88.4672 74.3767 89.2696 74.3727C90.0721 74.3767 90.8405 74.6972 91.408 75.2646C91.9754 75.8321 92.2959 76.6005 92.2999 77.403V79.8575C92.2959 80.66 91.9754 81.4284 91.408 81.9959C90.8405 82.5633 90.0721 82.8839 89.2696 82.8878Z" fill="#7E341F"/>
<path d="M69.4485 128.342H83.0848C85.5288 128.342 87.8728 129.313 89.6009 131.041C91.3291 132.77 92.3 135.114 92.3 137.558V158.467H60.2333V137.558C60.2333 136.347 60.4717 135.149 60.9348 134.031C61.3979 132.913 62.0767 131.897 62.9324 131.041C63.7881 130.186 64.804 129.507 65.922 129.044C67.04 128.581 68.2383 128.342 69.4485 128.342Z" fill="#EBEBEB"/>
<path d="M67.8121 110.83H84.8879V127.379C84.8879 129.641 83.9902 131.81 82.3919 133.411C80.7936 135.011 78.6255 135.912 76.3636 135.915C75.2426 135.915 74.1326 135.694 73.0969 135.265C72.0612 134.836 71.1202 134.208 70.3275 133.415C69.5348 132.622 68.906 131.681 68.477 130.646C68.0481 129.61 67.8273 128.5 67.8273 127.379V110.83H67.8121Z" fill="#F9B0A1"/>
</g>
<defs>
<clipPath id="clip0_1_155">
<rect width="150" height="150" fill="white"/>
</clipPath>
</defs>
</svg>
