<svg width="150" height="150" viewBox="0 0 150 150" fill="none" xmlns="http://www.w3.org/2000/svg">
<g clip-path="url(#clip0_1_469)">
<path d="M75.3614 150.723C116.982 150.723 150.723 116.982 150.723 75.3614C150.723 33.7405 116.982 0 75.3614 0C33.7405 0 0 33.7405 0 75.3614C0 116.982 33.7405 150.723 75.3614 150.723Z" fill="#7E341F"/>
<path d="M82.1061 21.2595C82.1061 11.886 74.5073 4.28722 65.1338 4.28722C55.7602 4.28722 48.1614 11.886 48.1614 21.2595V45.293C48.1614 54.6665 55.7602 62.2653 65.1338 62.2653C74.5073 62.2653 82.1061 54.6665 82.1061 45.293V21.2595Z" fill="#AC5B0F"/>
<path d="M46.4107 33.2747C43.6914 33.282 41.0856 34.3654 39.1628 36.2882C37.24 38.211 36.1566 40.8168 36.1493 43.5361V83.3026C36.1574 86.0216 37.241 88.6269 39.1637 90.5495C41.0863 92.4722 43.6916 93.5559 46.4107 93.5639C49.1294 93.5551 51.7343 92.4711 53.6568 90.5487C55.5792 88.6262 56.6632 86.0213 56.672 83.3026V43.5422C56.6656 40.8221 55.5826 38.2152 53.6598 36.2912C51.737 34.3673 49.1307 33.2828 46.4107 33.2747Z" fill="#AC5B0F"/>
<path d="M114.343 34.9129C114.343 22.3963 104.196 12.2496 91.6793 12.2496C79.1628 12.2496 69.0161 22.3963 69.0161 34.9129V80.2546C69.0161 92.7712 79.1628 102.918 91.6793 102.918C104.196 102.918 114.343 92.7712 114.343 80.2546V34.9129Z" fill="#AC5B0F"/>
<path d="M36.1492 102.918C41.3153 102.918 45.5032 98.7299 45.5032 93.5639C45.5032 88.3978 41.3153 84.2099 36.1492 84.2099C30.9832 84.2099 26.7953 88.3978 26.7953 93.5639C26.7953 98.7299 30.9832 102.918 36.1492 102.918Z" fill="#F9A08A"/>
<path d="M114.342 102.918C119.508 102.918 123.696 98.7299 123.696 93.5639C123.696 88.3978 119.508 84.2099 114.342 84.2099C109.176 84.2099 104.988 88.3978 104.988 93.5639C104.988 98.7299 109.176 102.918 114.342 102.918Z" fill="#F9A08A"/>
<path d="M83.3299 116.577H67.8892V144.956H83.3299V116.577Z" fill="#F9A08A"/>
<path d="M69.366 132.414H81.704C83.9143 132.414 86.034 133.292 87.5969 134.855C89.1598 136.418 90.0379 138.538 90.0379 140.748V159.657H61.0321V140.748C61.0321 138.538 61.9101 136.418 63.473 134.855C65.036 133.292 67.1557 132.414 69.366 132.414Z" fill="#7CE6E6"/>
<path d="M75.2459 123.233C96.8384 123.233 114.343 104.448 114.343 81.2746C114.343 58.1014 96.8384 39.3158 75.2459 39.3158C53.6535 39.3158 36.1493 58.1014 36.1493 81.2746C36.1493 104.448 53.6535 123.233 75.2459 123.233Z" fill="#F9A08A"/>
<path d="M57.4516 83.8202C63.6821 83.8202 68.7329 78.7693 68.7329 72.5388C68.7329 66.3083 63.6821 61.2574 57.4516 61.2574C51.221 61.2574 46.1702 66.3083 46.1702 72.5388C46.1702 78.7693 51.221 83.8202 57.4516 83.8202Z" fill="#FFFEF9"/>
<path d="M57.4516 84.9316C55.0005 84.9316 52.6045 84.2047 50.5665 82.843C48.5285 81.4813 46.9401 79.5458 46.0022 77.2813C45.0642 75.0168 44.8188 72.5251 45.2969 70.1211C45.7751 67.7171 46.9554 65.509 48.6886 63.7758C50.4217 62.0426 52.6299 60.8623 55.0339 60.3842C57.4378 59.906 59.9296 60.1514 62.1941 61.0894C64.4586 62.0274 66.3941 63.6158 67.7558 65.6537C69.1175 67.6917 69.8444 70.0877 69.8444 72.5388C69.8403 75.8243 68.5334 78.9741 66.2101 81.2974C63.8869 83.6206 60.7371 84.9275 57.4516 84.9316ZM57.4516 62.3719C55.4407 62.3719 53.4751 62.9681 51.8031 64.0853C50.1312 65.2025 48.8281 66.7903 48.0586 68.6481C47.289 70.5058 47.0877 72.5501 47.48 74.5223C47.8723 76.4945 48.8406 78.306 50.2625 79.7279C51.6843 81.1498 53.4959 82.1181 55.4681 82.5104C57.4403 82.9027 59.4845 82.7013 61.3423 81.9318C63.2001 81.1623 64.7879 79.8592 65.9051 78.1873C67.0222 76.5153 67.6185 74.5496 67.6185 72.5388C67.6153 69.8433 66.5431 67.2592 64.6371 65.3532C62.7312 63.4473 60.147 62.3751 57.4516 62.3719Z" fill="#7E341F"/>
<path d="M92.626 83.8202C98.8566 83.8202 103.907 78.7693 103.907 72.5388C103.907 66.3083 98.8566 61.2574 92.626 61.2574C86.3955 61.2574 81.3447 66.3083 81.3447 72.5388C81.3447 78.7693 86.3955 83.8202 92.626 83.8202Z" fill="#FFFEF9"/>
<path d="M92.6261 84.9316C90.175 84.9316 87.779 84.2047 85.741 82.843C83.703 81.4813 82.1146 79.5458 81.1766 77.2813C80.2386 75.0168 79.9932 72.5251 80.4714 70.1211C80.9496 67.7171 82.1299 65.509 83.863 63.7758C85.5962 62.0426 87.8044 60.8623 90.2083 60.3842C92.6123 59.906 95.1041 60.1514 97.3686 61.0894C99.633 62.0274 101.569 63.6158 102.93 65.6537C104.292 67.6917 105.019 70.0877 105.019 72.5388C105.015 75.8243 103.708 78.9741 101.385 81.2974C99.0614 83.6206 95.9116 84.9275 92.6261 84.9316ZM92.6261 62.3719C90.6152 62.3719 88.6495 62.9681 86.9776 64.0853C85.3057 65.2025 84.0025 66.7903 83.233 68.6481C82.4635 70.5058 82.2622 72.5501 82.6545 74.5223C83.0468 76.4945 84.0151 78.306 85.4369 79.7279C86.8588 81.1498 88.6704 82.1181 90.6426 82.5104C92.6148 82.9027 94.659 82.7013 96.5168 81.9318C98.3745 81.1623 99.9624 79.8592 101.08 78.1873C102.197 76.5153 102.793 74.5496 102.793 72.5388C102.79 69.8433 101.718 67.2592 99.8116 65.3532C97.9056 63.4473 95.3215 62.3751 92.6261 62.3719Z" fill="#7E341F"/>
<path d="M68.7327 73.6532C68.4711 73.6518 68.2184 73.5585 68.0187 73.3895C67.8191 73.2205 67.6852 72.9867 67.6406 72.729C67.5959 72.4713 67.6433 72.2061 67.7745 71.9798C67.9057 71.7536 68.1123 71.5806 68.3581 71.4913C72.6941 69.9415 77.1884 69.9384 81.707 71.4913C81.9758 71.5951 82.194 71.799 82.3157 72.0601C82.4375 72.3213 82.4534 72.6195 82.36 72.8921C82.2666 73.1647 82.0713 73.3905 81.815 73.5222C81.5587 73.6539 81.2614 73.6812 80.9854 73.5984C76.8991 72.1977 73.0107 72.1977 69.1102 73.5984C68.9886 73.6389 68.8608 73.6575 68.7327 73.6532Z" fill="#7E341F"/>
<path d="M57.9994 75.0844C57.5517 75.0828 57.1228 74.9042 56.8062 74.5876C56.4896 74.271 56.3111 73.8421 56.3095 73.3944V70.8002C56.3103 70.3519 56.4885 69.9223 56.8051 69.605C57.1218 69.2878 57.5512 69.1088 57.9994 69.1072C58.4476 69.1088 58.877 69.2878 59.1936 69.605C59.5103 69.9223 59.6885 70.3519 59.6893 70.8002V73.3823C59.6901 73.605 59.647 73.8257 59.5626 74.0318C59.4781 74.2378 59.3538 74.4253 59.1969 74.5833C59.04 74.7414 58.8534 74.867 58.648 74.9529C58.4425 75.0389 58.2221 75.0836 57.9994 75.0844Z" fill="#7E341F"/>
<path d="M92.6259 75.0843C92.1782 75.0827 91.7493 74.9042 91.4327 74.5876C91.1162 74.271 90.9376 73.8421 90.936 73.3944V70.8001C90.94 70.354 91.1196 69.9275 91.4359 69.6129C91.7523 69.2982 92.1798 69.1209 92.6259 69.1194C93.0742 69.121 93.5035 69.2999 93.8202 69.6172C94.1368 69.9344 94.3151 70.3641 94.3159 70.8123V73.3822C94.3171 73.6051 94.2743 73.8259 94.1899 74.0322C94.1056 74.2385 93.9813 74.426 93.8243 74.5842C93.6673 74.7423 93.4806 74.8679 93.275 74.9537C93.0693 75.0395 92.8488 75.0839 92.6259 75.0843Z" fill="#7E341F"/>
<path d="M75.4893 94.6692C70.6175 94.6692 65.6573 93.235 60.6546 90.3728C60.5278 90.3002 60.4166 90.2034 60.3272 90.0879C60.2379 89.9723 60.1722 89.8403 60.1339 89.6993C60.0956 89.5584 60.0854 89.4113 60.104 89.2664C60.1225 89.1215 60.1694 88.9817 60.242 88.8549C60.3145 88.7282 60.4114 88.6169 60.5269 88.5276C60.6425 88.4383 60.7745 88.3726 60.9155 88.3343C61.0564 88.296 61.2035 88.2858 61.3484 88.3043C61.4933 88.3229 61.6331 88.3698 61.7599 88.4423C71.1473 93.8136 79.9593 93.8197 88.7042 88.4576C88.9558 88.3033 89.2583 88.2553 89.5453 88.3241C89.6873 88.3582 89.8213 88.4199 89.9395 88.5058C90.0578 88.5916 90.1579 88.6999 90.2343 88.8245C90.3107 88.949 90.3618 89.0874 90.3847 89.2317C90.4076 89.376 90.4018 89.5234 90.3677 89.6655C90.3337 89.8076 90.2719 89.9416 90.1861 90.0598C90.1002 90.178 89.992 90.2782 89.8674 90.3545C85.1782 93.2289 80.3856 94.6692 75.4893 94.6692Z" fill="#7E341F"/>
<path d="M68.3798 143.455H61.0355V184.482H68.3798V143.455Z" fill="#F9A08A"/>
<path d="M82.6968 184.479H90.0411V143.452H82.6968V184.479Z" fill="#F9A08A"/>
</g>
<defs>
<clipPath id="clip0_1_469">
<rect width="150" height="150" fill="white"/>
</clipPath>
</defs>
</svg>
