<svg width="406" height="405" viewBox="0 0 406 405" fill="none" xmlns="http://www.w3.org/2000/svg">
<path d="M207.242 43.2124L333.819 129.896L333.601 275.395L206.777 360.212L72.0444 275.012L72.2576 129.514L207.242 43.2124Z" fill="#096A70"/>
<path d="M228.651 262.204H202.197H178.329C178.329 262.204 178.329 268.993 178.329 269.86V276.162C178.329 279.648 180.474 289 183.955 289H202.197H221.591C227.098 287.693 228.671 279.648 228.671 276.162V269.86C228.671 268.993 228.651 257.43 228.651 262.204ZM203.5 106C167.887 106 139 134.931 139 170.599C139 194.508 151.979 215.384 171.25 226.551V249.377C171.25 252.863 174.062 255.68 177.543 255.68H229.457C232.938 255.68 235.75 252.863 235.75 249.377V226.551C255.021 215.384 268 194.508 268 170.599C268 134.931 239.113 106 203.5 106ZM228.651 214.281L221.591 218.378V241.499H185.409V218.378L178.349 214.281C162.873 205.32 153.159 188.816 153.159 170.599C153.159 142.75 175.694 120.18 203.5 120.18C231.306 120.18 253.841 142.75 253.841 170.599C253.841 188.816 244.127 205.32 228.651 214.281Z" fill="#FAF9F8"/>
<path d="M264 172.526C264 209.569 247.365 217.884 203.972 229.98C162.742 213.349 157.679 210.325 149 172.526C189 114.5 181.5 156.5 203.972 114.5C241.582 125.084 264 135.483 264 172.526Z" fill="#FAF9F8"/>
<path d="M238.112 199C238.112 236.395 247.347 244.789 204.738 257C164.253 240.21 186.977 237.158 178.455 199C178.455 145.892 171.355 199.763 213.257 184.5C250.188 195.184 238.112 161.604 238.112 199Z" fill="#FAF9F8"/>
</svg>
