<svg width="406" height="405" viewBox="0 0 406 405" fill="none" xmlns="http://www.w3.org/2000/svg">
<path d="M207.242 43.2124L333.819 129.896L333.601 275.395L206.777 360.212L72.0441 275.012L72.2573 129.514L207.242 43.2124Z" fill="#86C2BB"/>
<path d="M173.302 203.425C173.302 203.425 161.127 201.183 156.146 203.425C152.436 205.093 138.08 210.179 130.998 212.67V259.42C135.098 259.188 143.254 258.761 146.739 258.898C157.124 259.315 164.879 261.747 172.72 264.206C180.037 266.502 187.429 268.823 197.092 269.546C199.529 269.726 201.892 269.963 204.185 270.19C212.469 271.013 219.802 271.741 225.874 269.546C233.624 266.744 277.89 245.453 283.422 239.85C288.959 234.246 286.19 219.113 269.033 221.915C260.573 223.297 250.754 227.276 241.86 230.879C232.721 234.578 224.548 237.892 219.786 237.607C210.379 237.048 185.473 232.563 185.473 232.563L214.067 232.906C214.067 232.906 218.108 233.117 223.656 229.202C229.215 225.286 234.174 214.074 225.874 214.074C217.574 214.074 208.717 211.266 208.717 211.266L173.302 203.425Z" fill="#FAF9F8"/>
<path d="M184.653 116C196.617 116 206.307 125.527 206.307 137.28C206.307 125.527 215.997 116 227.962 116C239.926 116 249.616 125.527 249.616 137.28C249.616 154.993 232.108 161.242 208.429 189.438C208.169 189.747 207.844 189.996 207.477 190.167C207.111 190.338 206.711 190.426 206.307 190.426C205.903 190.426 205.504 190.338 205.137 190.167C204.771 189.996 204.446 189.747 204.185 189.438C180.506 161.242 162.998 154.993 162.998 137.28C162.998 125.527 172.689 116 184.653 116Z" fill="#FAF9F8"/>
</svg>
