<svg width="406" height="405" viewBox="0 0 406 405" fill="none" xmlns="http://www.w3.org/2000/svg">
<path d="M207.242 43.2124L333.819 129.896L333.601 275.395L206.777 360.212L72.0441 275.012L72.2573 129.514L207.242 43.2124Z" fill="#86C2BB"/>
<path d="M261.961 129.679V109H153.998V129.679H123.998V146.049C123.998 159.835 127.561 173.099 134.033 183.361C139.032 191.288 153.158 194.898 160.186 197.53C176.311 226.825 171.998 219.536 176.311 226.825C180.623 234.113 183.436 238.724 199.748 253.311V271.295L176.311 283.045L171.998 302H243.998L239.123 283.045L216.248 271.295V253.311C216.248 253.311 227.471 248.048 243.998 226.825L261.998 197.53C261.998 197.53 261.961 191.79 275.442 183.361C281.915 173.099 291.998 159.835 291.998 146.049V129.679H261.961ZM147.398 172.242C143.393 165.918 140.96 157.422 140.558 148.634H153.998V177.657C152.521 177.166 149.153 175.021 147.398 172.242ZM268.598 172.242C266.873 175.09 264.248 177.661 261.998 177.661C261.998 168.011 261.998 157.72 261.98 148.634H275.442C275.037 157.422 272.498 165.823 268.598 172.242Z" fill="#FAF9F8"/>
</svg>
