<svg width="406" height="405" viewBox="0 0 406 405" fill="none" xmlns="http://www.w3.org/2000/svg">
<path d="M207.242 43.2124L333.819 129.896L333.601 275.395L206.777 360.212L72.0441 275.012L72.2573 129.514L207.242 43.2124Z" fill="#86C2BB"/>
<path d="M138.996 233.207L139.027 233.202C144.459 232.691 148.569 229.412 151.571 227.019L151.792 226.844C154.678 224.526 155.366 224.369 157.573 224.125C158.882 223.976 160.712 224.039 162.001 225.195C163.29 226.35 163.551 228.162 163.549 229.476L163.466 245.811C163.368 259.769 168.761 272.342 178.654 281.211C188.548 290.08 201.625 294.08 215.501 292.456C234.658 290.181 253.117 280.114 267.491 264.079C284.107 245.543 293.709 220.704 293.859 195.911C294.027 172.288 284.921 151.049 268.237 136.093C251.553 121.137 229.44 114.407 205.987 117.14C194.348 118.493 182.927 122.203 172.031 128.168C161.568 133.919 152.137 141.375 144.127 150.229L143.639 150.773C127.209 169.101 117.744 192.095 117.654 213.853C117.613 219.073 119.832 224.016 123.906 227.771C128.107 231.65 133.75 233.685 138.996 233.207ZM266.126 168.883C268.028 170.588 269.381 172.818 270.015 175.292C270.649 177.765 270.535 180.372 269.688 182.781C268.841 185.19 267.298 187.294 265.256 188.826C263.213 190.359 260.761 191.251 258.211 191.391C255.661 191.53 253.127 190.91 250.93 189.609C248.732 188.308 246.97 186.385 245.865 184.082C244.761 181.78 244.364 179.202 244.725 176.673C245.086 174.145 246.188 171.781 247.893 169.879C250.179 167.329 253.384 165.792 256.804 165.605C260.223 165.418 263.577 166.597 266.126 168.883ZM214.792 144.542C216.497 142.64 218.727 141.287 221.201 140.653C223.675 140.019 226.281 140.132 228.69 140.979C231.099 141.827 233.203 143.369 234.736 145.412C236.268 147.455 237.16 149.906 237.3 152.456C237.439 155.006 236.819 157.54 235.518 159.738C234.217 161.935 232.293 163.698 229.991 164.802C227.688 165.907 225.11 166.304 222.582 165.943C220.054 165.582 217.689 164.48 215.788 162.775C213.238 160.489 211.7 157.284 211.514 153.865C211.327 150.446 212.506 147.092 214.792 144.542ZM263.808 210.157C265.709 211.862 267.062 214.092 267.696 216.566C268.33 219.039 268.217 221.646 267.369 224.055C266.522 226.464 264.98 228.568 262.937 230.1C260.894 231.633 258.442 232.525 255.893 232.665C253.343 232.804 250.809 232.184 248.611 230.883C246.413 229.582 244.651 227.659 243.547 225.356C242.442 223.054 242.045 220.475 242.406 217.947C242.767 215.419 243.87 213.055 245.574 211.153C247.86 208.603 251.065 207.066 254.485 206.879C257.904 206.692 261.258 207.871 263.808 210.157ZM165.149 156.398C167.706 153.546 171.051 151.516 174.762 150.564C178.472 149.613 182.382 149.784 185.996 151.054C189.609 152.325 192.765 154.639 195.064 157.703C197.362 160.767 198.701 164.444 198.909 168.269C199.118 172.094 198.188 175.895 196.237 179.192C194.285 182.488 191.4 185.132 187.946 186.789C184.492 188.446 180.625 189.041 176.833 188.5C173.04 187.959 169.494 186.305 166.642 183.748C162.817 180.32 160.511 175.512 160.231 170.383C159.951 165.254 161.72 160.223 165.149 156.398ZM217.563 242.401C219.267 240.5 221.498 239.146 223.972 238.512C226.445 237.878 229.052 237.992 231.461 238.839C233.87 239.686 235.974 241.228 237.506 243.271C239.039 245.314 239.931 247.765 240.07 250.315C240.209 252.865 239.589 255.399 238.288 257.597C236.987 259.794 235.064 261.557 232.761 262.662C230.459 263.766 227.88 264.163 225.352 263.802C222.824 263.441 220.46 262.339 218.558 260.634C216.008 258.349 214.471 255.144 214.284 251.724C214.098 248.305 215.277 244.951 217.563 242.401Z" fill="#FAF9F8"/>
</svg>
