<svg width="406" height="405" viewBox="0 0 406 405" fill="none" xmlns="http://www.w3.org/2000/svg">
<path d="M207.242 43.2124L333.819 129.896L333.601 275.395L206.777 360.212L72.0444 275.012L72.2576 129.514L207.242 43.2124Z" fill="#86C2BB"/>
<path d="M142.317 119.959C172.424 157.683 221.591 147.556 248.147 173.197C268.134 192.495 264.04 224.395 259.36 243.175C259.36 243.175 276.241 253.001 297.675 258.701C304.866 260.607 299.236 274.356 293.18 272.962C216.508 255.286 166.422 164.656 166.422 164.656C166.422 164.656 173.345 232.714 238.859 269.392C225.564 272.552 189.409 279.83 161.994 248.054C124.796 204.98 135.294 111.151 142.317 119.959Z" fill="#FAF9F8"/>
</svg>
