<svg width="406" height="405" viewBox="0 0 406 405" fill="none" xmlns="http://www.w3.org/2000/svg">
<path d="M207.242 43.2124L333.819 129.896L333.601 275.395L206.777 360.212L72.0441 275.012L72.2573 129.514L207.242 43.2124Z" fill="#86C2BB"/>
<path d="M277.151 131.133C276.797 125.942 274.482 121.079 270.673 117.527C266.865 113.975 261.849 112 256.638 112H151.557L150.15 112.046C144.951 112.402 140.082 114.716 136.527 118.52C132.971 122.324 130.995 127.335 130.998 132.538V273.944L131.044 275.349C131.398 280.54 133.714 285.404 137.522 288.956C141.33 292.508 146.347 294.483 151.557 294.482L269.495 294.478L261.945 280.796H151.557L150.625 280.732C148.985 280.507 147.481 279.697 146.393 278.451C145.304 277.204 144.704 275.607 144.704 273.953V132.538L144.768 131.608C144.994 129.969 145.805 128.468 147.053 127.381C148.301 126.294 149.901 125.695 151.557 125.695H256.638L257.57 125.759C259.21 125.984 260.714 126.795 261.802 128.041C262.891 129.287 263.491 130.885 263.491 132.538L261.802 294.473L277.188 294.482C277.188 342.329 276.091 225.677 277.188 224.948V132.529L277.151 131.133ZM220.91 244.3C220.356 244.278 219.802 244.278 219.247 244.3H197.199C195.381 244.3 193.638 243.579 192.353 242.295C191.068 241.012 190.346 239.272 190.346 237.457C190.346 235.642 191.068 233.901 192.353 232.618C193.638 231.335 195.381 230.614 197.199 230.614H242.922C244.74 230.614 246.483 231.335 247.768 232.618C249.053 233.901 249.776 235.642 249.776 237.457C249.776 239.272 249.053 241.012 247.768 242.295C246.483 243.579 244.74 244.3 242.922 244.3H220.91ZM176.685 164.482C176.685 166.902 175.723 169.223 174.009 170.934C172.295 172.645 169.971 173.606 167.548 173.606C165.125 173.606 162.8 172.645 161.087 170.934C159.373 169.223 158.411 166.902 158.411 164.482C158.411 162.062 159.373 159.741 161.087 158.03C162.8 156.319 165.125 155.358 167.548 155.358C169.971 155.358 172.295 156.319 174.009 158.03C175.723 159.741 176.685 162.062 176.685 164.482ZM190.355 164.464C190.355 162.649 191.077 160.908 192.362 159.625C193.647 158.342 195.39 157.621 197.208 157.621H242.932C244.749 157.621 246.492 158.342 247.777 159.625C249.063 160.908 249.785 162.649 249.785 164.464C249.785 166.279 249.063 168.019 247.777 169.302C246.492 170.586 244.749 171.307 242.932 171.307H197.208C195.39 171.307 193.647 170.586 192.362 169.302C191.077 168.019 190.355 166.279 190.355 164.464ZM197.208 194.117C195.39 194.117 193.647 194.838 192.362 196.121C191.077 197.405 190.355 199.145 190.355 200.96C190.355 202.775 191.077 204.516 192.362 205.799C193.647 207.082 195.39 207.803 197.208 207.803H242.932C243.832 207.803 244.723 207.626 245.554 207.282C246.386 206.938 247.141 206.434 247.777 205.799C248.414 205.164 248.919 204.409 249.263 203.579C249.607 202.749 249.785 201.859 249.785 200.96C249.785 200.062 249.607 199.172 249.263 198.341C248.919 197.511 248.414 196.757 247.777 196.121C247.141 195.486 246.386 194.982 245.554 194.638C244.723 194.294 243.832 194.117 242.932 194.117H197.208ZM167.548 210.084C169.971 210.084 172.295 209.123 174.009 207.412C175.723 205.701 176.685 203.38 176.685 200.96C176.685 198.54 175.723 196.22 174.009 194.508C172.295 192.797 169.971 191.836 167.548 191.836C165.125 191.836 162.8 192.797 161.087 194.508C159.373 196.22 158.411 198.54 158.411 200.96C158.411 203.38 159.373 205.701 161.087 207.412C162.8 209.123 165.125 210.084 167.548 210.084ZM176.685 237.438C176.685 239.858 175.723 242.179 174.009 243.89C172.295 245.601 169.971 246.563 167.548 246.563C165.125 246.563 162.8 245.601 161.087 243.89C159.373 242.179 158.411 239.858 158.411 237.438C158.411 235.019 159.373 232.698 161.087 230.987C162.8 229.276 165.125 228.314 167.548 228.314C169.971 228.314 172.295 229.276 174.009 230.987C175.723 232.698 176.685 235.019 176.685 237.438Z" fill="#FAF9F8"/>
<path d="M228.998 117.891C228.998 132.742 216.686 102.563 201.498 102.563C186.31 102.563 173.998 132.742 173.998 117.891C173.998 103.039 186.31 91 201.498 91C216.686 91 228.998 103.039 228.998 117.891Z" fill="#FAF9F8"/>
</svg>
