<svg width="406" height="405" viewBox="0 0 406 405" fill="none" xmlns="http://www.w3.org/2000/svg">
<path d="M207.242 43.2124L333.819 129.896L333.601 275.395L206.777 360.212L72.0441 275.012L72.2573 129.514L207.242 43.2124Z" fill="#86C2BB"/>
<path d="M103.998 248.169L123.898 248.181C129.417 248.181 133.848 243.762 133.848 238.276V169.126H103.998V248.169ZM118.923 228.439C121.644 228.439 123.898 230.64 123.898 233.384C123.898 236.087 121.644 238.329 118.923 238.329C116.203 238.329 113.948 236.077 113.948 233.387C113.948 230.635 116.203 228.439 118.923 228.439ZM212.453 149.241C209.984 149.241 207.584 150.159 205.762 151.817L175.172 179.64C175.141 179.702 175.141 179.764 175.079 179.764C169.917 184.588 170.01 192.288 174.426 197.082C178.39 201.133 186.67 202.53 191.879 197.932C191.931 197.886 191.963 197.886 191.994 197.855L216.831 175.249C218.852 173.433 222.039 173.549 223.865 175.558C225.73 177.567 225.575 180.698 223.554 182.553L215.432 189.935L260.711 226.46C261.605 227.232 262.421 228.005 263.159 228.854V168.755C250.417 156.088 233.16 149 215.151 149L212.453 149.241ZM208.038 196.68L198.71 205.181C189.459 213.564 175.312 212.754 167.056 203.829C158.723 194.762 159.376 180.692 168.456 172.404L193.89 149.241H191.838C173.866 149.241 156.578 156.379 143.86 169.002L143.798 238.242L149.473 238.254L177.613 263.556C186.164 270.474 198.679 269.16 205.597 260.697L211.231 265.41C216.169 269.152 223.476 268.657 227.518 263.749L237.275 251.812L238.946 253.203C243.222 256.605 249.481 255.987 252.939 251.735L255.904 248.092C259.362 243.839 258.714 237.645 254.445 234.197L208.038 196.68ZM273.148 169.157V238.304C273.148 243.753 277.579 248.215 282.818 248.215L302.998 248.2V169.064L273.148 169.157ZM288.073 238.304C285.353 238.304 283.098 236.063 283.098 233.359C283.098 230.615 285.353 228.414 288.073 228.414C290.794 228.414 293.048 230.635 293.048 233.387C293.048 236.077 290.81 238.304 288.073 238.304Z" fill="#FAF9F8"/>
</svg>
