<?xml version="1.0" encoding="UTF-8"?>
<svg width="1004px" height="760px" viewBox="0 0 1004 760" version="1.1" xmlns="http://www.w3.org/2000/svg" xmlns:xlink="http://www.w3.org/1999/xlink">
    <!-- Generator: Sketch 64 (93537) - https://sketch.com -->
    <title>bg-green-cloud</title>
    <desc>Created with Sketch.</desc>
    <g id="Page-1" stroke="none" stroke-width="1" fill="none" fill-rule="evenodd">
        <g id="bg-green-cloud" transform="translate(5.000000, 5.000000)" fill="#21C5B5" stroke="#000000" stroke-width="5">
            <path d="M369,-2.5 C321.690746,-2.5 278.600941,12.5402086 246.20807,37.1675276 C213.95035,61.692095 192.299265,95.7151223 187.508935,133.898602 C134.693174,137.206476 87.3553472,160.510761 53.1418259,196.251944 C18.6533979,232.280309 -2.5,280.944741 -2.5,334.5 C-2.5,404.514266 33.6532663,466.171563 88.495902,502.156261 C99.2310224,550.870842 126.586788,593.427932 164.385946,623.695046 C201.724188,653.593088 249.251059,671.5 301,671.5 C368.303357,671.5 428.465068,641.211517 468.35295,593.643023 C486.227418,598.712675 505.667505,601.5 526,601.5 C569.937829,601.5 609.700458,588.478988 638.48887,567.483618 C667.609093,546.246258 685.5,516.870896 685.5,484.5 C685.5,474.062367 683.640511,463.941332 680.144202,454.305794 C715.717636,440.21892 745.899925,417.101579 767.136824,388.181865 C788.226482,359.46266 800.5,325.022946 800.5,288 C800.5,237.85322 777.983259,192.439055 741.534916,159.571279 C705.185011,126.792272 654.972836,106.5 599.5,106.5 C581.0042,106.5 563.092668,108.756018 546.089259,112.982224 C536.2042,79.8434692 513.33805,50.961227 482.205329,30.3661865 C451.115131,9.79927582 411.782176,-2.5 369,-2.5 Z" id="Combined-Shape-Copy-4" transform="translate(399.000000, 334.500000) rotate(-180.000000) translate(-399.000000, -334.500000) "></path>
            <path d="M675,149.5 C633.291366,149.5 594.325467,161.132871 561.22683,181.300052 C527.538567,201.826496 499.929194,231.195526 481.691636,266.142119 C469.003714,263.766246 455.704566,262.5 442,262.5 C399.420535,262.5 360.761114,274.727974 332.212688,294.591623 C303.743333,314.400254 285.333334,341.787806 282.800747,372.253874 C243.27766,385.145211 209.280561,410.085894 185.252733,442.683388 C161.510635,474.893243 147.5,514.57728 147.5,557.5 C147.5,611.350694 169.552079,660.104543 205.209123,695.394934 C240.856767,730.676022 290.102932,752.5 344.5,752.5 C393.135014,752.5 437.652532,735.054347 472.00949,706.141551 C505.505082,734.492384 555.110109,752.5 610.5,752.5 C672.987685,752.5 728.099229,729.578983 761.045204,694.7444 C777.808918,699.787209 795.585893,702.5 814,702.5 C864.394383,702.5 910.017314,682.186069 943.042057,649.344798 C976.071854,616.4985 996.5,571.121427 996.5,521 C996.5,485.135613 986.039846,451.700863 967.989019,423.547704 C949.627711,394.9103 923.410441,371.738681 892.35675,357.036114 C890.244966,299.536716 865.402345,247.784721 826.462166,210.340703 C787.301872,172.685029 733.884228,149.5 675,149.5 Z" id="Combined-Shape-Copy-5" transform="translate(572.000000, 451.000000) rotate(-180.000000) translate(-572.000000, -451.000000) "></path>
        </g>
    </g>
</svg>