<?xml version="1.0" encoding="UTF-8"?>
<svg width="1036px" height="945px" viewBox="0 0 1036 945" version="1.1" xmlns="http://www.w3.org/2000/svg" xmlns:xlink="http://www.w3.org/1999/xlink">
    <!-- Generator: Sketch 64 (93537) - https://sketch.com -->
    <title>bg-orange-cloud</title>
    <desc>Created with Sketch.</desc>
    <g id="Page-1" stroke="none" stroke-width="1" fill="none" fill-rule="evenodd">
        <path d="M261.294006,684.17674 C258.15091,698.329973 256.5,712.984937 256.5,728 C256.5,787.250969 282.20079,840.90169 323.780392,879.73374 C365.29601,918.506036 422.645873,942.5 486,942.5 C533.824986,942.5 578.229657,928.826667 614.9818,905.445059 C652.35962,881.665398 681.821241,847.843892 698.936806,808.144652 C703.914749,808.37955 708.93681,808.5 714,808.5 C773.101554,808.5 826.592346,792.080875 865.317998,765.59399 C904.454567,738.826054 928.5,701.797726 928.5,661 C928.5,630.325583 914.917487,601.796881 891.55084,578.154557 C933.550953,559.858457 969.095473,530.781807 994.107327,494.738244 C1019.03091,458.821888 1033.5,415.988996 1033.5,370 C1033.5,306.606959 1006.00839,249.206334 961.533547,207.659873 C917.122439,166.172953 855.772485,140.5 788,140.5 C771.231734,140.5 754.856421,142.071782 739.040405,145.065517 C724.898928,103.869307 693.830173,68.0884186 651.983601,42.6750651 C610.528983,17.4997449 558.499681,2.5 502,2.5 C438.288146,2.5 380.262969,21.5742822 336.67089,52.8027357 C293.094546,84.0199165 263.941867,127.372256 257.741987,175.994216 C186.689585,180.14705 123.017673,209.729521 77.0486146,255.093557 C30.8281083,300.705732 2.5,362.26763 2.5,430 C2.5,497.753007 30.8453731,559.331786 77.0908703,604.948133 C123.535505,650.760909 188.039447,680.468475 259.975406,684.11967 L261.294005,684.17674 Z" id="bg-orange-cloud" stroke="#000000" stroke-width="5" fill="#F76821"></path>
    </g>
</svg>