<?xml version="1.0" encoding="UTF-8"?>
<svg width="744px" height="76px" viewBox="0 0 744 76" version="1.1" xmlns="http://www.w3.org/2000/svg" xmlns:xlink="http://www.w3.org/1999/xlink">
    <!-- Generator: Sketch 64 (93537) - https://sketch.com -->
    <title>coderheroes-logo</title>
    <desc>Created with Sketch.</desc>
    <defs>
        <polygon id="path-1" points="0.000268131868 0.000536263736 769.972835 0.000536263736 769.972835 122 0.000268131868 122"></polygon>
    </defs>
    <g id="Page-1" stroke="none" stroke-width="1" fill="none" fill-rule="evenodd">
        <g id="coderheroes-logo" transform="translate(-9.000000, -28.000000)">
            <g id="Group-64">
                <g id="Group-3">
                    <mask id="mask-2" fill="white">
                        <use xlink:href="#path-1"></use>
                    </mask>
                    <g id="Clip-2"></g>
                </g>
                <path d="M362.376466,61.6213956 C362.388532,61.6213956 362.400598,61.6213956 362.411323,61.6213956 C362.411323,70.6601209 362.399257,79.6988462 362.420708,88.7375714 C362.42473,90.9912198 363.192927,91.7701429 365.473389,91.800978 C369.571785,91.8559451 373.671521,91.9015275 377.768576,91.8291319 C381.057213,91.7701429 381.656488,91.1239451 381.664532,87.9144066 C381.677938,82.6268462 381.699389,77.3379451 381.574708,72.0530659 C381.53851,70.5086264 382.06807,70.0206264 383.506598,70.0353736 C386.867631,70.0715714 390.230004,70.1144725 393.588356,70.0099011 C395.313785,69.9549341 395.935851,70.450978 395.891609,72.2782967 C395.766927,77.5028462 395.81251,82.7314176 395.858092,87.9586484 C395.887587,91.262033 396.515015,91.8197473 399.792927,91.8304725 C403.423433,91.8425385 407.053938,91.8425385 410.684444,91.8854396 C414.312268,91.9283407 415.001367,91.3572198 415.017455,87.8004505 C415.050971,80.4362088 415.001367,73.071967 415.012092,65.7077253 C415.02818,55.3967143 415.077785,45.0843626 415.092555,34.7733516 C415.097895,31.6053736 414.17284,30.7218791 410.968664,30.7553956 C407.137059,30.7956154 403.306796,30.859967 399.476532,30.9162747 C396.607521,30.9578352 395.938532,31.6067143 395.921103,34.5079011 C395.888927,39.7364725 395.860774,44.9637033 395.900993,50.1922747 C395.913059,51.856033 395.248092,52.4191099 393.5964,52.3654835 C390.303741,52.2582308 387.004378,52.2475055 383.711719,52.340011 C381.975565,52.3882747 381.482202,51.6147143 381.502312,50.0541868 C381.565323,44.9677253 381.549235,39.8812637 381.608224,34.7948022 C381.643081,31.8279231 381.000905,30.9712418 378.091675,30.9095714 C374.1984,30.8277912 370.299763,30.8894615 366.403807,30.9363846 C362.938202,30.9779451 362.399257,31.482033 362.387191,34.8926703 C362.355015,43.8013516 362.376466,52.7113736 362.376466,61.6213956 M350.606818,70.8571978 C350.606818,62.5504725 350.699323,54.2410659 350.561235,45.937022 C350.506268,42.6269341 351.149785,40.0488462 354.158224,38.0526044 C356.987015,36.177022 359.330488,33.5882088 362.066774,31.5530879 C363.166114,30.7366264 364.729323,30.2151099 366.107521,30.1547802 C370.389587,29.9711099 374.682378,30.0528901 378.971147,30.073 C380.940576,30.0823846 382.123037,31.1642967 382.167279,33.1739451 C382.289279,38.6572418 382.313411,44.1445604 382.380444,49.6291978 C382.383125,49.8973297 382.33218,50.211044 382.451499,50.4228681 C382.667345,50.8103187 382.991785,51.1401209 383.270642,51.4927143 C383.540114,51.1012418 384.017389,50.7218352 384.042862,50.3142747 C384.158158,48.5137692 384.414224,46.6596374 384.117938,44.9087363 C383.583015,41.7541648 385.195829,39.900033 387.422664,38.1719231 C389.638774,36.4505165 391.96884,34.8041868 393.876598,32.7784505 C395.93451,30.5918352 398.323565,29.9925604 401.112136,30.0528901 C404.729235,30.131989 408.350356,30.1091978 411.967455,30.2365604 C414.899477,30.3397912 415.74007,31.3238352 415.73873,34.229044 C415.734708,44.3483407 415.717279,54.468978 415.753477,64.5882747 C415.781631,72.5075495 415.847323,80.4281648 415.967982,88.3474396 C416.014905,91.3893956 413.719697,92.7394396 411.83473,94.3737033 C409.412158,96.4731758 406.958752,98.5471758 404.39407,100.468341 C403.431477,101.189615 402.135059,101.813022 400.967345,101.857264 C396.670532,102.022165 392.364334,101.952451 388.062158,101.917593 C385.088576,101.893462 384.108554,100.917462 384.091125,97.8620989 C384.061631,92.7783187 384.163521,87.6945385 384.10051,82.6120989 C384.089785,81.7755275 383.514642,80.9456593 383.200927,80.1131099 C382.889895,80.9577253 382.365697,81.7889341 382.308048,82.6523187 C382.175323,84.6485604 382.231631,86.6608901 382.278554,88.6651758 C382.322796,90.5032198 381.484884,91.8653297 380.121433,92.9780769 C377.063389,95.4743846 374.075059,98.0645385 370.895015,100.397286 C369.732664,101.249945 368.125213,101.858604 366.693389,101.917593 C362.66873,102.083835 358.629323,101.929659 354.59662,101.857264 C351.619015,101.803637 350.707367,100.936231 350.696642,97.9894615 C350.663125,88.9453736 350.684576,79.9012857 350.684576,70.8571978 C350.659103,70.8571978 350.63229,70.8571978 350.606818,70.8571978" id="Fill-4" fill="#3B0F2B"></path>
                <path d="M660.680141,46.8292308 C668.738844,46.8292308 676.309547,46.8359341 683.880251,46.8252088 C686.121833,46.8225275 687.184976,45.9712088 687.218492,43.9722857 C687.277481,40.4879121 687.266756,37.0008571 687.187657,33.5178242 C687.151459,31.8674725 686.151327,30.9062198 684.48891,30.8499121 C682.207108,30.7734945 679.921284,30.7869011 677.638141,30.7949451 C667.150163,30.8338242 656.663525,30.9223077 646.176888,30.9089011 C642.401591,30.9048791 641.70713,31.4304176 641.704401,35.253978 C641.701767,39.3362857 641.813042,43.4185934 641.818404,47.4995604 C641.835833,61.3391868 641.822426,75.1788132 641.835833,89.0184396 C641.838514,91.0254066 642.834624,91.9182857 644.841591,91.9089743 C650.5528,91.8807473 656.264009,91.8713626 661.975218,91.861978 C669.368954,91.8512527 676.76269,91.8391868 684.156426,91.8445495 C686.01324,91.8458901 687.151459,91.0267473 687.187657,89.1310549 C687.252009,85.6466813 687.301613,82.1596264 687.19436,78.6779341 C687.130009,76.620022 686.109767,75.9483516 684.018338,75.9563956 C677.911635,75.9818681 671.804932,76.010022 665.698229,75.9215385 C660.344976,75.8451209 660.399943,75.7794286 660.668075,70.3564615 C660.744492,68.7905714 661.397393,68.5063516 662.799723,68.5251209 C667.567108,68.5894725 672.335833,68.5385275 677.104558,68.5157363 C679.512382,68.505011 680.343591,67.6268791 680.34091,65.2096703 C680.339569,63.3997802 680.386492,61.5898901 680.387833,59.78 C680.394536,53.6236923 679.737613,53.0968132 673.566558,53.4145495 C669.949459,53.5995604 666.314932,53.4494066 662.689789,53.4856044 C661.264668,53.499011 660.603723,52.9077802 660.666734,51.4478022 C660.728404,49.9931868 660.680141,48.5332088 660.680141,46.8292308 M673.124141,75.1587033 C675.719657,75.1587033 678.315174,75.1654066 680.91069,75.1533407 C681.58236,75.1506593 682.254031,75.0594945 682.92436,75.0648571 C687.186316,75.1050769 687.978646,75.9295824 687.94513,80.145956 C687.922338,83.0256923 688.085899,85.9148132 687.886141,88.7811429 C687.807042,89.9260659 687.266756,91.3350989 686.442251,92.0805055 C683.016866,95.1734066 679.549921,98.268989 675.779987,100.91411 C674.372295,101.900835 672.098536,101.920945 670.216251,101.933011 C658.387613,102.009429 646.557635,101.963846 634.728998,101.946418 C630.804888,101.941055 630.063503,101.332396 630.029987,97.4270549 C629.953569,88.5197143 630.005855,79.611033 630.008536,70.7036923 C630.011218,62.9359121 630.221701,55.1600879 629.944185,47.403033 C629.794031,43.2215165 630.38124,39.8564615 634.214185,37.399033 C636.611284,35.8626374 638.643723,33.7510989 640.796822,31.8473626 C642.9888,29.9101099 645.719723,29.8752527 648.359481,29.7881099 C650.957679,29.7023077 653.569284,30.1112088 656.174185,30.0978022 C661.267349,30.0723297 666.359174,29.822967 671.450998,29.8189451 C675.86713,29.8162637 680.284602,29.9918901 684.699393,30.1541099 C686.529393,30.2224835 687.718558,31.0644176 687.808382,33.1022198 C687.957196,36.5021319 688.226668,39.898022 688.3728,43.2992747 C688.458602,45.3089231 687.652866,46.8989451 685.970338,48.1189451 C684.399086,49.2585055 682.873415,50.4945934 681.501921,51.8607253 C681.046097,52.3138681 680.997833,53.3019341 680.995152,54.046 C680.988448,55.2834286 681.251218,56.5221978 681.253899,57.760967 C681.259262,60.3015165 681.129218,62.8420659 681.130558,65.3826154 C681.131899,67.0584396 680.48302,68.2583297 679.138338,69.304044 C676.993284,70.9758462 674.995701,72.8366813 672.935108,74.6184176 C672.998119,74.7980659 673.06113,74.9777143 673.124141,75.1587033" id="Fill-6" fill="#3B0F2B"></path>
                <path d="M226.708712,61.6529011 C226.756976,61.6529011 226.80524,61.6529011 226.852163,61.6529011 C226.852163,70.5642637 226.837415,79.4756264 226.861547,88.386989 C226.868251,91.2318681 227.492998,91.8351648 230.297657,91.8391868 C243.1948,91.8525934 256.093284,91.8566154 268.991767,91.8555187 C271.21458,91.8555187 272.153042,91.1045055 272.214712,88.9245934 C272.308558,85.6453407 272.293811,82.358044 272.16913,79.0801319 C272.071262,76.5127692 271.187767,75.8893626 268.582866,75.9067912 C262.544536,75.9483516 256.503525,75.9644396 250.465196,75.9148352 C248.944888,75.9027692 246.724756,76.1387253 246.085262,75.3034945 C245.287569,74.2604615 245.829196,72.2253407 245.727305,70.6232527 C245.630778,69.1056264 246.176426,68.4567473 247.805327,68.4862418 C252.502998,68.572044 257.202009,68.5224396 261.90102,68.5278022 C264.50324,68.5304835 265.323723,67.7676484 265.346514,65.2177143 C265.371987,62.4036703 265.362602,59.5882857 265.339811,56.7742418 C265.319701,54.298044 264.627921,53.5392308 262.069943,53.5003516 C258.106954,53.440022 254.141284,53.503033 250.176954,53.5097363 C245.595921,53.5177802 245.455152,53.3046154 245.755459,48.6712967 C245.853327,47.1523297 246.393613,46.8627473 247.880404,46.8801758 C254.922888,46.961956 261.968053,46.8868791 269.011877,46.8359341 C271.43847,46.8185055 272.261635,45.9551209 272.266998,43.5312088 C272.275431,40.3846813 272.283086,37.2381538 272.241525,34.092967 C272.21069,31.8151868 271.277591,30.8574408 269.048075,30.8574408 C256.011503,30.8525934 242.976273,30.8914725 229.941042,30.8646593 C227.899218,30.8606374 226.979525,31.8714945 226.801218,33.7323297 C226.699327,34.7968132 226.712734,35.8747033 226.712734,36.9458901 C226.706031,45.1815604 226.708712,53.4172308 226.708712,61.6529011 M257.578734,74.9106813 C258.639196,75.0273187 259.112448,75.1225055 259.58436,75.1238462 C262.604866,75.1318901 265.625371,75.084967 268.644536,75.1238462 C272.06724,75.1667473 273.102229,76.2835165 273.047262,79.6432088 C272.998998,82.6556703 273.142448,85.6815385 272.918558,88.6792527 C272.826053,89.9046154 272.301855,91.4141978 271.433108,92.2092088 C268.227591,95.1465934 264.772712,97.8104835 261.459943,100.633912 C259.249196,102.516198 256.596031,101.916923 254.125196,101.937033 C242.840866,102.030879 231.555196,101.977253 220.269525,101.97189 C216.876316,101.970549 215.035591,101.773473 215.075811,97.2822637 C215.168316,86.7071429 215.057042,76.1306813 215.03291,65.5555604 C215.018163,59.2611648 215.141503,52.9627473 214.95113,46.6737143 C214.837174,42.9413187 215.499459,39.9261758 218.932888,37.7114066 C221.384954,36.1307692 223.534031,34.033978 225.641547,31.9854505 C227.730295,29.9556923 230.278888,30.0991429 232.799327,30.0937802 C244.670866,30.070989 256.541064,30.0978022 268.411262,30.1272967 C272.061877,30.1353407 272.961459,31.0000659 273.02447,34.6024176 C273.076756,37.6162198 273.233613,40.6501319 272.946712,43.6371209 C272.813987,45.009956 271.894295,46.4163077 271.022866,47.575978 C270.284163,48.560022 269.132536,49.2544835 268.108273,50.0025714 C266.215262,51.3874725 264.916163,52.4211209 265.829152,55.5207253 C266.811855,58.8522637 266.231349,62.6892308 266.031591,66.2889011 C265.975284,67.3064615 265.028778,68.4366374 264.205613,69.2155604 C262.240207,71.0790769 260.104536,72.7629451 257.578734,74.9106813" id="Fill-8" fill="#3B0F2B"></path>
                <path d="M454.34811,76.0001011 C454.34811,74.2304308 454.34811,72.8321231 454.34811,71.4338154 C454.346769,68.645244 454.405758,68.5379912 457.292198,68.511178 C461.79011,68.4696176 466.290703,68.5460352 470.788615,68.4883868 C473.199121,68.4575516 473.890901,67.7228703 473.927099,65.3016396 C473.97,62.4219033 473.94989,59.5394857 473.900286,56.6597495 C473.858725,54.1969582 472.866637,53.3644088 470.37167,53.3979253 C466.338967,53.4528923 462.304923,53.505178 458.27356,53.4368044 C454.149692,53.3670901 454.252923,53.3054198 454.349451,49.125244 C454.393692,47.2107824 455.182,46.7187604 456.915473,46.7790901 C460.402527,46.8997495 463.893604,46.9399692 467.382,46.9386286 C470.873077,46.9372879 474.366835,46.8809802 477.856571,46.7764088 C480.091451,46.7093758 480.934725,45.8111341 480.929363,43.690211 C480.922659,40.6777495 480.921319,37.6639473 480.865011,34.6514857 C480.807363,31.5559033 480.161165,30.9150681 476.987824,30.9016615 C464.420484,30.8480352 451.853143,30.8185407 439.285802,30.7930252 C436.300154,30.7863648 435.447495,31.5626066 435.426044,34.6286945 C435.381802,41.0504527 435.448835,47.472211 435.455538,53.8939692 C435.467604,65.4625187 435.456879,77.0310681 435.481011,88.5996176 C435.485033,91.1575956 436.281385,91.9030022 438.931868,91.8989964 C451.771363,91.880211 464.610857,91.8533978 477.450352,91.8064747 C480.108879,91.7957495 480.820769,91.1039692 480.881099,88.4722549 C480.950813,85.4597934 480.968242,82.4459912 480.933385,79.4335297 C480.90389,76.925156 480.07,76.0724967 477.498615,76.0362989 C472.798264,75.9732879 468.096571,76.0054637 463.39622,76.0001011 C460.515143,75.9974198 457.635407,76.0001011 454.34811,76.0001011 M466.794791,75.2037495 C470.261736,75.2037495 473.730022,75.2560352 477.195626,75.1890022 C480.59956,75.1246505 481.590308,75.9960791 481.591648,79.3517495 C481.592989,82.5679912 481.666725,85.7909363 481.49378,88.9977934 C481.438813,90.0207165 480.958857,91.2956835 480.224176,91.9579692 C476.798791,95.0468484 473.270176,98.031156 469.646374,100.88542 C468.780308,101.567815 467.407473,101.892255 466.26389,101.898958 C455.714242,101.956607 445.161912,101.909684 434.610923,101.893596 C432.258066,101.890914 429.902527,101.945881 427.552352,101.873486 C424.58011,101.78098 423.72611,100.916255 423.714044,97.9453538 C423.683209,90.7835516 423.718066,83.6204088 423.708681,76.4572659 C423.696615,67.9628484 423.659077,59.4684308 423.648352,50.9740132 C423.64567,48.2993978 423.574615,45.6153978 423.774374,42.9528484 C423.852132,41.9044527 424.316,40.6120571 425.064088,39.9310022 C428.28167,36.9989802 431.598462,34.1608044 435.039934,31.4915516 C436.058835,30.7019033 437.595231,30.2259692 438.902374,30.2098813 C448.02556,30.093244 457.150088,30.1321231 466.273275,30.1294418 C470.100857,30.1281011 473.92978,30.1629582 477.757363,30.1562549 C480.452088,30.1508923 481.461604,30.9700352 481.544725,33.686211 C481.651978,37.1665626 481.714989,40.6603209 481.507187,44.1326286 C481.440154,45.2520791 480.678659,46.5404527 479.84611,47.3595956 C478.134088,49.0434637 476.12578,50.4230022 474.325275,52.0237495 C473.983407,52.3280791 473.861407,53.1029802 473.944527,53.6110901 C474.136242,54.7801451 474.724791,55.9089802 474.778418,57.0713319 C474.900418,59.7446066 474.769033,62.4272659 474.801209,65.1045626 C474.824,66.9131121 474.180484,68.263156 472.699055,69.3973538 C470.587516,71.0155297 468.632835,72.8388264 466.611121,74.5736396 C466.671451,74.7841231 466.733121,74.9946066 466.794791,75.2037495" id="Fill-10" fill="#3B0F2B"></path>
                <path d="M334.731132,58.4991341 C337.319945,56.5484747 338.521176,54.3564967 338.67133,51.6926066 C338.81478,49.1560791 339.031967,46.5913978 338.825505,44.0722989 C338.131044,35.6181011 333.891879,31.3561451 325.433659,31.0705846 C316.099989,30.7568703 306.750231,30.7179912 297.412538,30.8574198 C290.72533,30.9566286 290.607352,31.5062989 290.707901,38.2176396 C290.876824,49.3920352 290.784319,60.5704527 290.813813,71.7475297 C290.82856,77.5043209 290.866099,83.2611121 290.895593,89.0179033 C290.903637,90.6964088 291.734846,91.7555297 293.424077,91.7863648 C297.989022,91.8681451 302.557989,91.9043429 307.124275,91.8265846 C309.325637,91.7877055 310.020099,90.8251121 310.005352,88.5929143 C309.975857,83.7035297 310.004011,78.8141451 309.954407,73.9247604 C309.942341,72.7248703 310.320407,72.2730681 311.58733,72.2904967 C314.606495,72.3320571 317.628341,72.2435736 320.648846,72.1698374 C324.202934,72.0813538 325.195022,73.0359033 325.209769,76.6489802 C325.212451,77.185244 325.174912,77.7215077 325.177593,78.2577714 C325.193681,81.8078374 325.197703,85.3579033 325.243286,88.9079692 C325.263396,90.5650242 325.888143,91.884233 327.774451,91.8989802 C332.406429,91.9324967 337.041088,91.9097055 341.673066,91.8172 C343.269791,91.7850242 344.350363,90.9524747 344.357066,89.1868264 C344.383879,82.6940132 344.500516,76.1985187 344.357066,69.7083868 C344.319527,67.9749143 343.685396,66.1690462 342.966802,64.5548923 C341.508165,61.2769802 338.605637,59.6159033 334.731132,58.4991341 M337.165769,58.0164967 C338.863044,59.3665407 340.601879,60.5825187 342.138275,62.0143429 C344.095637,63.8389802 344.910758,66.2937275 344.971088,68.889244 C345.123923,75.3646286 345.038121,81.8467165 345.23922,88.3207604 C345.334407,91.3533319 343.151813,92.6323209 341.319132,94.2129582 C338.730319,96.445156 336.098604,98.6357934 333.377066,100.704431 C332.529769,101.347947 331.341945,101.846673 330.29489,101.878848 C325.994055,102.006211 321.687857,101.96331 317.385681,101.913705 C314.469747,101.88153 313.508495,100.994013 313.43878,98.0324967 C313.348956,94.1486066 313.487044,90.2606945 313.436099,86.3768044 C313.422692,85.3364527 313.167967,84.2719692 312.836824,83.2798813 C312.70544,82.8830462 312.068626,82.6537934 311.662407,82.3481231 C311.354055,82.8066286 310.808407,83.2503868 310.778912,83.7263209 C310.670319,85.528167 310.946495,87.3755956 310.650209,89.1345407 C310.447769,90.3371121 309.786824,91.699222 308.892604,92.5062989 C305.814451,95.2814637 302.599549,97.9158593 299.310912,100.441662 C298.316143,101.205837 296.932582,101.799749 295.697835,101.858738 C291.606143,102.054475 287.501044,101.98476 283.401308,101.988782 C280.292319,101.990123 279.213088,101.094563 279.180912,97.9735077 C279.097791,89.8129143 279.15678,81.6523209 279.164824,73.4917275 C279.175549,63.5869363 279.214429,53.6808044 279.190297,43.7760132 C279.186275,41.8065846 279.892802,40.3077275 281.403725,39.0676176 C284.302231,36.6892879 287.215484,34.3203429 289.996011,31.8092879 C291.587374,30.3707604 293.413352,30.0543648 295.384121,30.0570293 C304.707066,30.0704527 314.031352,30.0329143 323.351615,30.1964747 C325.941769,30.2420571 328.593593,30.6496176 331.08722,31.3534637 C336.23267,32.8053978 338.696802,36.8246945 339.310824,41.7355297 C339.77067,45.4089363 339.538736,49.2190901 339.171396,52.9260132 C338.990407,54.7479692 337.805264,56.4707165 337.165769,58.0164967" id="Fill-12" fill="#3B0F2B"></path>
                <path d="M543.770356,58.4717846 C546.758686,54.8399385 547.258752,53.9175648 547.39684,51.2282022 C547.509455,49.0187956 547.596598,46.8013451 547.522862,44.5932791 C547.294949,37.6392791 544.067982,33.1467297 538.094004,31.7752352 C535.494466,31.1786418 532.775609,30.8743121 530.106356,30.8434769 C521.304927,30.7375648 512.500818,30.8340923 503.698048,30.8166637 C500.436224,30.8113011 499.664004,31.4789495 499.480334,34.7434549 C499.442796,35.412444 499.422686,36.0827736 499.422686,36.7531033 C499.421345,48.4114769 499.413301,60.0711912 499.428048,71.7309055 C499.436092,77.2933011 499.426708,82.8556967 499.544686,88.4167516 C499.609037,91.3836308 500.404048,91.9721802 503.395059,91.9265978 C507.293697,91.8689495 511.192334,91.8300703 515.090971,91.8287297 C517.749499,91.8287297 518.68662,90.9948396 518.681257,88.4288176 C518.673213,83.6064659 518.698686,78.7841143 518.58607,73.9631033 C518.551213,72.4696088 519.102224,72.134444 520.464334,72.1773451 C523.48484,72.2725319 526.510708,72.2175648 529.533895,72.2604659 C533.120158,72.311411 533.807916,73.0608396 533.803895,76.7329055 C533.798532,80.6891912 533.747587,84.6481582 533.85484,88.6017626 C533.927235,91.2736967 534.519807,91.8099604 537.134092,91.8434769 C541.437609,91.8971033 545.742466,91.8904 550.047323,91.8542022 C552.081103,91.8367736 553.028949,90.8487077 553.03029,88.8712352 C553.036993,82.6385099 553.189829,76.3990813 552.937785,70.1770813 C552.849301,67.9971692 552.007367,65.7354769 551.048796,63.7298505 C549.67596,60.8541363 546.833763,59.5805099 543.770356,58.4717846 M545.879213,58.4194989 C548.72007,59.5389495 551.346422,61.4668176 552.421631,64.5355868 C553.327916,67.1257407 553.683191,69.9920703 553.789103,72.7551692 C553.988862,77.9730154 553.801169,83.2029275 553.840048,88.4274769 C553.854796,90.3392571 553.082576,91.6933231 551.5864,92.8664 C548.425125,95.3452791 545.241059,97.8201363 542.303675,100.549719 C540.429433,102.291235 538.280356,101.828708 536.227807,101.929257 C532.941851,102.092818 529.639807,101.95607 526.345807,101.887697 C522.97807,101.817982 522.044971,100.902312 522.014136,97.5453011 C521.977938,93.5260044 522.0624,89.505367 522.044971,85.4860703 C522.038268,83.9764879 521.842532,82.5071253 519.39851,82.4950593 C519.39851,83.9604 519.310026,85.3412791 519.417279,86.7060703 C519.634466,89.5040264 518.957433,91.7040484 516.469169,93.4696967 C513.419169,95.6335209 510.733829,98.3027736 507.745499,100.563125 C506.762796,101.307191 505.340356,101.777763 504.097565,101.823345 C500.003191,101.97618 495.898092,101.937301 491.799697,101.856862 C488.651829,101.795191 487.94262,101.214686 487.830004,98.0762022 C487.655719,93.1894989 487.724092,88.2947516 487.724092,83.4026857 C487.721411,70.6744659 487.809895,57.9449055 487.695354,45.2180264 C487.666444,42.0071473 488.751037,39.7856747 491.376048,37.9422681 C493.885763,36.1806418 496.147455,34.054356 498.441323,32.0031473 C499.806114,30.7831473 501.244642,30.1409714 503.134971,30.1554703 C513.33873,30.2307956 523.545169,30.1329275 533.748927,30.2656527 C537.612708,30.3165978 541.578378,30.8957626 544.20607,34.0878725 C545.769279,35.9862462 547.219873,38.3471473 547.670334,40.7000044 C548.328598,44.1387956 548.331279,47.7800264 548.055103,51.2912132 C547.872774,53.5998286 546.707741,55.8306857 545.879213,58.4194989" id="Fill-14" fill="#3B0F2B"></path>
                <path d="M748.605004,57.9223824 C751.162982,59.1893055 751.944587,61.7405802 752.088037,64.0920967 C752.416499,69.4761846 752.425884,74.9045143 752.138982,80.2912835 C751.943246,83.9848 749.786125,86.9409538 746.966719,89.3031956 C743.578873,92.1413714 740.109246,94.8816791 736.716037,97.7131516 C733.255796,100.600932 729.172147,101.791437 724.794895,101.853108 C715.722653,101.981811 706.64773,101.945613 697.572807,101.932207 C693.282697,101.925503 692.628455,101.233723 692.59896,97.0522066 C692.578851,94.173811 692.590916,91.296756 692.51718,88.4197011 C692.478301,86.8913495 692.971664,85.7236352 694.198367,84.7623824 C696.250916,83.1509099 698.208279,81.4201187 700.246081,79.7898769 C700.815862,79.3340527 701.526411,79.0551956 702.172609,78.6945582 C702.006367,78.4425143 701.840125,78.1904703 701.673884,77.9384264 C700.40696,77.2439648 699.074345,76.6460308 697.886521,75.8362725 C694.188982,73.3171736 692.723642,69.5794154 692.588235,65.3080747 C692.458191,61.225767 692.486345,57.1340747 692.616389,53.051767 C692.727664,49.5647121 694.087092,46.4061187 696.671884,44.1269978 C701.081312,40.241767 705.690499,36.5750637 710.338565,32.9740527 C712.91129,30.9804923 716.12351,30.4884703 719.276741,30.2431297 C723.152587,29.9401407 727.048543,29.7564703 730.935114,29.7496494 C734.883356,29.7430637 738.830257,30.0246022 742.77984,30.1573275 C743.986433,30.1975473 745.198389,30.1211297 746.404982,30.1760967 C748.158565,30.2551956 749.259246,31.3424703 749.339686,32.9472396 C749.5314,36.7399648 749.605136,40.5528 749.422807,44.342844 C749.370521,45.4220747 748.461554,46.644756 747.615598,47.4638989 C745.890169,49.1343604 743.928785,50.5594813 742.096103,52.1213495 C741.708653,52.4524923 741.453927,52.9391516 741.409686,52.9954593 C743.884543,54.6980967 746.280301,56.345767 748.6774,57.994778 C748.143818,57.7293275 747.567334,57.5268879 747.084697,57.1903824 C744.430191,55.3375912 741.4794,54.3723165 738.272543,53.9929099 C734.269334,53.5196571 730.278191,52.9324484 726.285708,52.3693714 C724.416829,52.1052615 723.399268,50.9522945 723.560147,49.2925582 C723.735774,47.4880308 724.982587,47.0322066 726.55384,47.026844 C732.739642,47.0053934 738.925444,46.9745582 745.111246,46.963833 C747.827422,46.959811 748.51518,46.3377451 748.582213,43.5277231 C748.651927,40.5769319 748.65729,37.6248 748.654609,34.6740088 C748.651927,31.7433275 747.934675,30.9603824 744.958411,30.9322286 C738.570169,30.8745802 732.180587,30.8531297 725.792345,30.9161407 C722.641796,30.9469758 719.441642,30.8960308 716.352763,31.4148659 C709.795598,32.5168879 704.32973,37.4666022 704.418213,44.4782505 C704.463796,48.0953495 704.278785,51.7151297 704.312301,55.3335692 C704.382015,63.0664923 708.47773,67.1849978 716.273664,68.5122505 C720.845312,69.2911736 725.45718,69.8341407 730.05296,70.4789978 C731.802521,70.7243385 732.450059,71.9362945 732.384367,73.4659868 C732.315993,75.0881846 731.382895,76.0065363 729.62529,75.9984923 C722.239598,75.9636352 714.852565,75.9649758 707.466873,75.9502286 C705.38751,75.9462066 704.359224,76.9020967 704.340455,78.9680527 C704.30962,82.1856352 704.316323,85.4032176 704.325708,88.6208 C704.332411,91.056778 705.160938,91.8424044 707.626411,91.8464264 C711.728829,91.8544703 715.832587,91.9389319 719.933664,91.8772615 C726.378213,91.7820747 732.844213,91.8745802 739.260609,91.367811 C746.498829,90.7953495 751.487422,85.086822 751.696565,77.892844 C751.738125,76.4208 751.801136,74.9474154 751.799796,73.4753714 C751.797114,68.0765363 752.200653,62.5892176 748.605004,57.9223824" id="Fill-16" fill="#3B0F2B"></path>
                <path d="M21.4714637,61.1346022 C21.5438593,61.1346022 21.6175956,61.1346022 21.6899912,61.1346022 C21.6899912,66.6943165 21.5264308,72.2607341 21.7476396,77.8124044 C21.8991341,81.5957451 23.4583209,84.8817011 26.4466505,87.463811 C30.0141451,90.5446462 34.2988923,91.5997451 38.7632879,91.7163824 C46.8260132,91.9282066 54.8981231,91.8075473 62.9675516,91.7941407 C65.1876835,91.7901187 65.9424747,91.1425802 66.0054857,88.9653495 C66.1020132,85.5520308 66.0363209,82.1346901 66.0363209,78.7186901 C66.0363209,76.9275692 65.0978593,75.9488879 63.3415956,75.8577231 C61.3949582,75.7571736 59.4416176,75.7638769 57.4909582,75.7424264 C53.3268703,75.6995253 49.1574198,75.7826462 45.0000352,75.5936132 C42.0787385,75.4595473 40.8212,74.2140747 40.7984088,71.7311736 C40.7367385,65.0305582 40.7166286,58.3286022 40.7796396,51.6279868 C40.8077934,48.6745143 42.2128044,47.3325143 45.1568923,47.2400088 C47.5043868,47.1676132 49.8559033,47.2239209 52.2047385,47.2172176 C55.8339033,47.2064923 59.4644088,47.2842505 63.088211,47.144822 C65.4450901,47.0536571 66.1690462,46.1353055 66.1449143,43.8052396 C66.1127385,40.5916791 66.0510681,37.3794593 65.9759912,34.1685802 C65.9170022,31.6454593 65.2855516,30.9965802 62.6806505,30.9295473 C59.5917714,30.8491077 56.4975297,30.7686681 53.4086505,30.8383824 C47.4319912,30.9724484 41.4043868,30.7793934 35.4961011,31.5087121 C26.9480571,32.5651516 21.8656176,37.6542945 21.5036396,46.8740088 C21.3186286,51.6212835 21.4714637,56.3806242 21.4714637,61.1346022 M39.8988264,102.103811 C35.1394857,101.891987 30.3345626,102.015327 25.6288484,101.398624 C15.1086945,100.021767 10.0356396,91.8692176 9.7608044,82.650844 C9.54227692,75.314756 9.90961758,67.9598989 9.64014505,60.627833 C9.51278242,57.1769758 9.48462857,53.8869978 10.7032879,50.5997011 C11.6243209,48.112778 12.6606505,45.7853934 14.7601231,44.0411956 C18.9175077,40.5849758 22.9394857,36.9571516 27.220211,33.661811 C30.270211,31.3143165 34.0723209,30.4643385 37.8315297,30.3436791 C46.2026066,30.0755473 54.5844088,30.1144264 62.9635297,30.0727632 C65.3177275,30.0608 66.748211,31.1118769 66.8313319,33.2824044 C66.9774637,37.0469758 66.9560132,40.8356791 66.689222,44.5908659 C66.6061011,45.7599209 65.7226066,47.077789 64.8324088,47.9465363 C62.3025846,50.4106681 59.5233978,52.6187341 56.9533538,55.0453275 C55.213178,56.6903165 53.2088923,57.2802066 50.8989363,57.2520527 C48.2806286,57.2212176 45.6609802,57.3150637 43.0466945,57.2252396 C41.8293758,57.1836791 41.4808044,57.7199429 41.5143209,58.7562725 C41.6604527,63.3668 41.7985407,67.9773275 41.9768484,72.5865143 C42.049244,74.4848879 43.4904527,74.8321187 44.9557934,74.8508879 C50.8533538,74.9286462 56.7522549,74.9447341 62.6498154,74.9514374 C65.6086505,74.9554593 66.7535736,75.8483385 66.8594857,78.797789 C66.988189,82.3129978 67.1249363,85.8617231 66.7642989,89.344756 C66.6235297,90.7001626 65.335156,92.1333275 64.2210681,93.1535692 C61.5169582,95.6311077 58.7163209,98.0389319 55.7320132,100.165218 C54.355156,101.14524 52.4862769,101.782053 50.7930242,101.904053 C47.1812879,102.1628 43.5387165,101.983152 39.908211,101.983152 C39.9055297,102.023371 39.9028484,102.063591 39.8988264,102.103811" id="Fill-18" fill="#3B0F2B"></path>
                <path d="M154.96936,61.0516154 C154.98813,61.0516154 155.00824,61.0516154 155.027009,61.0516154 C155.027009,61.7876374 155.02969,62.5223187 155.025668,63.2583407 C154.985448,71.422956 154.938525,79.5889121 154.907524,87.7548681 C154.894284,91.2794615 155.687954,91.931022 159.200481,91.8921429 C165.586042,91.8197473 171.974284,91.9886703 178.357163,91.8385165 C183.975866,91.7057912 189.644174,91.6588681 195.1878,90.8651978 C200.531668,90.0996813 204.730613,87.105989 206.281756,81.6092857 C207.017778,79.0017033 207.40791,76.2198352 207.450811,73.509022 C207.582196,65.154033 207.472262,56.795022 207.450811,48.4373516 C207.438745,43.3991538 206.531119,38.6626044 202.411273,35.2117473 C199.148108,32.4781429 195.230701,31.2085385 191.041141,31.1348022 C180.087954,30.9444286 169.130745,30.8961648 158.176218,30.8505143 C156.007031,30.8411978 155.119514,31.8011099 155.068569,33.9595714 C154.992152,37.1704505 154.980086,40.3826703 154.973382,43.5948901 C154.959976,49.4146923 154.96936,55.2331538 154.96936,61.0516154 M143.209097,70.4362308 C143.209097,62.281 143.209097,54.1271099 143.213119,45.9718791 C143.213119,45.7721209 143.319031,45.5576154 143.272108,45.3766264 C142.438218,42.1375934 144.123426,40.0877253 146.460196,38.1906923 C149.154921,36.0027363 151.629778,33.5466484 154.345954,31.3868462 C155.220064,30.6923846 156.543295,30.2781209 157.678833,30.2379011 C161.893866,30.0850659 166.115602,30.1239451 170.334657,30.1239451 C176.09547,30.1239451 181.864327,29.9979231 187.617097,30.2325385 C190.874899,30.3652637 194.198393,30.7889121 197.335536,31.6482747 C203.916833,33.4528022 207.32613,38.2121429 207.988415,44.7974615 C208.402679,48.9092637 208.328943,53.0773736 208.341009,57.220011 C208.359778,63.3012418 208.259229,69.3811319 208.212305,75.4623626 C208.168064,81.1373736 206.183888,85.8390659 201.582745,89.419967 C198.149316,92.0919011 195.021558,95.157989 191.551932,97.778978 C187.315448,100.979132 182.239712,101.866648 177.075492,101.920275 C167.397273,102.022165 157.717712,101.955132 148.038152,101.900165 C143.848591,101.877374 143.138042,100.921484 143.17558,96.676956 C143.253338,87.9304945 143.198371,79.1826923 143.198371,70.4362308 C143.202393,70.4362308 143.206415,70.4362308 143.209097,70.4362308" id="Fill-20" fill="#3B0F2B"></path>
                <path d="M135.698455,61.0265451 C135.701136,61.0265451 135.703818,61.0265451 135.706499,61.0265451 C135.706499,56.9388747 135.857993,52.8431604 135.656895,48.7662154 C135.509422,45.7966549 135.30162,42.7225231 134.404719,39.9232264 C132.887092,35.1866769 128.968345,32.7064571 124.376587,31.4408747 C114.727862,28.7810066 104.971884,28.952611 95.2869604,31.1285011 C90.735422,32.1500835 86.3487846,34.2857538 84.6662571,38.901644 C83.3966527,42.3846769 83.0628286,46.3302374 82.9636198,50.0867648 C82.7370484,58.6160396 82.8067626,67.1560396 82.9528945,75.6893363 C83.104389,84.5014901 85.7723011,88.8063473 94.0991363,91.235622 C104.247927,94.1944571 114.72518,94.2936659 124.888719,91.113622 C132.470147,88.7419956 135.205092,84.9613363 135.646169,76.6975121 C135.925026,71.4877099 135.698455,66.2510945 135.698455,61.0265451 M136.226675,61.4837099 C136.226675,67.0313582 136.268235,72.5790066 136.214609,78.1253143 C136.162323,83.4396879 133.494411,87.335644 129.404059,90.503622 C126.43718,92.8015121 123.641905,95.316589 120.713905,97.6667648 C117.395774,100.330655 113.556125,101.848281 109.353158,102.424765 C102.063993,103.424897 94.765444,103.689007 87.5111363,102.203556 C82.5949385,101.196721 78.0822791,99.2219297 74.9813341,95.1288967 C71.8455319,90.9876 70.8963451,86.1692703 71.097444,80.975556 C71.3065868,75.5753802 70.9191363,70.1537538 71.0719714,64.7482154 C71.2422352,58.7098857 70.4110264,52.4959297 73.2049604,46.8034901 C73.9007626,45.3864132 75.229356,44.2012703 76.465444,43.1394681 C79.7648066,40.3039736 83.2545429,37.6870066 86.5123451,34.808611 C89.9270044,31.7921275 94.0093121,30.4072264 98.3369604,29.6417099 C105.340565,28.4042813 112.464829,28.4458418 119.437598,29.3293363 C125.530895,30.101556 131.382873,32.246611 134.816301,38.0690945 C135.339158,38.9552703 135.786938,40.0210945 135.837884,41.026589 C136.183774,47.8384791 136.413026,54.6570725 136.679818,61.4743253 C136.528323,61.4770066 136.378169,61.4810286 136.226675,61.4837099" id="Fill-22" fill="#3B0F2B"></path>
                <path d="M569.732492,61.880411 C569.72713,61.880411 569.721767,61.880411 569.715064,61.880411 C569.715064,65.6972681 569.531393,69.5261912 569.770031,73.3283011 C569.985877,76.7737956 570.158822,80.3614 571.258163,83.5789824 C572.817349,88.1412462 576.959987,90.1696637 581.394888,91.3548066 C591.355987,94.017356 601.365349,93.9463011 611.291591,91.2904549 C617.398295,89.6561912 621.351899,85.784367 622.128141,79.2419495 C622.293042,77.8449824 622.480734,76.4399714 622.484756,75.0376418 C622.518273,65.4532681 622.557152,55.8688945 622.490119,46.2858615 C622.436492,38.6012022 618.56869,33.4718396 611.08513,31.4246527 C601.225921,28.7259055 591.254097,28.8613121 581.397569,31.3361692 C573.822844,33.2385648 569.956382,38.2405648 569.759305,45.8032242 C569.619877,51.1591582 569.732492,56.5217956 569.732492,61.880411 M623.207371,61.2181253 C623.208712,66.7724769 623.368251,72.3348725 623.157767,77.8811802 C622.994207,82.2182132 621.500712,86.0819934 617.91847,88.9510044 C614.102954,92.006367 610.460382,95.2762352 606.627437,98.3101473 C603.152448,101.05984 598.930712,102.105554 594.652668,102.643158 C587.772404,103.509224 580.873371,103.62184 574.040031,102.090807 C570.186976,101.226081 566.604734,99.7661033 563.600316,97.1370703 C559.260602,93.3363011 558.099591,88.2498396 558.041943,82.8215099 C557.950778,74.2466527 557.968207,65.6704549 557.99636,57.0955978 C558.008426,53.3176198 558.228295,49.432389 560.5168,46.3113341 C562.181899,44.0389165 564.528053,42.234389 566.687855,40.3547846 C569.519327,37.8919934 572.338734,35.3836198 575.395437,33.2197956 C579.033987,30.6430484 583.366998,29.6067187 587.725481,29.251444 C596.041591,28.5717297 604.37513,28.3009165 612.467349,31.0506088 C615.513327,32.0855978 618.24291,33.5978615 620.267305,36.138411 C622.600053,39.066411 623.092075,42.600389 623.175196,46.1625209 C623.291833,51.1779275 623.20469,56.1986967 623.207371,61.2181253" id="Fill-24" fill="#3B0F2B"></path>
                <path d="M362.376466,61.6213956 C362.376466,52.7113736 362.355015,43.8013516 362.387191,34.8926703 C362.399257,31.482033 362.938202,30.9779451 366.403807,30.9363846 C370.299763,30.8894615 374.1984,30.8277912 378.091675,30.9095714 C381.000905,30.9712418 381.643081,31.8279231 381.608224,34.7948022 C381.549235,39.8812637 381.565323,44.9677253 381.502312,50.0541868 C381.482202,51.6147143 381.975565,52.3882747 383.711719,52.340011 C387.004378,52.2475055 390.303741,52.2582308 393.5964,52.3654835 C395.248092,52.4191099 395.913059,51.856033 395.900993,50.1922747 C395.860774,44.9637033 395.888927,39.7364725 395.921103,34.5079011 C395.938532,31.6067143 396.607521,30.9578352 399.476532,30.9162747 C403.306796,30.859967 407.137059,30.7956154 410.968664,30.7553956 C414.17284,30.7218791 415.097895,31.6053736 415.092555,34.7733516 C415.077785,45.0843626 415.02818,55.3967143 415.012092,65.7077253 C415.001367,73.071967 415.050971,80.4362088 415.017455,87.8004505 C415.001367,91.3572198 414.312268,91.9283407 410.684444,91.8854396 C407.053938,91.8425385 403.423433,91.8425385 399.792927,91.8304725 C396.515015,91.8197473 395.887587,91.262033 395.858092,87.9586484 C395.81251,82.7314176 395.766927,77.5028462 395.891609,72.2782967 C395.935851,70.450978 395.313785,69.9549341 393.588356,70.0099011 C390.230004,70.1144725 386.867631,70.0715714 383.506598,70.0353736 C382.06807,70.0206264 381.53851,70.5086264 381.574708,72.0530659 C381.699389,77.3379451 381.677938,82.6268462 381.664532,87.9144066 C381.656488,91.1239451 381.057213,91.7701429 377.768576,91.8291319 C373.671521,91.9015275 369.571785,91.8559451 365.473389,91.800978 C363.192927,91.7701429 362.42473,90.9912198 362.420708,88.7375714 C362.399257,79.6988462 362.411323,70.6601209 362.411323,61.6213956 C362.400598,61.6213956 362.388532,61.6213956 362.376466,61.6213956" id="Fill-26" fill="#21C5B5"></path>
                <path d="M660.680141,46.8292308 C660.680141,48.5332088 660.728404,49.9931868 660.666734,51.4478022 C660.603723,52.9077802 661.264668,53.499011 662.689789,53.4856044 C666.314932,53.4494066 669.949459,53.5995604 673.566558,53.4145495 C679.737613,53.0968132 680.394536,53.6236923 680.387833,59.78 C680.386492,61.5898901 680.339569,63.3997802 680.34091,65.2096703 C680.343591,67.6268791 679.512382,68.505011 677.104558,68.5157363 C672.335833,68.5385275 667.567108,68.5894725 662.799723,68.5251209 C661.397393,68.5063516 660.744492,68.7905714 660.668075,70.3564615 C660.399943,75.7794286 660.344976,75.8451209 665.698229,75.9215385 C671.804932,76.010022 677.911635,75.9818681 684.018338,75.9563956 C686.109767,75.9483516 687.130009,76.620022 687.19436,78.6779341 C687.301613,82.1596264 687.252009,85.6466813 687.187657,89.1310549 C687.151459,91.0267473 686.01324,91.8458901 684.156426,91.8445495 C676.76269,91.8391868 669.368954,91.8512527 661.975218,91.861978 C656.264009,91.8713626 650.5528,91.8807473 644.841591,91.9089743 C642.834624,91.9182857 641.838514,91.0254066 641.835833,89.0184396 C641.822426,75.1788132 641.835833,61.3391868 641.818404,47.4995604 C641.813042,43.4185934 641.701767,39.3362857 641.704401,35.253978 C641.70713,31.4304176 642.401591,30.9048791 646.176888,30.9089011 C656.663525,30.9223077 667.150163,30.8338242 677.638141,30.7949451 C679.921284,30.7869011 682.207108,30.7734945 684.48891,30.8499121 C686.151327,30.9062198 687.151459,31.8674725 687.187657,33.5178242 C687.266756,37.0008571 687.277481,40.4879121 687.218492,43.9722857 C687.184976,45.9712088 686.121833,46.8225275 683.880251,46.8252088 C676.309547,46.8359341 668.738844,46.8292308 660.680141,46.8292308" id="Fill-28" fill="#21C5B5"></path>
                <path d="M226.708712,61.6529011 C226.708712,53.4172308 226.706031,45.1815604 226.712734,36.9458901 C226.712734,35.8747033 226.699327,34.7968132 226.801218,33.7323297 C226.979525,31.8714945 227.899218,30.8606374 229.941042,30.8646593 C242.976273,30.8914725 256.011503,30.8525934 269.048075,30.8574408 C271.277591,30.8574408 272.21069,31.8151868 272.241525,34.092967 C272.283086,37.2381538 272.275431,40.3846813 272.266998,43.5312088 C272.261635,45.9551209 271.43847,46.8185055 269.011877,46.8359341 C261.968053,46.8868791 254.922888,46.961956 247.880404,46.8801758 C246.393613,46.8627473 245.853327,47.1523297 245.755459,48.6712967 C245.455152,53.3046154 245.595921,53.5177802 250.176954,53.5097363 C254.141284,53.503033 258.106954,53.440022 262.069943,53.5003516 C264.627921,53.5392308 265.319701,54.298044 265.339811,56.7742418 C265.362602,59.5882857 265.371987,62.4036703 265.346514,65.2177143 C265.323723,67.7676484 264.50324,68.5304835 261.90102,68.5278022 C257.202009,68.5224396 252.502998,68.572044 247.805327,68.4862418 C246.176426,68.4567473 245.630778,69.1056264 245.727305,70.6232527 C245.829196,72.2253407 245.287569,74.2604615 246.085262,75.3034945 C246.724756,76.1387253 248.944888,75.9027692 250.465196,75.9148352 C256.503525,75.9644396 262.544536,75.9483516 268.582866,75.9067912 C271.187767,75.8893626 272.071262,76.5127692 272.16913,79.0801319 C272.293811,82.358044 272.308558,85.6453407 272.214712,88.9245934 C272.153042,91.1045055 271.21458,91.8555187 268.991767,91.8555187 C256.093284,91.8566154 243.1948,91.8525934 230.297657,91.8391868 C227.492998,91.8351648 226.868251,91.2318681 226.861547,88.386989 C226.837415,79.4756264 226.852163,70.5642637 226.852163,61.6529011 C226.80524,61.6529011 226.756976,61.6529011 226.708712,61.6529011" id="Fill-30" fill="#21C5B5"></path>
                <path d="M454.34811,76.0001011 C457.635407,76.0001011 460.515143,75.9974198 463.39622,76.0001011 C468.096571,76.0054637 472.798264,75.9732879 477.498615,76.0362989 C480.07,76.0724967 480.90389,76.925156 480.933385,79.4335297 C480.968242,82.4459912 480.950813,85.4597934 480.881099,88.4722549 C480.820769,91.1039692 480.108879,91.7957495 477.450352,91.8064747 C464.610857,91.8533978 451.771363,91.880211 438.931868,91.8989964 C436.281385,91.9030022 435.485033,91.1575956 435.481011,88.5996176 C435.456879,77.0310681 435.467604,65.4625187 435.455538,53.8939692 C435.448835,47.472211 435.381802,41.0504527 435.426044,34.6286945 C435.447495,31.5626066 436.300154,30.7863648 439.285802,30.7930252 C451.853143,30.8185407 464.420484,30.8480352 476.987824,30.9016615 C480.161165,30.9150681 480.807363,31.5559033 480.865011,34.6514857 C480.921319,37.6639473 480.922659,40.6777495 480.929363,43.690211 C480.934725,45.8111341 480.091451,46.7093758 477.856571,46.7764088 C474.366835,46.8809802 470.873077,46.9372879 467.382,46.9386286 C463.893604,46.9399692 460.402527,46.8997495 456.915473,46.7790901 C455.182,46.7187604 454.393692,47.2107824 454.349451,49.125244 C454.252923,53.3054198 454.149692,53.3670901 458.27356,53.4368044 C462.304923,53.505178 466.338967,53.4528923 470.37167,53.3979253 C472.866637,53.3644088 473.858725,54.1969582 473.900286,56.6597495 C473.94989,59.5394857 473.97,62.4219033 473.927099,65.3016396 C473.890901,67.7228703 473.199121,68.4575516 470.788615,68.4883868 C466.290703,68.5460352 461.79011,68.4696176 457.292198,68.511178 C454.405758,68.5379912 454.346769,68.645244 454.34811,71.4338154 C454.34811,72.8321231 454.34811,74.2304308 454.34811,76.0001011" id="Fill-32" fill="#21C5B5"></path>
                <path d="M310.023451,45.975767 C310.023451,49.5084044 309.965802,52.638844 310.086462,55.7612396 C310.105231,56.2170637 310.951187,56.9812396 311.455275,57.0160967 C313.250418,57.1434593 315.06433,57.0563165 316.867516,56.9785582 C318.920066,56.8900747 319.938967,55.5789099 319.981868,53.7167341 C320.040857,51.1815473 321.216615,48.2884044 318.202813,46.4771736 C318.088857,46.4101407 317.956132,46.3404264 317.828769,46.3337231 C315.313692,46.2130637 312.798615,46.1004484 310.023451,45.975767 M334.730462,58.4988659 C338.606308,59.6156352 341.507495,61.2767121 342.967473,64.5559648 C343.686066,66.168778 344.318857,67.9746462 344.357736,69.7081187 C344.499846,76.1982505 344.383209,82.6937451 344.357736,89.1865582 C344.351033,90.9522066 343.269121,91.784756 341.672396,91.8169319 C337.041758,91.910778 332.407099,91.9335692 327.77378,91.8987121 C325.888813,91.8839648 325.264066,90.564756 325.242615,88.9077011 C325.198374,85.3576352 325.194352,81.8075692 325.178264,78.2575033 C325.175582,77.7212396 325.21178,77.1849758 325.21044,76.6487121 C325.195692,73.0356352 324.202264,72.0810857 320.648176,72.1695692 C317.629011,72.2433055 314.607165,72.331789 311.586659,72.2902286 C310.321077,72.2741407 309.94167,72.7246022 309.953736,73.925833 C310.004681,78.8138769 309.975187,83.7046022 310.006022,88.5939868 C310.019429,90.8261846 309.324967,91.7874374 307.123604,91.8263165 C302.558659,91.9054154 297.989692,91.8678769 293.423407,91.7860967 C291.734176,91.7552615 290.902967,90.6974813 290.894923,89.0176352 C290.866769,83.260844 290.82789,77.5040527 290.813143,71.7486022 C290.784989,60.5715253 290.876154,49.391767 290.708571,38.2173714 C290.606681,31.5060308 290.724659,30.9563604 297.411868,30.8571516 C306.750901,30.7190637 316.100659,30.7566022 325.432989,31.0716571 C333.892549,31.3558769 338.130374,35.617833 338.824835,44.0720308 C339.032637,46.5924703 338.81411,49.155811 338.670659,51.6923385 C338.520505,54.3562286 337.319275,56.5482066 334.730462,58.4988659" id="Fill-34" fill="#21C5B5"></path>
                <path d="M518.673481,46.0519165 C518.673481,49.5389714 518.61047,52.6050593 518.740514,55.6631033 C518.760624,56.1390374 519.645459,56.943433 520.160273,56.9675648 C522.161877,57.061411 524.191635,57.0225319 526.175811,56.7704879 C526.88502,56.6793231 527.977657,55.9218505 528.070163,55.3373231 C528.420075,53.1386418 528.641284,50.8715868 528.500514,48.6554769 C528.38924,46.8951912 526.921218,46.1055429 525.201152,46.0639824 C523.133855,46.014378 521.063877,46.0519165 518.673481,46.0519165 M543.770624,58.4717846 C546.83269,59.5805099 549.674888,60.8541363 551.049064,63.7298505 C552.007635,65.7354769 552.849569,67.9971692 552.938053,70.1770813 C553.190097,76.3990813 553.037262,82.6385099 553.030558,88.8712352 C553.027877,90.8487077 552.081371,91.8367736 550.047591,91.8542022 C545.742734,91.8904 541.437877,91.8971033 537.13436,91.8434769 C534.518734,91.8099604 533.927503,91.2736967 533.855108,88.6017626 C533.747855,84.6481582 533.7988,80.6891912 533.802822,76.7329055 C533.806844,73.0608396 533.120426,72.311411 529.534163,72.2604659 C526.510976,72.2175648 523.485108,72.2725319 520.464602,72.1773451 C519.102492,72.134444 518.551481,72.4696088 518.586338,73.9631033 C518.698954,78.7841143 518.672141,83.6064659 518.681525,88.4288176 C518.686888,90.9948396 517.749767,91.8287297 515.09124,91.8287297 C511.192602,91.8300703 507.292624,91.8689495 503.393987,91.9279385 C500.404316,91.9721802 499.609305,91.3836308 499.544954,88.4167516 C499.426976,82.8556967 499.43502,77.2933011 499.428316,71.7309055 C499.413569,60.0711912 499.420273,48.4114769 499.422954,36.7531033 C499.422954,36.0827736 499.443064,35.412444 499.480602,34.7434549 C499.664273,31.4789495 500.435152,30.8113011 503.698316,30.8166637 C512.501086,30.8340923 521.305196,30.7375648 530.106624,30.8434769 C532.775877,30.8743121 535.494734,31.1786418 538.094273,31.7752352 C544.068251,33.1467297 547.295218,37.6392791 547.52313,44.5932791 C547.595525,46.8013451 547.509723,49.0187956 547.397108,51.2282022 C547.25902,53.9175648 546.758954,54.8399385 543.770624,58.4717846" id="Fill-36" fill="#21C5B5"></path>
                <path d="M748.605004,57.9223824 C752.200653,62.5892176 751.797114,68.0765363 751.799796,73.4753714 C751.801136,74.9474154 751.738125,76.4208 751.696565,77.892844 C751.487422,85.086822 746.498829,90.7953495 739.260609,91.367811 C732.844213,91.8745802 726.378213,91.7820747 719.933664,91.8772615 C715.832587,91.9389319 711.728829,91.8544703 707.626411,91.8464264 C705.160938,91.8424044 704.332411,91.056778 704.325708,88.6208 C704.316323,85.4032176 704.30962,82.1856352 704.340455,78.9680527 C704.359224,76.9020967 705.38751,75.9462066 707.466873,75.9502286 C714.852565,75.9649758 722.239598,75.9636352 729.62529,75.9984923 C731.382895,76.0065363 732.315993,75.0881846 732.384367,73.4659868 C732.450059,71.9362945 731.802521,70.7243385 730.05296,70.4789978 C725.45718,69.8341407 720.845312,69.2911736 716.273664,68.5122505 C708.47773,67.1849978 704.382015,63.0664923 704.312301,55.3335692 C704.278785,51.7151297 704.463796,48.0953495 704.418213,44.4782505 C704.32973,37.4666022 709.795598,32.5168879 716.352763,31.4148659 C719.441642,30.8960308 722.641796,30.9469758 725.792345,30.9161407 C732.180587,30.8531297 738.570169,30.8745802 744.958411,30.9322286 C747.934675,30.9603824 748.651927,31.7433275 748.654609,34.6740088 C748.65729,37.6248 748.651927,40.5769319 748.582213,43.5277231 C748.51518,46.3377451 747.827422,46.959811 745.111246,46.963833 C738.925444,46.9745582 732.739642,47.0053934 726.55384,47.026844 C724.982587,47.0322066 723.735774,47.4880308 723.560147,49.2925582 C723.399268,50.9522945 724.416829,52.1052615 726.285708,52.3693714 C730.278191,52.9324484 734.269334,53.5196571 738.272543,53.9929099 C741.4794,54.3723165 744.430191,55.3375912 747.084697,57.1903824 C747.567334,57.5268879 748.143818,57.7293275 748.6774,57.994778 C748.6774,57.994778 748.605004,57.9223824 748.605004,57.9223824" id="Fill-38" fill="#21C5B5"></path>
                <path d="M21.4714637,61.1346022 C21.4714637,56.3806242 21.3186286,51.6212835 21.5036396,46.8740088 C21.8656176,37.6542945 26.9480571,32.5651516 35.4961011,31.5087121 C41.4043868,30.7793934 47.4319912,30.9724484 53.4086505,30.8383824 C56.4975297,30.7686681 59.5917714,30.8491077 62.6806505,30.9295473 C65.2855516,30.9965802 65.9170022,31.6454593 65.9759912,34.1685802 C66.0510681,37.3794593 66.1127385,40.5916791 66.1449143,43.8052396 C66.1690462,46.1353055 65.4450901,47.0536571 63.088211,47.144822 C59.4644088,47.2842505 55.8339033,47.2064923 52.2047385,47.2172176 C49.8559033,47.2239209 47.5043868,47.1676132 45.1568923,47.2400088 C42.2128044,47.3325143 40.8077934,48.6745143 40.7796396,51.6279868 C40.7166286,58.3286022 40.7367385,65.0305582 40.7984088,71.7311736 C40.8212,74.2140747 42.0787385,75.4595473 45.0000352,75.5936132 C49.1574198,75.7826462 53.3268703,75.6995253 57.4909582,75.7424264 C59.4416176,75.7638769 61.3949582,75.7571736 63.3415956,75.8577231 C65.0978593,75.9488879 66.0363209,76.9275692 66.0363209,78.7186901 C66.0363209,82.1346901 66.1020132,85.5520308 66.0054857,88.9653495 C65.9424747,91.1425802 65.1876835,91.7901187 62.9675516,91.7941407 C54.8981231,91.8075473 46.8260132,91.9282066 38.7632879,91.7163824 C34.2988923,91.5997451 30.0141451,90.5446462 26.4466505,87.463811 C23.4583209,84.8817011 21.8991341,81.5957451 21.7476396,77.8124044 C21.5264308,72.2607341 21.6899912,66.6943165 21.6899912,61.1346022 C21.6175956,61.1346022 21.5438593,61.1346022 21.4714637,61.1346022" id="Fill-40" fill="#21C5B5"></path>
                <path d="M174.203666,61.5081099 C174.178193,61.5081099 174.152721,61.5081099 174.127248,61.5081099 C174.127248,65.6587912 174.120545,69.8081319 174.132611,73.9574725 C174.135292,74.8905714 174.02938,75.9899121 175.439754,75.9792647 C178.72571,75.951033 182.015688,75.9724835 185.292259,75.7673626 C187.246941,75.6453626 188.240369,74.2953187 188.292655,72.3567253 C188.3436,70.4824835 188.326171,68.6069011 188.327512,66.7313187 C188.334215,61.6461978 188.395886,56.5610769 188.316787,51.4772967 C188.264501,48.0157143 187.259007,47.0987033 183.808149,47.0410549 C181.258215,46.9968132 178.7056,47.033011 176.154325,46.9927912 C174.845842,46.9726813 174.168809,47.4204615 174.186237,48.854967 C174.235842,53.0726813 174.203666,57.2903956 174.203666,61.5081099 M154.969226,61.0522857 C154.969226,55.2324835 154.959842,49.414022 154.973248,43.5955604 C154.981292,40.3833407 154.992018,37.1697802 155.068435,33.9589011 C155.11938,31.8004396 156.006897,30.8418681 158.176084,30.8511845 C169.130611,30.8954945 180.08782,30.9437582 191.041007,31.1354725 C195.230567,31.2078681 199.147974,32.4788132 202.411138,35.2124176 C206.530985,38.6619341 207.438611,43.3984835 207.450677,48.438022 C207.472127,56.7956923 207.582062,65.1533626 207.450677,73.5083516 C207.407776,76.2191648 207.017644,79.001033 206.281622,81.6086154 C204.730479,87.1066593 200.531534,90.1003516 195.189007,90.8645275 C189.64404,91.6581978 183.977073,91.7064615 178.357029,91.8378462 C171.974149,91.9893407 165.585908,91.8190769 159.200347,91.8914725 C155.68782,91.9316923 154.894149,91.2801319 154.90739,87.7541978 C154.938391,79.5895824 154.986655,71.4236264 155.026875,63.2576703 C155.029556,62.522989 155.026875,61.786967 155.026875,61.0522857 C155.008105,61.0522857 154.987996,61.0522857 154.969226,61.0522857" id="Fill-42" fill="#21C5B5"></path>
                <path d="M116.480237,61.4154703 C116.480237,57.8761297 116.481578,54.336789 116.480237,50.7961077 C116.477556,47.9901077 115.46804,46.6400637 112.680809,46.3478 C110.495534,46.1198879 108.260655,46.1748549 106.061974,46.3169648 C103.536171,46.4818659 102.243776,48.0182615 102.23171,50.5440637 C102.2116,54.9601956 102.180765,59.3749868 102.196853,63.789778 C102.207578,66.8665912 102.270589,69.9434044 102.342985,73.0188769 C102.391248,75.084833 103.583095,76.3034923 105.544479,76.4925253 C107.798127,76.7110527 110.096018,76.8142835 112.346985,76.6319538 C115.316545,76.3892945 116.368963,75.2148769 116.456105,72.2412945 C116.560677,68.6362615 116.481578,65.0245253 116.480237,61.4154703 M135.698589,61.0266791 C135.698589,66.2512286 135.92516,71.487844 135.646303,76.6976462 C135.205226,84.9614703 132.470281,88.7421297 124.888853,91.113756 C114.725314,94.2938 104.248062,94.1945912 94.0992703,91.235756 C85.7724352,88.8064813 83.1045231,84.5016242 82.9530286,75.6881297 C82.805556,67.1561736 82.7371824,58.6161736 82.9637538,50.0868989 C83.0629626,46.3303714 83.3967868,42.384811 84.6663912,38.901778 C86.347578,34.2845473 90.735556,32.1502176 95.2870945,31.1272945 C104.970677,28.9527451 114.727996,28.7811407 124.37538,31.4410088 C128.968479,32.7065912 132.887226,35.186811 134.404853,39.9233604 C135.301754,42.7226571 135.509556,45.796789 135.657029,48.7650088 C135.858127,52.8432945 135.706633,56.9390088 135.706633,61.0266791 C135.703952,61.0266791 135.70127,61.0266791 135.698589,61.0266791" id="Fill-44" fill="#21C5B5"></path>
                <path d="M589.025116,61.5044901 C589.025116,65.1859407 589.006347,68.8673912 589.03182,72.5488418 C589.047908,74.9378967 590.00782,76.2007978 592.390171,76.5533912 C594.234919,76.8255451 596.138655,76.888556 598.003512,76.7947099 C602.378084,76.5721604 603.335314,75.4446659 603.217336,71.0526659 C603.20393,70.5164022 603.229402,69.9801385 603.230743,69.4452154 C603.241468,63.291589 603.2656,57.1379626 603.253534,50.9856769 C603.246831,47.9128857 602.193073,46.6111055 599.19804,46.3201824 C597.211182,46.1271275 595.17204,46.1110396 593.189204,46.3201824 C589.997095,46.6593692 589.104215,47.6916769 589.039864,50.8663582 C588.967468,54.4110615 589.022435,57.9584462 589.025116,61.5044901 M569.733029,61.8798747 C569.733029,56.5212593 569.620413,51.158622 569.759842,45.8026879 C569.956919,38.2400286 573.82204,33.2380286 581.398105,31.335633 C591.254633,28.8607758 601.226457,28.7267099 611.085666,31.4241165 C618.569226,33.4713033 622.435688,38.6006659 622.489314,46.2853253 C622.556347,55.8696989 622.517468,65.4540725 622.485292,75.0384462 C622.47993,76.4394352 622.293578,77.8444462 622.127336,79.2414132 C621.352435,85.7838308 617.398831,89.6556549 611.290787,91.2899187 C601.365886,93.9457648 591.355182,94.0181604 581.395424,91.355611 C576.959182,90.1691275 572.817886,88.1407099 571.258699,83.5784462 C570.159358,80.3622044 569.986413,76.7732593 569.770567,73.3291055 C569.53193,69.5269956 569.7156,65.6980725 569.7156,61.8812154 C569.720963,61.8812154 569.726325,61.8798747 569.733029,61.8798747" id="Fill-46" fill="#21C5B5"></path>
                <path d="M310.023451,45.975767 C312.798615,46.1004484 315.313692,46.2130637 317.828769,46.3337231 C317.956132,46.3404264 318.088857,46.4101407 318.202813,46.4771736 C321.216615,48.2884044 320.040857,51.1815473 319.981868,53.7167341 C319.938967,55.5789099 318.920066,56.8900747 316.867516,56.9785582 C315.06433,57.0563165 313.250418,57.1434593 311.455275,57.0160967 C310.951187,56.9812396 310.105231,56.2170637 310.086462,55.7612396 C309.965802,52.638844 310.023451,49.5084044 310.023451,45.975767" id="Fill-48" fill="#3B0F2B"></path>
                <path d="M518.673481,46.0519165 C521.063877,46.0519165 523.133855,46.014378 525.201152,46.0639824 C526.921218,46.1055429 528.38924,46.8951912 528.500514,48.6554769 C528.641284,50.8715868 528.420075,53.1386418 528.070163,55.3373231 C527.977657,55.9218505 526.88502,56.6793231 526.175811,56.7704879 C524.191635,57.0225319 522.161877,57.061411 520.160273,56.9675648 C519.645459,56.943433 518.760624,56.1390374 518.740514,55.6631033 C518.61047,52.6050593 518.673481,49.5389714 518.673481,46.0519165" id="Fill-50" fill="#000000"></path>
                <path d="M175.301264,75.0178 C175.549286,75.0486352 175.797308,75.0794703 176.04533,75.1116462 C176.219615,74.6102396 176.544055,74.1115143 176.546736,73.6101077 C176.566846,69.0089648 176.566846,64.407822 176.474341,59.8080198 C176.459593,59.0894264 175.94344,58.3802176 175.65922,57.6669868 C175.433989,57.7326791 175.208758,57.7997121 174.984868,57.8654044 C175.094802,63.5819758 174.60278,69.3173165 175.301264,75.0178 M174.203264,61.5079758 C174.203264,57.2902615 174.23544,53.0725473 174.185835,48.854833 C174.168407,47.4203275 174.84544,46.9725473 176.153923,46.9926571 C178.705198,47.0328769 181.257813,46.9966791 183.809088,47.0409209 C187.258604,47.0985692 188.264099,48.0155802 188.317725,51.4771626 C188.395484,56.5609429 188.333813,61.6460637 188.328451,66.7311846 C188.325769,68.606767 188.343198,70.4823495 188.293593,72.3565912 C188.241308,74.2951846 187.246538,75.6452286 185.291857,75.7672286 C182.016626,75.9723495 178.725308,75.9508989 175.439352,75.9791307 C174.030319,75.989778 174.136231,74.891778 174.133549,73.9573385 C174.121484,69.8079978 174.128187,65.6586571 174.128187,61.5079758 C174.153659,61.5079758 174.177791,61.5079758 174.203264,61.5079758" id="Fill-52" fill="#3B0F2B"></path>
                <path d="M590.451578,56.6698044 C590.017204,57.3535407 589.828171,57.5130791 589.826831,57.6739582 C589.795996,62.8287934 589.74371,67.9836286 589.816105,73.1371231 C589.82549,73.7685736 590.511908,74.3906396 590.88327,75.0167275 C591.092413,74.9215407 591.300215,74.8263538 591.509358,74.7298264 C591.509358,69.5213648 591.542875,64.3129033 591.469138,59.1044418 C591.458413,58.4046176 590.90338,57.710156 590.451578,56.6698044 M589.023776,61.504222 C589.022435,57.958178 588.967468,54.4107934 589.039864,50.8660901 C589.104215,47.6914088 589.997095,46.6591011 593.189204,46.3212549 C595.17204,46.1107714 597.211182,46.1268593 599.19804,46.3199143 C602.193073,46.6108374 603.246831,47.9126176 603.253534,50.9854088 C603.2656,57.1390352 603.241468,63.2913209 603.230743,69.4449473 C603.229402,69.981211 603.20393,70.5174747 603.217336,71.0523978 C603.335314,75.4443978 602.378084,76.5718923 598.003512,76.7944418 C596.138655,76.8896286 594.234919,76.8252769 592.390171,76.5531231 C590.00782,76.2018703 589.047908,74.9376286 589.03182,72.5485736 C589.006347,68.8671231 589.025116,65.1856725 589.023776,61.504222" id="Fill-56" fill="#3B0F2B"></path>
                <path d="M103.449042,56.6698044 C103.014669,57.3535407 102.825636,57.5130791 102.824295,57.6739582 C102.79346,62.8287934 102.741174,67.9836286 102.81357,73.1371231 C102.822954,73.7685736 103.509372,74.3906396 103.880734,75.0167275 C104.089877,74.9215407 104.29768,74.8263538 104.506822,74.7298264 C104.506822,69.5213648 104.540339,64.3129033 104.466603,59.1044418 C104.455877,58.4046176 103.900844,57.710156 103.449042,56.6698044 M102.02124,61.504222 C102.019899,57.958178 101.964932,54.4107934 102.037328,50.8660901 C102.10168,47.6914088 102.994559,46.6591011 106.186669,46.3212549 C108.169504,46.1107714 110.208647,46.1268593 112.195504,46.3199143 C115.190537,46.6108374 116.244295,47.9126176 116.250998,50.9854088 C116.263064,57.1390352 116.238932,63.2913209 116.228207,69.4449473 C116.226866,69.981211 116.201394,70.5174747 116.2148,71.0523978 C116.332778,75.4443978 115.375548,76.5718923 111.000976,76.7944418 C109.136119,76.8896286 107.232383,76.8252769 105.387636,76.5531231 C103.005284,76.2018703 102.045372,74.9376286 102.029284,72.5485736 C102.003811,68.8671231 102.022581,65.1856725 102.02124,61.504222" id="Fill-56-Copy" fill="#3B0F2B"></path>
            </g>
        </g>
    </g>
</svg>