<?xml version="1.0" encoding="UTF-8"?>
<svg width="521px" height="76px" viewBox="0 0 521 76" version="1.1" xmlns="http://www.w3.org/2000/svg" xmlns:xlink="http://www.w3.org/1999/xlink">
    <!-- Generator: Sketch 64 (93537) - https://sketch.com -->
    <title>Group</title>
    <desc>Created with Sketch.</desc>
    <g id="Page-1" stroke="none" stroke-width="1" fill="none" fill-rule="evenodd">
        <g id="Group">
            <path d="M163.521,8.5193 C164.624,8.5953 165.831,8.0813 166.814,9.0003 C171.597,9.6253 176.455,14.2003 178.217,18.5083 C178.955,20.3143 179.533,22.2003 179.515,24.2253 C179.469,29.1403 179.5,34.0553 179.5,38.9703 C179.5,43.6353 179.497,48.3013 179.501,52.9663 C179.504,56.7003 178.076,59.8653 175.626,62.6023 C175.027,63.2713 174.611,64.0883 173.74,64.5563 C172.908,65.0033 172.221,65.7153 171.455,66.2913 C169.507,67.7533 167.272,68.3883 164.873,68.4923 C163.875,68.5363 162.863,68.4053 161.876,68.5183 C159.094,68.8343 156.772,67.5673 154.565,66.2533 C150.796,64.0093 148.476,60.5133 147.198,56.3853 C146.81,55.1323 146.464,53.8183 146.472,52.4213 C146.526,43.2573 146.383,34.0913 146.547,24.9313 C146.635,19.9873 148.63,15.6903 152.405,12.3993 C153.566,11.3873 155.056,10.7603 156.345,9.8843 C157.399,9.1683 158.677,9.0933 159.816,8.5973 C160.866,8.1403 162.277,8.4343 163.521,8.5193 Z M511.927,10.5268 C516.089,13.0218 519.117,16.4018 520.077,21.4178 C520.306,22.6158 520.481,23.7768 520.493,24.9738 C520.517,27.3888 520.5,29.8048 520.5,32.4528 L510.5,32.4528 C510.5,31.7038 510.415,30.9618 510.516,30.2458 C510.852,27.8548 510.113,25.5518 509.927,23.2098 C509.774,21.2738 508.292,19.7768 506.574,19.0518 C502.516,17.3368 499.123,19.6768 498.109,23.4178 C497.247,26.5958 498.255,29.7028 501.108,31.8378 C501.724,32.2988 502.445,32.6198 503.122,32.9998 C505.488,34.3248 507.821,35.7158 510.233,36.9508 C512.125,37.9188 514.003,38.9738 515.528,40.3838 C517.308,42.0298 518.921,43.9388 519.65,46.3888 C520.03,47.6688 520.558,48.9178 520.494,50.2838 C520.398,52.3018 520.634,54.3038 520.066,56.3418 C519.531,58.2618 518.561,59.9098 517.624,61.5828 C516.303,63.9398 514.14,65.5658 511.844,66.7968 C510.178,67.6888 508.335,68.5198 506.311,68.5018 C505.145,68.4918 503.97,68.4098 502.815,68.5178 C500.043,68.7788 497.733,67.5418 495.516,66.2198 C491.736,63.9658 489.469,60.4368 488.169,56.3408 C487.75,55.0218 487.336,53.6058 487.471,52.1118 C487.604,50.6368 487.5,49.1408 487.5,47.5778 L498,47.5778 C498,49.2278 497.875,50.9588 498.026,52.6668 C498.36,56.4548 502.184,59.8008 506.652,57.9998 C508.01,56.5678 509.843,55.5658 510.078,53.2048 C510.177,52.2138 510.737,51.3218 510.012,50.3548 C509.787,50.0558 509.78,49.5828 509.537,49.3118 C508.135,47.7468 506.566,46.4188 504.639,45.4758 C501.85,44.1098 499.253,42.3768 496.536,40.8828 C494.707,39.8768 493.198,38.6008 491.884,37.0898 C489.682,34.5588 488.194,31.6628 487.983,28.2158 C487.931,27.3618 487.613,26.5268 487.516,25.6718 C487.423,24.8578 488.287,19.7688 488.622,19.1428 C489.854,16.8418 490.889,14.3558 493.048,12.7448 C495.29,11.0718 497.527,9.5208 500.464,8.9018 C504.294,8.0948 508.7,8.5928 511.927,10.5268 Z M124.102,8.5123 C125.788,8.5593 127.444,8.4813 129.162,8.9173 C131.528,9.5193 133.501,10.6953 135.327,12.1293 C138.084,14.2953 139.736,17.2973 140.783,20.5863 C141.157,21.7633 141.577,22.9793 141.518,24.2903 C141.444,25.9483 141.5,27.6123 141.5,29.4393 L131,29.4393 C131,27.8173 130.901,26.2443 131.022,24.6883 C131.221,22.1363 129.813,20.7133 127.848,19.4743 C126.243,18.4623 124.758,18.1913 122.941,18.9593 C121.084,19.7443 119.136,21.9563 119.002,23.9403 C118.986,24.1883 119,24.4393 119,24.6893 C119,33.9313 118.992,43.1723 119.004,52.4143 C119.009,56.0043 122.712,58.8243 125.35,58.4893 C127.339,58.2373 128.951,57.2633 129.981,55.5313 C130.621,54.4553 131.176,53.3413 131.032,51.9573 C130.887,50.5603 131,49.1363 131,47.6123 L141.5,47.6123 C141.5,49.6003 141.752,51.6253 141.425,53.5513 C141.132,55.2793 140.958,57.0673 140.099,58.7343 C139.214,60.4533 138.177,61.9783 136.887,63.4033 C135.458,64.9803 133.825,66.3333 131.948,67.1973 C130.653,67.7923 129.283,68.5153 127.745,68.5023 C126.496,68.4913 125.243,68.4323 123.999,68.5133 C120.934,68.7133 118.152,67.7043 115.846,65.9303 C113.695,64.2763 111.68,62.3413 110.445,59.7493 C109.765,58.3233 109.319,56.8963 108.923,55.3703 C108.331,53.0853 108.533,50.8293 108.519,48.5643 C108.47,40.5713 108.508,32.5783 108.494,24.5853 C108.491,22.4903 109.251,20.6173 109.977,18.7043 C110.873,16.3443 112.16,14.3083 114.082,12.6573 C116.974,10.1723 120.158,8.4023 124.102,8.5123 Z M437.074,9.074 C438.969,9.902 440.983,10.636 442.534,12.228 C444.394,14.138 446.198,16.046 447.278,18.526 C447.938,20.043 448.508,21.575 448.504,23.268 C448.493,28.433 448.5,33.598 448.5,38.763 C448.5,43.512 448.448,48.261 448.525,53.008 C448.557,54.974 448.021,56.705 447.321,58.517 C446.528,60.572 445.309,62.378 443.827,63.771 C441.809,65.666 439.55,67.418 436.631,68.039 C434.348,68.525 430.742,68.561 428.273,68.054 C421.817,66.728 418.117,62.003 416.15,56.36 C415.74,55.184 415.535,53.877 415.528,52.628 C415.476,43.548 415.457,34.467 415.532,25.388 C415.55,23.268 415.857,21.086 416.686,19.131 C417.67,16.811 418.823,14.48 420.894,12.889 C423.183,11.131 425.423,9.353 428.516,8.942 C431.717,8.517 434.797,8.078 437.074,9.074 Z M206.6881,9.62 C208.5071,9.95 210.2801,11.064 211.8431,12.163 C214.4491,13.996 216.4331,16.449 217.6611,19.428 C218.4111,21.245 219.0061,23.112 219.0041,25.121 C218.9951,33.869 219.0691,42.617 218.9671,51.363 C218.9241,55.086 217.5851,58.448 215.0071,61.192 C214.3371,61.905 213.7371,62.69 213.0111,63.379 C211.4061,64.905 209.4101,65.606 207.6181,66.717 C206.8101,67.218 205.7231,66.472 205.1821,67.5 C203.5021,67.667 201.8231,67.953 200.1411,67.977 C195.4871,68.043 190.8311,68 186.0881,68 L186.0881,9.584 C191.1771,9.665 196.1671,9.152 201.1691,9.036 C203.0101,8.993 204.9051,9.298 206.6881,9.62 Z M368.9516,9.5867 L368.9516,19.4327 L351.6156,19.4327 L351.6156,32.4547 L368.8956,32.4547 L368.8956,42.9777 L351.5936,42.9777 L351.5936,57.3347 C351.5546,57.2917 351.6006,57.3637 351.6656,57.4097 C351.7266,57.4537 351.8056,57.4967 351.8776,57.4967 C357.5296,57.5007 363.1826,57.4997 368.9176,57.4997 L368.9176,67.9997 L343.6006,67.9997 C343.1836,67.9997 342.7656,68.0217 342.3506,67.9957 C341.4666,67.9397 341.0156,67.5377 341.0096,66.6627 C340.9856,63.2467 340.6036,59.7717 341.1106,56.4327 C341.6246,53.0527 341.4456,49.7217 341.4686,46.3767 C341.5486,34.5487 341.4996,22.7197 341.4996,10.8907 L341.4996,9.5867 L368.9516,9.5867 Z M396.858,9.568 C398.494,9.608 400.312,10.187 401.683,11.078 C403.473,12.241 405.407,13.311 406.813,15.038 C407.675,16.096 410.493,20.574 410.437,21.755 C410.358,23.414 411.211,24.923 410.983,26.543 C410.828,27.641 410.51,28.696 410.436,29.831 C410.367,30.862 409.878,31.928 409.348,32.849 C408.805,33.79 408.282,34.762 407.695,35.684 C407.064,36.676 406.176,37.354 405.528,38.265 C406.413,39.714 407.661,40.956 408.327,42.577 C409.223,44.76 410.016,46.959 410.008,49.377 C409.985,55.527 410,61.677 410,68 C406.87,68 403.812,67.998 400.755,68.002 C399.954,68.003 399.595,67.524 399.511,66.816 C399.453,66.324 399.5,65.819 399.5,65.319 C399.5,59.991 399.507,54.663 399.498,49.335 C399.492,46.06 396.432,43.014 393.149,43.001 C391.16,42.994 389.171,43 387,43 L387,64.969 C387,65.469 387.015,65.969 386.997,66.468 C386.959,67.552 386.605,67.981 385.595,67.99 C382.612,68.017 379.629,68 376.573,68 L376.573,9.5 C383.397,9.5 390.131,9.405 396.858,9.568 Z M280.8446,9.536 C283.0466,9.569 285.0226,10.649 286.9306,11.695 C289.2586,12.971 291.0416,14.805 292.5276,17.021 C294.2176,19.541 295.0066,22.257 295.0006,25.249 C294.9986,25.748 294.9676,26.251 295.0056,26.747 C295.2556,30.074 293.9906,32.915 292.1696,35.567 C291.4946,36.55 290.7316,37.473 289.8766,38.596 C292.1056,40.595 292.7376,43.353 293.9996,45.755 C293.6636,47.244 294.5126,48.59 294.5076,50.046 C294.4886,55.375 294.5066,60.705 294.4966,66.035 C294.4926,67.764 294.2616,67.989 292.5276,67.997 C289.7796,68.009 287.0306,68 284.1046,68 C284.0706,67.388 284.0056,66.763 284.0046,66.137 C283.9966,60.891 283.9656,55.644 284.0136,50.398 C284.0406,47.45 282.5156,45.358 280.3586,43.693 C279.6846,43.173 278.5816,43.069 277.6636,43.029 C275.5096,42.938 273.3496,43 271.0216,43 L271.0216,67.95 L261.0886,67.95 L261.0886,9.5 C267.7146,9.5 274.2806,9.436 280.8446,9.536 Z M334.4522,9.588 L334.4522,68 C331.3442,68 328.2822,68.011 325.2202,67.992 C324.4662,67.987 324.0462,67.534 324.0052,66.781 C323.9782,66.282 324.0002,65.781 324.0002,65.281 L324.0002,43.049 L311.5862,43.049 L311.5862,67.875 L301.5732,67.875 L301.5732,9.614 L311.4612,9.614 L311.4612,32.399 L323.9872,32.399 L323.9872,9.588 L334.4522,9.588 Z M482.8784,9.579 L482.8784,19.442 L465.6114,19.442 L465.6114,32.5 C470.4374,32.5 475.2524,32.537 480.0654,32.487 C483.1624,32.454 483.0564,32.582 483.0064,35.502 C482.9734,37.417 483.0124,39.333 482.9954,41.248 C482.9834,42.678 482.7014,42.989 481.3144,42.994 C476.7334,43.01 472.1524,43 467.5714,43 L465.5624,43 L465.5624,57.47 L483.0004,57.47 C483.0004,60.542 483.0154,63.443 482.9934,66.343 C482.9824,67.716 482.6804,67.993 481.2184,67.995 C474.5564,68.006 467.8934,68 461.2304,68 L455.1194,68 L455.1194,9.579 L482.8784,9.579 Z M253.4153,9.5959 C253.6233,12.7729 253.4203,16.0569 253.5243,19.4259 L236.1183,19.4259 L236.1183,32.4559 L253.3973,32.4559 L253.3973,42.9849 L236.0883,42.9849 L236.0883,57.5149 L253.4263,57.5149 L253.4263,67.8899 L225.5583,67.8899 L225.5583,9.5959 L253.4153,9.5959 Z M161.344,18.9273 C158.695,20.0513 157.007,21.9563 157.002,24.7683 C156.994,29.3453 157,33.9233 157,38.5003 C157,42.9943 157.045,47.4893 156.98,51.9823 C156.95,54.0773 157.801,55.7133 159.302,57.0053 C160.172,57.7533 161.231,58.2853 162.415,58.5113 C163.678,58.7523 164.992,58.3893 165.843,57.7823 C168.051,56.2053 169.528,54.0533 169.514099,51.1083 C169.474,43.0353 169.529,34.9623 169.473,26.8893 C169.463,25.4733 169.284,23.9993 168.847,22.6613 C168.331,21.0803 167.026,19.8063 165.653,19.1013 C164.459,18.4873 162.956,18.2433 161.344,18.9273 Z M430.454,18.938 C427.629,20.098 426.006,21.903 426.002,24.917 C425.995,29.33 426,33.743 426,38.156 C426,42.569 426.075,46.984 425.95,51.394 C425.917,52.58 426.253,53.638 426.553,54.669 C427.257,57.088 431.032,59.158 433.3,58.418 C436.418,57.401 438.397,54.851 438.449,51.686 C438.595,42.862 438.524,34.035 438.48,25.209 C438.471,23.454 437.797,21.631 436.628,20.54 C435.023,19.042 433.084,17.858 430.454,18.938 Z M196.5821,19.5 L196.5821,57.5 C198.2331,57.5 199.8061,57.552 201.3751,57.489 C204.4201,57.367 206.6311,55.891 208.0481,53.204 C208.1921,52.93 208.4831,52.66 208.4791,52.392 C208.4421,50.276 209.1141,48.249 209.0501,46.102 C208.8961,40.86 209.0291,35.61 208.9831,30.364 C208.9681,28.679 209.3631,26.935 208.5001,25.325 C208.7711,22.689 206.7101,21.49 205.1461,20.031 C204.7441,19.656 203.9841,19.538 203.3831,19.523 C201.1471,19.465 198.9081,19.5 196.5821,19.5 Z M387.072,19.5 L387.072,32.5 C389.488,32.5 391.812,32.361 394.113,32.534 C397.168,32.765 400.712,29.283 400.558,25.976 C400.412,22.836 398.35,19.835 394.32,19.533 C391.94,19.354 389.536,19.5 387.072,19.5 Z M271.0456,19.5 L271.0456,32.5 C273.5986,32.5 275.9236,32.517 278.2476,32.495 C280.5766,32.473 282.2946,31.55 283.7556,29.582 C286.7496,25.549 283.8666,20.109 279.1816,19.557 C276.5046,19.242 273.7606,19.5 271.0456,19.5 Z" id="Combined-Shape" fill="#3B0F2B"></path>
            <g id="Group-6" fill="#EEEDD9">
                <path d="M9.6795,75.7971 C10.0655,74.7821 10.2105,74.2801 10.4385,73.8201 C14.5505,65.5291 18.6665,57.2401 22.7965,48.9591 C24.4835,45.5751 26.2105,42.2121 27.9035,38.8311 C27.9975,38.6451 27.9505,38.3901 27.9835,37.9901 L0.1235,37.9901 C0.0465,37.7461 -0.0205,37.6401 0.0065,37.6031 C9.3655,25.0621 18.7315,12.5251 28.0515,0.0501 L65.7005,0.0501 L51.3415,14.4091 C46.6575,19.0921 41.9745,23.7761 36.9705,28.7801 C39.9155,29.1801 42.3675,28.9471 44.8035,28.9901 C47.3015,29.0341 49.8005,29.0001 52.2985,29.0001 L60.0435,29.0001 L67.5385,29.0001 L75.3385,29.0001 C73.4435,30.2891 71.8905,31.3101 70.3745,32.3851 C68.5025,33.7141 66.6665,35.0951 64.8055,36.4411 C62.4365,38.1551 60.0525,39.8491 57.6865,41.5671 C53.4615,44.6331 49.1475,47.5731 44.9795,50.7221 C42.0355,52.9471 38.8665,54.8721 35.8565,57.0131 C33.0765,58.9901 30.3875,61.0951 27.6315,63.1061 C26.0425,64.2651 24.3885,65.3341 22.7835,66.4731 C20.3995,68.1651 18.0385,69.8911 15.6575,71.5891 C13.8545,72.8741 12.0375,74.1381 9.6795,75.7971" id="Fill-4"></path>
            </g>
        </g>
    </g>
</svg>